<svg xmlns="http://www.w3.org/2000/svg" width="338" height="64" fill="none"  xmlns:v="https://vecta.io/nano"><path fill="#ffcbc0" d="M0 8h338v56H0z"/><path fill="#01385e" d="M9 0h319v53H9z"/><path d="M56.702 20.72h6.82c1.573 0 2.753.34 3.54 1.02s1.18 1.627 1.18 2.84c0 .68-.1 1.247-.3 1.7-.2.44-.433.8-.7 1.08-.267.267-.533.46-.8.58l-.56.24v.04c.213.027.44.093.68.2.253.107.487.28.7.52.213.227.387.527.52.9.147.373.22.84.22 1.4 0 .84.06 1.607.18 2.3.133.68.333 1.167.6 1.46h-2.68c-.187-.307-.3-.647-.34-1.02l-.04-1.08a10.11 10.11 0 0 0-.12-1.68c-.08-.48-.227-.873-.44-1.18-.213-.32-.507-.553-.88-.7-.36-.147-.827-.22-1.4-.22h-3.68V35h-2.5V20.72zm2.5 6.5h4.1c.8 0 1.407-.187 1.82-.56.413-.387.62-.96.62-1.72 0-.453-.067-.82-.2-1.1-.133-.293-.32-.52-.56-.68-.227-.16-.493-.267-.8-.32a5.14 5.14 0 0 0-.92-.08h-4.06v4.46zm11.582-6.5h10.28v2.16h-7.78v3.74h7.2v2.04h-7.2v4.18h7.92V35h-10.42V20.72zm16.418 0h2.66l5.5 14.28h-2.68l-1.34-3.78h-5.7L84.301 35h-2.58l5.48-14.28zm-.88 8.6h4.36l-2.14-6.14h-.06l-2.16 6.14zm10.4-8.6h5.92c1.094 0 2.04.187 2.84.56s1.454.887 1.96 1.54c.507.64.88 1.393 1.12 2.26a9.84 9.84 0 0 1 .38 2.78 9.84 9.84 0 0 1-.38 2.78c-.24.867-.613 1.627-1.12 2.28-.506.64-1.16 1.147-1.96 1.52s-1.746.56-2.84.56h-5.92V20.72zm2.5 12.24h2.46c.974 0 1.767-.127 2.38-.38.627-.267 1.114-.627 1.46-1.08.36-.467.6-1.007.72-1.62.134-.627.2-1.3.2-2.02a9.37 9.37 0 0 0-.2-2c-.12-.627-.36-1.167-.72-1.62-.346-.467-.833-.827-1.46-1.08-.613-.267-1.406-.4-2.38-.4h-2.46v10.2zm17.04-9.64a8.04 8.04 0 0 0 1.4-.12c.454-.08.86-.213 1.22-.4.374-.187.687-.427.94-.72.267-.293.44-.653.52-1.08h1.86v14h-2.5v-9.88h-3.44v-1.8zM136.654 35h-9.56c.014-1.16.294-2.173.84-3.04s1.294-1.62 2.24-2.26l1.42-.96c.494-.32.947-.66 1.36-1.02s.754-.747 1.02-1.16c.267-.427.407-.913.42-1.46a3.44 3.44 0 0 0-.1-.8 1.93 1.93 0 0 0-.34-.8 1.93 1.93 0 0 0-.72-.62c-.306-.173-.706-.26-1.2-.26-.453 0-.833.093-1.14.28-.293.173-.533.42-.72.74-.173.307-.306.673-.4 1.1-.08.427-.126.887-.14 1.38h-2.28c0-.773.1-1.487.3-2.14.214-.667.527-1.24.94-1.72s.914-.853 1.5-1.12c.6-.28 1.294-.42 2.08-.42.854 0 1.567.14 2.14.42s1.034.633 1.38 1.06a3.78 3.78 0 0 1 .76 1.4c.147.493.22.967.22 1.42 0 .56-.086 1.067-.26 1.52a5.04 5.04 0 0 1-.7 1.26c-.293.373-.626.72-1 1.04l-1.16.9-1.2.8-1.12.76c-.333.253-.626.52-.88.8-.253.267-.426.553-.52.86h6.82V35zm2.154-2.7h2.78V35c-.014.827-.267 1.52-.76 2.08s-1.14.92-1.94 1.08v-1.22c.44-.107.766-.353.98-.74.226-.373.333-.773.32-1.2h-1.38v-2.7zm9.746-11.58c1 0 1.813.233 2.44.7.64.453 1.133 1.04 1.48 1.76a7.38 7.38 0 0 1 .72 2.34c.133.853.2 1.68.2 2.48s-.067 1.627-.2 2.48c-.12.853-.36 1.64-.72 2.36-.347.707-.84 1.293-1.48 1.76-.627.453-1.44.68-2.44.68s-1.82-.227-2.46-.68a4.98 4.98 0 0 1-1.48-1.76c-.347-.72-.587-1.507-.72-2.36a17.81 17.81 0 0 1-.18-2.48 17.81 17.81 0 0 1 .18-2.48 8.11 8.11 0 0 1 .72-2.34c.36-.72.853-1.307 1.48-1.76.64-.467 1.46-.7 2.46-.7zm0 12.66c.493 0 .907-.14 1.24-.42.333-.293.593-.68.78-1.16.2-.493.34-1.067.42-1.72a17.13 17.13 0 0 0 .12-2.08 16.64 16.64 0 0 0-.12-2.06c-.08-.653-.22-1.227-.42-1.72-.187-.493-.447-.88-.78-1.16-.333-.293-.747-.44-1.24-.44-.507 0-.927.147-1.26.44-.32.28-.58.667-.78 1.16-.187.493-.32 1.067-.4 1.72a16.64 16.64 0 0 0-.12 2.06 17.13 17.13 0 0 0 .12 2.08c.08.653.213 1.227.4 1.72.2.48.46.867.78 1.16.333.28.753.42 1.26.42zm11.113-12.66c1 0 1.814.233 2.44.7.64.453 1.134 1.04 1.48 1.76a7.38 7.38 0 0 1 .72 2.34 15.98 15.98 0 0 1 .2 2.48 15.98 15.98 0 0 1-.2 2.48c-.12.853-.36 1.64-.72 2.36-.346.707-.84 1.293-1.48 1.76-.626.453-1.44.68-2.44.68s-1.82-.227-2.46-.68a4.99 4.99 0 0 1-1.48-1.76 8.44 8.44 0 0 1-.72-2.36 17.81 17.81 0 0 1-.18-2.48 17.81 17.81 0 0 1 .18-2.48c.134-.853.374-1.633.72-2.34.36-.72.854-1.307 1.48-1.76.64-.467 1.46-.7 2.46-.7zm0 12.66c.494 0 .907-.14 1.24-.42.334-.293.594-.68.78-1.16.2-.493.34-1.067.42-1.72a17.13 17.13 0 0 0 .12-2.08 16.64 16.64 0 0 0-.12-2.06c-.08-.653-.22-1.227-.42-1.72-.186-.493-.446-.88-.78-1.16-.333-.293-.746-.44-1.24-.44-.506 0-.926.147-1.26.44-.32.28-.58.667-.78 1.16-.186.493-.32 1.067-.4 1.72a16.64 16.64 0 0 0-.12 2.06 17.13 17.13 0 0 0 .12 2.08c.08.653.214 1.227.4 1.72.2.48.46.867.78 1.16.334.28.754.42 1.26.42zm11.114-12.66c1 0 1.813.233 2.44.7.64.453 1.133 1.04 1.48 1.76a7.38 7.38 0 0 1 .72 2.34c.133.853.2 1.68.2 2.48s-.067 1.627-.2 2.48c-.12.853-.36 1.64-.72 2.36-.347.707-.84 1.293-1.48 1.76-.627.453-1.44.68-2.44.68s-1.82-.227-2.46-.68a4.98 4.98 0 0 1-1.48-1.76c-.347-.72-.587-1.507-.72-2.36a17.81 17.81 0 0 1-.18-2.48 17.81 17.81 0 0 1 .18-2.48 8.11 8.11 0 0 1 .72-2.34c.36-.72.853-1.307 1.48-1.76.64-.467 1.46-.7 2.46-.7zm0 12.66c.493 0 .906-.14 1.24-.42.333-.293.593-.68.78-1.16.2-.493.34-1.067.42-1.72a17.13 17.13 0 0 0 .12-2.08 16.64 16.64 0 0 0-.12-2.06c-.08-.653-.22-1.227-.42-1.72-.187-.493-.447-.88-.78-1.16-.334-.293-.747-.44-1.24-.44-.507 0-.927.147-1.26.44-.32.28-.58.667-.78 1.16-.187.493-.32 1.067-.4 1.72a16.64 16.64 0 0 0-.12 2.06 17.13 17.13 0 0 0 .12 2.08c.08.653.213 1.227.4 1.72.2.48.46.867.78 1.16.333.28.753.42 1.26.42zm10.533-8.5h2.04v4.04h4.02v2.04h-4.02V35h-2.04v-4.04h-4.02v-2.04h4.02v-4.04zm14.099-4.16h6.82c1.573 0 2.753.34 3.54 1.02s1.18 1.627 1.18 2.84c0 .68-.1 1.247-.3 1.7-.2.44-.434.8-.7 1.08-.267.267-.534.46-.8.58l-.56.24v.04a2.43 2.43 0 0 1 .68.2c.253.107.486.28.7.52.213.227.386.527.52.9.146.373.22.84.22 1.4 0 .84.06 1.607.18 2.3.133.68.333 1.167.6 1.46h-2.68a2.43 2.43 0 0 1-.34-1.02l-.04-1.08a10.11 10.11 0 0 0-.12-1.68c-.08-.48-.227-.873-.44-1.18a1.84 1.84 0 0 0-.88-.7c-.36-.147-.827-.22-1.4-.22h-3.68V35h-2.5V20.72zm2.5 6.5h4.1c.8 0 1.406-.187 1.82-.56.413-.387.62-.96.62-1.72 0-.453-.067-.82-.2-1.1-.134-.293-.32-.52-.56-.68a1.95 1.95 0 0 0-.8-.32c-.294-.053-.6-.08-.92-.08h-4.06v4.46zm11.582-6.5h10.28v2.16h-7.78v3.74h7.2v2.04h-7.2v4.18h7.92V35h-10.42V20.72zm10.977 0h2.6l3.58 11.3h.04l3.66-11.3h2.54L228.012 35h-2.78l-4.76-14.28zm13.847 0h2.5V35h-2.5V20.72zm5.566 0h10.28v2.16h-7.78v3.74h7.2v2.04h-7.2v4.18h7.92V35h-10.42V20.72zm11.198 0h2.54l2.58 10.92h.04l2.88-10.92h2.56l2.8 10.92h.04l2.66-10.92h2.54L265.783 35h-2.54l-2.86-10.92h-.04L257.423 35h-2.58l-3.76-14.28zm21.927 9.52c0 .547.093 1.013.28 1.4a2.6 2.6 0 0 0 .78.96c.333.24.713.42 1.14.54.44.107.913.16 1.42.16.546 0 1.013-.06 1.4-.18.386-.133.7-.3.94-.5s.413-.427.52-.68c.106-.267.16-.533.16-.8 0-.547-.127-.947-.38-1.2-.24-.267-.507-.453-.8-.56a15.41 15.41 0 0 0-1.78-.52l-2.48-.66c-.614-.16-1.127-.367-1.54-.62-.4-.267-.72-.56-.96-.88a3.2 3.2 0 0 1-.52-1.02c-.094-.36-.14-.727-.14-1.1 0-.72.146-1.34.44-1.86a4.06 4.06 0 0 1 1.2-1.32 5.07 5.07 0 0 1 1.68-.76c.626-.173 1.26-.26 1.9-.26.746 0 1.446.1 2.1.3.666.187 1.246.473 1.74.86a4.2 4.2 0 0 1 1.2 1.44c.293.56.44 1.213.44 1.96h-2.5c-.067-.92-.38-1.567-.94-1.94-.56-.387-1.274-.58-2.14-.58a4.22 4.22 0 0 0-.9.1 2.52 2.52 0 0 0-.84.3 1.83 1.83 0 0 0-.64.56c-.16.24-.24.54-.24.9 0 .507.153.907.46 1.2.32.28.733.493 1.24.64l.62.18 1.24.32 1.32.36.94.24c.466.147.873.347 1.22.6s.633.547.86.88c.24.32.413.667.52 1.04a3.64 3.64 0 0 1 .18 1.12c0 .8-.167 1.487-.5 2.06-.32.56-.747 1.02-1.28 1.38s-1.14.62-1.82.78c-.68.173-1.374.26-2.08.26-.814 0-1.58-.1-2.3-.3s-1.347-.507-1.88-.92-.96-.94-1.28-1.58c-.32-.653-.487-1.42-.5-2.3h2.5z" fill="#fff"/></svg>