<svg xmlns="http://www.w3.org/2000/svg" width="113" height="113" fill="none" xmlns:v="https://vecta.io/nano"><circle cx="56.5" cy="56.5" r="55.5" stroke="#217bc9" stroke-width="2"/><path d="M47.012 70.913c-3.047.229-5.932 1.506-8.196 3.627-2.05 2.342-3.284 5.325-3.507 8.476-.009.071.001.143.027.209s.07.123.125.166c.048.051.106.092.17.119a.49.49 0 0 0 .202.039c3.058-.221 5.957-1.495 8.234-3.617 3.193-3.312 3.498-8.259 3.536-8.476a.48.48 0 0 0-.032-.211c-.026-.067-.068-.126-.12-.174-.055-.061-.124-.106-.201-.134a.49.49 0 0 0-.238-.024z" fill="#207bc9" stroke="#207bc9"/><path d="M43.324 79.201c-1.936 1.804-4.361 2.95-6.948 3.282.304-2.679 1.414-5.192 3.174-7.185 1.931-1.806 4.354-2.952 6.938-3.282-.312 2.675-1.417 5.185-3.164 7.185z" fill="#ffe8b9"/><path d="M70.438 62.093c5.242-5.421 5.718-13.541 5.718-13.896.008-.071-.002-.142-.029-.208s-.069-.123-.124-.167c-.096-.099-.226-.156-.362-.158-3.238.285-6.386 1.247-9.254 2.829a11.68 11.68 0 0 0 1.618-5.729 11.7 11.7 0 0 0-1.404-5.788c-.957-1.766-2.352-3.237-4.041-4.26a10.74 10.74 0 0 0-11.139 0c-1.689 1.023-3.084 2.494-4.041 4.26a11.7 11.7 0 0 0-1.404 5.788 11.68 11.68 0 0 0 1.618 5.729 23.96 23.96 0 0 0-9.33-2.838c-.068-.008-.138.002-.201.03s-.119.072-.161.128a.59.59 0 0 0-.153.374c0 .355.515 8.476 5.718 13.896 4.575 4.731 11.151 5.736 12.981 5.913v20.529c.022.114.082.216.169.29s.196.114.308.114.221-.04.308-.114.146-.176.169-.29V68.016c1.916-.187 8.473-1.192 13.038-5.923zm-13.467 2.08c-.663-3.247-1.992-6.309-3.898-8.978 2.507 1.011 5.289 1.011 7.796 0-1.898 2.675-3.227 5.734-3.898 8.978z" fill="#207bc9" stroke="#207bc9"/><path d="M69.743 61.333c-4.174 4.317-10.331 5.391-12.218 5.618.21-1.971 1.249-8.318 5.423-12.635s10.331-5.391 12.218-5.608c-.219 1.981-1.22 8.308-5.423 12.625z" fill="#fed0d0"/><path d="M56.971 54.947c5.537 0 10.026-4.642 10.026-10.368s-4.489-10.368-10.026-10.368-10.026 4.642-10.026 10.368 4.489 10.368 10.026 10.368z" fill="#e6f7ff"/><path d="M44.21 61.333c-4.174-4.317-5.213-10.673-5.423-12.625 1.906.217 8.006 1.291 12.218 5.608s5.204 10.674 5.451 12.635c-1.906-.227-8.044-1.261-12.247-5.618z" fill="#fed0d0"/><path d="M56.457 28.544v-3.942a.52.52 0 0 1 .005-.221c.017-.072.05-.139.096-.197a.49.49 0 0 1 .168-.136.47.47 0 0 1 .208-.048c.072 0 .143.017.208.048a.49.49 0 0 1 .168.136.51.51 0 0 1 .096.197.52.52 0 0 1 .005.221v3.942a.51.51 0 0 1-.168.29c-.086.074-.196.114-.308.114s-.221-.04-.308-.114a.51.51 0 0 1-.169-.29zm11.332 5.135a.55.55 0 0 1-.136-.365c0-.135.049-.265.136-.365l2.649-2.74a.49.49 0 0 1 .705 0c.094.097.146.228.146.365a.53.53 0 0 1-.146.365l-2.65 2.74c-.1.099-.233.155-.372.158a.51.51 0 0 1-.334-.158zm-24.979-2.78a.52.52 0 0 1-.143-.36.52.52 0 0 1 .143-.36c.095-.09.219-.14.348-.14s.253.05.348.14l2.65 2.74a.52.52 0 0 1 .143.36.52.52 0 0 1-.143.36c-.046.051-.102.092-.165.119s-.13.04-.198.038a.57.57 0 0 1-.362-.158l-2.621-2.74zm6.241-4.533a.53.53 0 0 1 .007-.389c.052-.123.148-.221.269-.271a.46.46 0 0 1 .38 0c.06.027.114.066.158.115a.5.5 0 0 1 .101.171l1.43 3.587a.53.53 0 0 1-.007.389c-.052.124-.148.221-.269.272a.37.37 0 0 1-.181 0 .51.51 0 0 1-.272-.091.54.54 0 0 1-.186-.225l-1.43-3.558zm22.302 11.747l3.479-1.478a.5.5 0 0 1 .373.014c.118.053.213.15.265.271a.56.56 0 0 1-.017.385.53.53 0 0 1-.26.276l-3.488 1.479a.37.37 0 0 1-.181 0 .52.52 0 0 1-.269-.088c-.081-.054-.145-.129-.188-.218a.58.58 0 0 1 .034-.373.55.55 0 0 1 .252-.268zm-8.807-8.534l1.43-3.587a.53.53 0 0 1 .269-.276.5.5 0 0 1 .379-.01.52.52 0 0 1 .26.275.54.54 0 0 1 .007.385l-1.43 3.587a.53.53 0 0 1-.185.226.5.5 0 0 1-.273.089c-.06.014-.122.014-.181 0a.51.51 0 0 1-.278-.284.54.54 0 0 1-.038-.203c0-.07.014-.138.041-.202zm-11.15 49.967l-1.43 3.597a.56.56 0 0 1-.187.222.53.53 0 0 1-.27.093.31.31 0 0 1-.181 0 .5.5 0 0 1-.269-.272.53.53 0 0 1-.007-.389l1.43-3.587a.52.52 0 0 1 .265-.271.5.5 0 0 1 .373-.014c.058.021.112.054.158.097a.46.46 0 0 1 .108.153.49.49 0 0 1 .042.185.48.48 0 0 1-.032.187zm13.533 3.213a.55.55 0 0 1-.014.386.53.53 0 0 1-.262.275.31.31 0 0 1-.181 0 .51.51 0 0 1-.272-.091.54.54 0 0 1-.186-.225l-1.439-3.598a.56.56 0 0 1 .017-.385c.051-.122.143-.22.259-.276a.46.46 0 0 1 .19-.041.48.48 0 0 1 .19.04.46.46 0 0 1 .158.115.5.5 0 0 1 .101.171l1.439 3.627zM38.482 36.921c.051-.123.145-.222.264-.275a.49.49 0 0 1 .374-.011l3.469 1.479c.12.054.215.154.267.279a.55.55 0 0 1 .01.392.55.55 0 0 1-.188.218.52.52 0 0 1-.269.088c-.06.014-.121.014-.181 0l-3.479-1.508c-.062-.023-.118-.058-.165-.104a.48.48 0 0 1-.11-.165.5.5 0 0 1-.036-.197c.001-.067.016-.134.044-.195zM36.29 63.856a3.33 3.33 0 0 0-.525-1.809 3.17 3.17 0 0 0-1.409-1.202 3.05 3.05 0 0 0-1.818-.189 3.11 3.11 0 0 0-1.613.888 3.29 3.29 0 0 0-.863 1.665 3.36 3.36 0 0 0 .177 1.88 3.23 3.23 0 0 0 1.158 1.461 3.07 3.07 0 0 0 1.748.549 3.06 3.06 0 0 0 1.203-.244 3.13 3.13 0 0 0 1.02-.702 3.25 3.25 0 0 0 .682-1.053 3.34 3.34 0 0 0 .24-1.243z" fill="#207bc9" stroke="#207bc9"/><path d="M33.146 66.093c-.428 0-.846-.131-1.202-.377s-.633-.595-.797-1.004a2.31 2.31 0 0 1-.123-1.292 2.26 2.26 0 0 1 .592-1.145 2.14 2.14 0 0 1 1.108-.612 2.1 2.1 0 0 1 1.25.127 2.18 2.18 0 0 1 .971.824 2.29 2.29 0 0 1 .365 1.243c-.002.593-.231 1.16-.636 1.579s-.954.655-1.527.658z" fill="#fed0d0"/><path d="M66.998 70.913c-.068-.006-.137.005-.2.032a.42.42 0 0 0-.162.125.59.59 0 0 0-.153.384c.224 3.154 1.466 6.139 3.526 8.476 2.267 2.114 5.151 3.387 8.196 3.617a.61.61 0 0 0 .362-.158.54.54 0 0 0 .132-.167c.033-.064.053-.135.059-.207-.224-3.156-1.47-6.142-3.536-8.476-2.28-2.114-5.171-3.389-8.225-3.627z" fill="#207bc9" stroke="#207bc9"/><path d="M70.685 79.201c-1.749-1.999-2.857-4.509-3.174-7.185 2.591.317 5.02 1.464 6.948 3.282 1.751 2.01 2.859 4.529 3.174 7.214-2.58-.374-4.997-1.526-6.948-3.311z" fill="#ffe8b9"/><path d="M80.865 60.614c-.62 0-1.226.19-1.742.546a3.22 3.22 0 0 0-1.155 1.455c-.237.592-.299 1.244-.178 1.873a3.28 3.28 0 0 0 .858 1.66c.438.454.997.762 1.605.887a3.04 3.04 0 0 0 1.812-.184 3.16 3.16 0 0 0 1.407-1.194 3.32 3.32 0 0 0 .529-1.801 3.3 3.3 0 0 0-.918-2.293c-.588-.608-1.386-.95-2.217-.95z" fill="#207bc9" stroke="#207bc9"/><path d="M80.865 66.093c-.428 0-.846-.131-1.202-.377s-.633-.595-.797-1.004a2.31 2.31 0 0 1-.123-1.292c.084-.434.29-.832.592-1.145s.688-.526 1.108-.612a2.1 2.1 0 0 1 1.25.127 2.18 2.18 0 0 1 .971.824 2.29 2.29 0 0 1 .365 1.243c0 .593-.228 1.162-.634 1.582s-.956.655-1.53.655z" fill="#fed0d0"/></svg>