<svg xmlns="http://www.w3.org/2000/svg" width="113" height="113" fill="none" xmlns:v="https://vecta.io/nano"><path d="M76.171 25.807l-1.542 2.47c-.059.12-8.777 14.218-9.666 15.724a12.7 12.7 0 0 0-1.838 6.868c0 3.555 1.423 6.989 3.914 9.519s5.871 3.916 9.37 3.916 6.879-1.386 9.37-3.916 3.914-5.964 3.914-9.519c0-3.735-1.839-6.507-3.38-8.736-.237-.422-5.812-9.218-8.718-13.857l-1.423-2.47z" fill="#e6f7ff"/><path d="M76.408 65.088a13.89 13.89 0 0 1-9.904-4.157c-2.669-2.651-4.151-6.265-4.151-10.061-.059-2.53.652-5.061 1.957-7.29l9.726-15.724 2.135-3.434 2.194 3.434 8.658 13.796c1.483 2.169 3.499 5.181 3.499 9.157 0 3.796-1.482 7.41-4.151 10.061-2.669 2.711-6.227 4.217-9.963 4.217zm-.237-37.835l-.89 1.446c-.059.06-8.718 14.037-9.726 15.724-1.186 1.928-1.779 4.157-1.72 6.446 0 3.434 1.364 6.627 3.736 8.977 2.372 2.41 5.515 3.735 8.896 3.735 3.321 0 6.523-1.325 8.895-3.735s3.677-5.603 3.737-8.977c0-3.494-1.779-6.205-3.203-8.374-.296-.422-5.753-9.097-8.718-13.857l-1.008-1.386z" fill="#eeada9"/><path d="M72.795 36.35h-2.194-.059v-.06-2.229c0-.301-.119-.602-.297-.843s-.474-.422-.771-.482c-.178-.06-.356 0-.534 0-.178.06-.356.12-.475.241s-.237.241-.356.422c-.059.181-.119.361-.119.542v2.289.06h-.059-2.194c-.297 0-.593.12-.83.301s-.415.482-.474.783c-.059.181 0 .361 0 .542.059.181.119.361.237.482s.237.241.415.361c.178.06.356.12.534.12h2.431.059v.06 2.229c0 .301.119.602.296.843s.475.422.771.482c.178.06.356 0 .534 0 .178-.06.356-.12.474-.241s.237-.241.356-.422c.059-.181.119-.361.119-.542V39v-.06h.059 2.253c.178 0 .356-.06.534-.12s.297-.181.415-.361c.119-.12.178-.301.237-.482a.85.85 0 0 0 0-.542c-.059-.301-.237-.542-.474-.783-.297-.181-.593-.301-.89-.301z" fill="#fee299"/><path d="M69.351 43.098h-.297a2.36 2.36 0 0 1-1.127-.663c-.297-.301-.415-.783-.415-1.205v-1.687h-1.72a1.62 1.62 0 0 1-.771-.181c-.237-.12-.475-.301-.652-.482s-.297-.482-.356-.723-.059-.542-.059-.783c.119-.482.356-.843.652-1.145.356-.301.771-.422 1.186-.422h1.66v-1.747a1.69 1.69 0 0 1 .178-.783c.119-.241.297-.482.475-.663s.474-.301.712-.361.534-.06.771-.06c.474.12.83.361 1.127.663a1.86 1.86 0 0 1 .415 1.205v1.687h1.661c.415 0 .889.12 1.186.422.356.301.593.663.652 1.084a2.02 2.02 0 0 1 0 .843c-.059.241-.178.482-.356.723s-.415.361-.652.482-.534.181-.771.181h-1.72v1.747a1.69 1.69 0 0 1-.178.783c-.119.241-.296.482-.474.663s-.474.301-.712.361c-.119.06-.296.06-.415.06zm-1.305-4.82h.237l.237.181a.69.69 0 0 1 .178.482v2.229a.69.69 0 0 0 .178.482c.119.12.237.241.415.241h.237c.118 0 .178-.06.237-.12s.119-.12.178-.241c.059-.06.059-.181.059-.301V38.7l.178-.241c.119-.12.297-.181.474-.181h2.254c.119 0 .178 0 .297-.06s.178-.12.237-.181a.46.46 0 0 0 .119-.241v-.301c-.059-.12-.119-.301-.237-.361-.119-.12-.297-.181-.474-.181h-2.431l-.237-.181a.69.69 0 0 1-.178-.482v-2.229a.69.69 0 0 0-.178-.482c-.119-.12-.237-.241-.415-.241h-.237c-.119 0-.178.06-.237.12s-.119.12-.178.241c-.059.06-.059.181-.059.301v2.53l-.178.241c-.118.12-.296.181-.474.181h-2.194c-.178 0-.356.06-.474.181s-.237.241-.237.422v.241a.46.46 0 0 0 .119.241c.059.06.119.12.237.181.059.06.178.06.297.06h2.254z" fill="#eeada9"/><path d="M70.301 47.435l6.346 10.724.059.06h.059.059l.059-.06 12.691-18.616c0-.06.059-.06.059-.12s0-.06-.059-.12c-.059 0-.059-.06-.119-.06s-.059 0-.118.06L76.943 51.954c-.059.06-.059.06-.119.06s-.059 0-.119-.06l-6.168-4.759c-.059 0-.059-.06-.119-.06s-.059 0-.119.06-.059.06-.059.12c.059.06.059.12.059.12z" fill="#fee299"/><path d="M76.884 58.882c-.059 0-.059 0 0 0-.178 0-.297-.06-.415-.12s-.178-.181-.237-.241l-6.405-10.784c-.119-.181-.119-.361-.119-.542s.119-.361.237-.482.296-.181.474-.181.356.06.534.181l5.812 4.518 12.217-12.35c.119-.12.296-.241.534-.241.178 0 .356.06.534.181s.237.301.296.482c0 .181 0 .362-.118.542L77.477 58.521c-.059.12-.178.181-.296.241-.059.12-.178.12-.297.12zm-4.922-9.88l4.922 8.314 9.785-14.338-9.251 9.398c-.119.12-.297.241-.474.241s-.356-.06-.534-.181l-4.448-3.434z" fill="#eeada9"/><path d="M55.476 68.762l11.801 13.435c.237.301.593.542.89.723.356.181.712.241 1.127.301.415 0 .771-.06 1.127-.181s.712-.362.949-.603c.534-.542.889-1.205.889-1.988.059-.723-.178-1.506-.652-2.048L57.255 61.051c-2.135-2.47-5.219-5.121-9.489-5.241l-23.544-.723 5.693 14.158 2.847.241c7.887-.06 11.09 1.325 13.758 4.458l9.192 11.025c1.483 1.627 2.431 3.253 5.812 3.253l23.959-.783c2.135-.06 2.965-1.506 3.024-2.892 0-2.47-1.779-3.314-5.93-3.856l-9.963-1.205" fill="#fff7f5"/><path d="M61.464 89.065c-3.38 0-4.685-1.506-5.93-2.952-.178-.181-.356-.422-.534-.602l-9.192-11.025c-2.313-2.711-5.041-4.157-13.047-4.157h-.059l-2.847-.241c-.356 0-.652-.241-.771-.542l-5.693-14.098c-.119-.301-.059-.602.119-.843s.415-.422.771-.361l23.544.723c3.618.12 6.939 1.868 10.141 5.543l14.411 17.351c.178.241.356.482.534.783l9.785 1.145c3.558.482 6.702 1.265 6.702 4.759 0 1.807-1.246 3.675-3.855 3.795l-24.077.723h0zM33.057 68.521c7.472 0 11.149 1.265 14.114 4.759l9.192 11.025c.178.181.356.422.534.603 1.186 1.325 2.016 2.349 4.566 2.349h.059l23.9-.783c1.957-.06 2.135-1.506 2.135-1.988 0-1.566-.771-2.35-5.159-2.952l-9.192-1.084v.06c-.059.964-.474 1.868-1.186 2.591-.356.361-.771.602-1.245.783s-.949.241-1.483.241-1.008-.12-1.483-.362-.89-.542-1.186-.904L54.763 69.364c-.356-.362-.297-.964.059-1.265s.949-.301 1.245.06l11.801 13.435a2.63 2.63 0 0 0 .652.482 1.62 1.62 0 0 0 .771.181c.237 0 .534-.06.771-.12.237-.121.474-.241.652-.422a2.33 2.33 0 0 0 .652-1.386c.059-.542-.119-1.024-.474-1.446L56.542 61.593c-1.779-2.048-4.685-4.82-8.836-4.88l-22.12-.663 4.982 12.35 2.254.181c.059-.06.119-.06.237-.06z" fill="#eeada9"/><path d="M29.384 71.414s-5.93-7.952-6.108-18.074l8.48-.422c.356 0 .652.06.949.241.296.12.593.361.83.602s.415.542.534.843.178.663.178 1.024c0 .181-.059.361-.059.602l.297 12.772s.178 3.374-1.72 3.073l-3.38-.663z" fill="#e6f7ff"/><path d="M32.942 72.92h-.356l-3.677-.663-.237-.301c-.237-.301-6.108-8.314-6.286-18.616v-.843l9.37-.482h.059c.474 0 .889.121 1.305.301s.771.482 1.068.783c.296.361.534.723.712 1.145s.237.904.237 1.326c0 .241-.059.422-.059.663l.297 12.652c0 .361.059 2.53-1.008 3.494-.474.362-.889.542-1.423.542zm-3.025-2.35l2.965.542c.119 0 .178 0 .237-.06.356-.301.474-1.446.415-2.109l-.297-12.893.059-.12c.059-.12.059-.241.059-.361 0-.241 0-.422-.119-.663-.059-.181-.178-.422-.356-.542-.178-.181-.356-.301-.534-.361s-.415-.12-.593-.12l-7.532.301c.356 8.254 4.685 15.001 5.693 16.387z" fill="#eeada9"/><circle cx="56.5" cy="56.5" r="55.5" stroke="#eeada9" stroke-width="2"/></svg>