<svg xmlns="http://www.w3.org/2000/svg" width="113" height="113" fill="none" xmlns:v="https://vecta.io/nano"><circle cx="56.5" cy="56.5" r="55.5" stroke="#217bc9" stroke-width="2"/><path d="M74.251 52.567L72.69 54.91l.781.781 5.466.781 4.685-2.343 3.124-3.124-1.562-.781-3.904-.781-3.905.781-3.124 2.343z" fill="#e6f7ff"/><path d="M56.769 60.872c6.757 0 12.235-5.79 12.235-12.933s-5.478-12.933-12.235-12.933-12.235 5.79-12.235 12.933 5.478 12.933 12.235 12.933z" fill="#ffe7b8"/><path d="M55.731 62.346l-1.297 1.262-.991 16.906 2.288.811h3.318l1.027-2.049v-2.391l-.67-12.179-.358-2.359h-3.318z" fill="#ffd0d0"/><path d="M59.495 78.969l-.794-12.662c-.091-.953.257-2.196-.384-2.687-.548-.482-1.721-.177-2.676-.228-.412.005-.643.029-.647.548l-1.138 15.158a1.23 1.23 0 0 0-.012.531 1.21 1.21 0 0 0 .212.483 1.16 1.16 0 0 0 .394.34 1.12 1.12 0 0 0 .498.129l3.51.124a.75.75 0 0 0 .34-.061.78.78 0 0 0 .281-.206 1.57 1.57 0 0 0 .395-.678 1.62 1.62 0 0 0 .023-.792zm6.493-38.963c-1.514-1.849-3.523-3.195-5.773-3.869a11.53 11.53 0 0 0-6.879.081c-2.235.726-4.214 2.119-5.687 4.003a12.54 12.54 0 0 0-2.596 6.588 12.66 12.66 0 0 0 1.362 6.973c1.108 2.135 2.8 3.885 4.865 5.029a11.58 11.58 0 0 0 6.744 1.406c2.333-.228 4.549-1.163 6.37-2.687 2.455-2.108 4.001-5.136 4.299-8.422s-.676-6.558-2.709-9.102h.004zM59.66 82.013a23.52 23.52 0 0 1-4.442.063c-1.92-.009-2.995-1.159-2.85-3.177l.954-11.82.266-3.236c.036-.375-.1-.862.552-.984.422-.099-.137-1.429-.409-1.461-3.317-.937-6.196-3.081-8.108-6.036-3.874-5.837-2.543-14.449 2.98-18.61 2.338-1.869 5.211-2.881 8.166-2.877a13.04 13.04 0 0 1 8.158 2.901c6.256 4.852 7.198 14.55 1.966 20.443-1.817 2.07-4.186 3.537-6.808 4.218-.281.066-1.2 1.532-.343 1.668.272.028.145.397.168.635l1.094 15.248c.027.822-.162 1.636-.547 2.356l-.797.668zm-6.414-43.177c-.026-.025-.045-.056-.058-.09s-.017-.071-.014-.107a.71.71 0 0 1 .036-.511c.075-.159.206-.283.367-.345 2.04-.731 4.248-.795 6.325-.184a10.5 10.5 0 0 1 5.283 3.6.66.66 0 0 1 .118.23.69.69 0 0 1 .024.259c-.008.087-.034.172-.073.249a.65.65 0 0 1-.16.201.64.64 0 0 1-.222.122c-.081.025-.166.034-.25.025a.63.63 0 0 1-.24-.076.65.65 0 0 1-.194-.165c-1.194-1.522-2.813-2.625-4.636-3.16s-3.761-.474-5.55.173a.75.75 0 0 1-.405-.003.77.77 0 0 1-.348-.214zm9.665 17.453c-.058-.065-.103-.143-.13-.227a.65.65 0 0 1-.029-.262.63.63 0 0 1 .078-.251.62.62 0 0 1 .171-.196c1.725-1.466 2.868-3.537 3.213-5.818.012-.088.04-.172.084-.248s.102-.142.171-.195a.63.63 0 0 1 .231-.11.62.62 0 0 1 .254-.008c.084.015.165.047.237.095a.65.65 0 0 1 .182.184.68.68 0 0 1 .098.506c-.366 2.609-1.654 4.986-3.615 6.671a.73.73 0 0 1-.498.106.74.74 0 0 1-.449-.246zm7.666-20.257c-.058-.065-.103-.143-.13-.227a.65.65 0 0 1-.029-.262c.008-.088.035-.174.078-.251a.62.62 0 0 1 .171-.196l3.485-2.952a.64.64 0 0 1 .222-.122c.081-.025.166-.034.25-.025a.63.63 0 0 1 .24.076.65.65 0 0 1 .194.166.68.68 0 0 1 .118.23.69.69 0 0 1 .024.259.68.68 0 0 1-.073.249c-.04.077-.094.145-.16.201l-3.485 2.952a.63.63 0 0 1-.472.145.64.64 0 0 1-.434-.241zM37.665 63.906c-.058-.065-.103-.143-.13-.227a.65.65 0 0 1-.028-.262c.009-.089.035-.174.078-.251a.62.62 0 0 1 .171-.196l3.485-2.952a.64.64 0 0 1 .222-.122c.081-.025.166-.034.25-.025a.63.63 0 0 1 .24.076.65.65 0 0 1 .194.166.68.68 0 0 1 .118.23.69.69 0 0 1 .024.259.66.66 0 0 1-.234.45l-3.485 2.952a.6.6 0 0 1-.22.134.59.59 0 0 1-.254.029c-.086-.009-.169-.037-.243-.082s-.139-.105-.189-.178zm-5.317-17.949a.61.61 0 0 1-.12-.228.63.63 0 0 1-.016-.259.66.66 0 0 1 .068-.249.64.64 0 0 1 .158-.201c.065-.055.141-.096.222-.12a.6.6 0 0 1 .25-.02l4.479.508c.164.022.314.11.417.244s.151.305.135.475a.66.66 0 0 1-.223.438c-.127.11-.29.166-.455.154l-4.478-.508a.69.69 0 0 1-.435-.233zm11.307-12.932L40.8 29.421a.68.68 0 0 1-.142-.488.67.67 0 0 1 .234-.45.63.63 0 0 1 .472-.147.64.64 0 0 1 .435.241l2.855 3.604a.66.66 0 0 1 .118.23.69.69 0 0 1 .024.259.66.66 0 0 1-.234.45c-.066.055-.141.097-.222.122s-.166.034-.25.025a.63.63 0 0 1-.241-.076.65.65 0 0 1-.194-.166zm13.994-4.281c-.055-.066-.096-.144-.12-.228a.61.61 0 0 1-.016-.259l.401-4.641c.006-.088.028-.174.067-.253s.092-.149.157-.206a.63.63 0 0 1 .222-.126c.082-.026.167-.035.252-.027a.62.62 0 0 1 .243.077.64.64 0 0 1 .194.169c.053.069.092.149.115.234a.68.68 0 0 1 .017.262l-.401 4.641a.66.66 0 0 1-.069.249.64.64 0 0 1-.158.201c-.065.055-.141.096-.222.12a.62.62 0 0 1-.249.021.49.49 0 0 1-.247-.058.51.51 0 0 1-.188-.175zm-7.54 60.275l-2.248 5.925a.62.62 0 0 0 .057.454c.076.138.201.239.349.282a.55.55 0 0 0 .437-.063.61.61 0 0 0 .275-.358l2.248-5.925a.62.62 0 0 0-.057-.454c-.076-.138-.201-.239-.349-.282s-.305-.016-.437.062a.61.61 0 0 0-.274.358h.001zm9.217.964l1.767 6.098c.213.738 1.338.445 1.124-.295l-1.766-6.098c-.214-.738-1.338-.444-1.124.295zm-5.008.343l-.226 6.361a.61.61 0 0 0 .166.426.57.57 0 0 0 .82.009.61.61 0 0 0 .174-.422l.225-6.36a.61.61 0 0 0-.172-.413.57.57 0 0 0-.806-.009.61.61 0 0 0-.181.408z" fill="#207bc9"/><path d="M69.566 60.377l.781-1.562.781.781 1.562 1.562.781 1.562.781 3.904-.781 3.904-2.343-2.343-2.343-3.904.781-3.904z" fill="#e6f7ff"/><g fill="#207bc9"><path d="M72.632 71.279c.027-.008.052-.022.074-.04a.21.21 0 0 0 .052-.068c.066-.14 1.612-3.471.691-6.839s-3.936-5.403-4.064-5.488c-.023-.012-.043-.019-.063-.024-.046-.011-.074-.009-.1-.001s-.05.02-.071.037a.2.2 0 0 0-.051.061c-.071.151-1.618 3.481-.696 6.849s3.936 5.404 4.064 5.489c.024.016.051.026.079.031s.057.002.084-.005zm-3.839-5.623c-.669-2.445.056-4.935.448-6.001l1.491 5.451c.007.026.019.051.036.073s.037.04.06.053.049.022.075.026.053.001.079-.006.049-.02.07-.036.038-.038.051-.062.021-.05.024-.077.001-.055-.007-.081l-1.492-5.452c.877.705 2.761 2.452 3.431 4.9.747 2.732-.247 5.526-.571 6.32-.68-.509-2.949-2.373-3.697-5.108zm2.769-10.169c.013.014.028.026.044.036.174.091 4.234 2.13 8.308.973s6.512-5.041 6.614-5.206c.015-.025.025-.052.029-.081s.002-.059-.005-.087-.021-.055-.039-.078-.041-.041-.067-.054c-.171-.087-4.229-2.126-8.304-.97s-6.513 5.042-6.614 5.207l-.006.01c-.013.024-.021.05-.024.077s-.001.055.006.081c.005.015.012.029.021.043s.01.022.016.033.014.011.021.016v.001zm14.493-4.224c-.557.812-2.839 3.862-6.251 4.831-3.103.88-6.282-.206-7.498-.71l5.23-1.485 1.808 1.06c.047.027.102.034.154.02s.095-.05.121-.098.032-.105.018-.159a.21.21 0 0 0-.096-.126l-1.455-.853 2.463-.7c.026-.007.049-.02.07-.036s.038-.038.051-.062a.21.21 0 0 0 .024-.077c.003-.027.001-.055-.007-.081s-.019-.051-.036-.073-.037-.04-.06-.053a.2.2 0 0 0-.075-.026c-.026-.003-.053-.001-.079.006l-2.93.832-.005.002-2.46.699.879-1.618c.013-.024.021-.05.024-.077s.001-.055-.006-.081-.019-.051-.036-.073-.037-.04-.06-.053a.2.2 0 0 0-.075-.026c-.026-.003-.053-.002-.079.006s-.049.02-.07.037-.038.038-.051.061l-1.076 1.981-2.299.651c.784-1.071 2.952-3.678 6.057-4.56 3.409-.967 6.914.441 7.803.841v.001z"/><path d="M72.513 71.429c-.043-.009-.084-.026-.121-.05-.13-.086-3.187-2.145-4.125-5.574-.936-3.419.632-6.801.699-6.943l.01-.02a.35.35 0 0 1 .085-.101c.036-.03.076-.051.12-.064a.34.34 0 0 1 .141-.009l.018.004.027.011c.023.005.046.013.066.025l.02.011c.136.09 3.196 2.154 4.132 5.578s-.633 6.802-.7 6.944c-.022.045-.052.084-.089.116s-.08.055-.127.069a.33.33 0 0 1-.158.005zm-3.227-12.468c-.008-.001-.017-.001-.025.001s-.014.006-.02.011-.011.011-.015.017c-.067.142-1.59 3.425-.683 6.737.908 3.32 3.876 5.32 4.002 5.403.007.005.015.008.023.009s.016.001.024-.001.016-.007.023-.013.012-.014.015-.022c.064-.135 1.588-3.411.68-6.73-.881-3.222-3.71-5.204-3.986-5.391l-.066-.027c.009.003.018.005.027.007zm3.267 12.032l-.146-.109c-.688-.514-2.991-2.409-3.751-5.189-.69-2.516.087-5.1.452-6.094l.153-.418 1.61 5.884c.005.015.015.028.028.035s.029.01.044.006.028-.014.035-.028.009-.031.005-.046l-1.61-5.884.343.276c.817.657 2.792 2.458 3.482 4.978.759 2.777-.249 5.614-.576 6.417l-.07.172zm-3.327-10.85c-.373 1.162-.876 3.348-.295 5.474.688 2.515 2.693 4.288 3.496 4.915.368-.96 1.183-3.536.496-6.049-.582-2.129-2.124-3.733-3.033-4.53l1.369 5.002c.013.045.016.093.011.139a.36.36 0 0 1-.042.132c-.022.041-.052.077-.088.105s-.077.05-.12.062a.33.33 0 0 1-.134.01c-.045-.006-.089-.021-.128-.044a.35.35 0 0 1-.103-.091c-.028-.037-.049-.08-.061-.125l-1.368-5.001zm5.555-3.407c-1.115-.221-2.201-.583-3.234-1.076l-.026-.016c-.019-.013-.037-.028-.053-.045l-.036-.035c-.013-.016-.023-.035-.031-.054-.015-.023-.027-.049-.035-.076-.012-.045-.016-.092-.011-.138a.36.36 0 0 1 .041-.132l.011-.018c.103-.167 2.571-4.098 6.696-5.269s8.233.892 8.406.98a.35.35 0 0 1 .114.093c.031.039.054.084.067.133s.016.098.009.148-.023.096-.049.138c-.104.169-2.576 4.1-6.697 5.27-1.69.443-3.46.476-5.172.097h-.001zm-3.088-1.331c.395.197 4.286 2.055 8.182.949 4.017-1.141 6.431-4.98 6.532-5.144.008-.015.011-.032.007-.049-.002-.008-.006-.016-.012-.023s-.012-.012-.019-.016c-.169-.087-4.18-2.101-8.202-.96s-6.431 4.982-6.532 5.144c-.004.007-.007.015-.008.024s-.001.017.002.025l.019.026.032.023zm-.026-.014l.011.006-.011-.006zm3.197.927a14.55 14.55 0 0 1-2.608-.796l-.396-.164 5.697-1.618 1.86 1.09c.014.008.03.01.045.006s.028-.014.035-.028.009-.031.005-.046-.014-.029-.028-.037l-1.758-1.03 2.796-.794c.015-.005.027-.015.034-.029.004-.007.006-.014.007-.022s0-.016-.002-.023c-.004-.016-.014-.029-.028-.037s-.029-.01-.044-.005l-5.729 1.628 1.048-1.929c.008-.014.009-.031.005-.046s-.014-.029-.028-.036c-.007-.004-.014-.007-.022-.008s-.015 0-.023.002c-.014.005-.027.015-.034.029l-1.105 2.034-2.765.786.255-.349c.797-1.09 2.991-3.72 6.132-4.613 3.424-.971 6.911.404 7.898.848l.163.073-.102.149c-.618.901-2.902 3.914-6.329 4.887-1.63.422-3.335.45-4.983.081h.002zm-2.095-.91c1.414.531 4.24 1.327 6.998.543 3.167-.899 5.338-3.6 6.068-4.625-1.147-.493-4.378-1.658-7.543-.761-2.76.784-4.774 2.955-5.714 4.155l1.821-.519 1.047-1.928c.022-.041.052-.077.087-.106s.076-.05.12-.062.089-.016.134-.01a.34.34 0 0 1 .128.044.35.35 0 0 1 .103.091c.028.037.049.079.061.125s.016.092.011.139a.36.36 0 0 1-.042.132l-.71 1.307 5.062-1.438a.33.33 0 0 1 .134-.01.34.34 0 0 1 .128.044c.04.023.075.054.103.091s.049.08.061.125.016.092.011.139a.36.36 0 0 1-.042.132.35.35 0 0 1-.087.105c-.036.029-.077.05-.12.062l-2.129.604 1.153.676a.36.36 0 0 1 .164.216c.025.091.014.189-.03.271a.35.35 0 0 1-.088.105c-.036.029-.077.05-.12.062a.33.33 0 0 1-.134.01c-.045-.006-.089-.021-.128-.045l-1.756-1.029-4.751 1.353z"/></g></svg>