<svg xmlns="http://www.w3.org/2000/svg" width="113" height="113" fill="none" xmlns:v="https://vecta.io/nano"><circle cx="56.5" cy="56.5" r="55.5" stroke="#eeada9" stroke-width="2"/><path d="M40.703 84c6.71 0 12.15-5.44 12.15-12.15s-5.44-12.15-12.15-12.15-12.15 5.44-12.15 12.15S33.993 84 40.703 84z" fill="#e6f7ff"/><path d="M53.527 60.375l-1.012-8.1 15.862-16.2 9.787 9.788-15.525 16.2-9.113-1.687z" fill="#fee299"/><path d="M76.815 32.363L71.077 38.1l5.063 5.063 6.075-5.4-5.4-5.4z" fill="#fff7f5"/><path d="M38.003 69.825L36.99 65.1l5.063.337v4.05l-4.05.338z" fill="#fee299"/><g stroke="#eeada9" stroke-width="2"><g stroke-linecap="round" stroke-linejoin="round"><path d="M68.496 36.137L52.548 52.085l1.227 8.588 8.588 1.227 15.949-15.949M53.763 60.685l-6.112 6.112"/><path d="M56.242 48.411l4.885 4.885m-1.203-8.567l2.43 2.43m1.253-6.113l4.885 4.885m-2.431-12.249l14.704 14.704m-9.795-9.819l6.112-6.112M75.88 43.477l6.112-6.112M74.653 30l9.794 9.794"/></g><path d="M40.274 83.994C33.495 83.994 28 78.498 28 71.72s5.495-12.274 12.274-12.274 12.274 5.495 12.274 12.274-5.495 12.274-12.274 12.274z" stroke-linejoin="round"/><path d="M36.592 64.355s2.392 1.319 3.682 1.227c.913-.065 2.455-1.227 2.455-1.227s-1.319 2.392-1.227 3.682c.065.913 1.227 2.455 1.227 2.455s-1.542-1.162-2.455-1.227c-1.291-.092-3.682 1.227-3.682 1.227s1.163-1.542 1.227-2.455c.092-1.29-1.227-3.682-1.227-3.682z" stroke-linejoin="round"/></g></svg>