<svg xmlns="http://www.w3.org/2000/svg" width="102" height="15" fill="none"  xmlns:v="https://vecta.io/nano"><g clip-path="url(#A)" fill="#01385e"><path d="M8.777.454l1.752 4.918 5.489.056a.48.48 0 0 1 .18.032.45.45 0 0 1 .152.097.44.44 0 0 1 .101.146c.023.055.035.113.034.172a.49.49 0 0 1-.043.214.51.51 0 0 1-.133.177L11.872 9.34l1.635 4.918a.43.43 0 0 1 .014.181c-.008.061-.03.119-.062.171a.45.45 0 0 1-.128.133c-.051.035-.111.061-.173.073a.53.53 0 0 1-.408-.056l-4.496-3.018-4.496 3.018a.5.5 0 0 1-.178.083.51.51 0 0 1-.198.008c-.066-.01-.129-.034-.184-.069a.47.47 0 0 1-.14-.134.34.34 0 0 1-.094-.187.33.33 0 0 1 .035-.204L4.631 9.34.193 6.266c-.101-.079-.168-.191-.19-.314a.5.5 0 0 1 .073-.356.53.53 0 0 1 .185-.127.55.55 0 0 1 .224-.041l5.489-.056L7.726.454c.023-.059.058-.113.102-.159a.5.5 0 0 1 .158-.109c.06-.026.124-.04.19-.042a.52.52 0 0 1 .192.031.4.4 0 0 1 .258.068c.075.051.128.126.151.211h0zm21.43 0l1.752 4.918 5.489.056a.48.48 0 0 1 .18.032.45.45 0 0 1 .152.097.44.44 0 0 1 .101.146c.023.055.035.113.034.172a.49.49 0 0 1-.043.214.51.51 0 0 1-.132.177L33.302 9.34l1.635 4.918a.43.43 0 0 1 .014.181c-.008.061-.03.119-.062.171a.45.45 0 0 1-.128.133c-.051.035-.111.061-.173.073a.53.53 0 0 1-.408-.056l-4.496-3.018-4.496 3.018a.5.5 0 0 1-.178.083.51.51 0 0 1-.198.008c-.066-.01-.129-.034-.184-.069a.47.47 0 0 1-.14-.134.34.34 0 0 1-.094-.187.33.33 0 0 1 .035-.204l1.635-4.918-4.438-3.074a.51.51 0 0 1-.19-.314.5.5 0 0 1 .073-.356.53.53 0 0 1 .185-.127.55.55 0 0 1 .224-.041l5.489-.056L29.156.454c.023-.059.058-.113.102-.159s.098-.083.158-.109.124-.04.19-.042a.52.52 0 0 1 .192.031c.292 0 .409.112.409.279zm21.488 0l1.752 4.918 5.489.056a.48.48 0 0 1 .18.032.45.45 0 0 1 .152.097.44.44 0 0 1 .101.146c.023.055.035.113.034.172a.49.49 0 0 1-.176.391L54.79 9.34l1.635 4.918a.43.43 0 0 1 .014.181.42.42 0 0 1-.063.171.45.45 0 0 1-.128.133c-.052.035-.111.061-.173.073a.53.53 0 0 1-.409-.056l-4.496-3.018-4.496 3.018a.5.5 0 0 1-.178.083.51.51 0 0 1-.198.008c-.066-.01-.129-.034-.184-.069a.47.47 0 0 1-.14-.134.34.34 0 0 1-.094-.187c-.01-.07.002-.141.035-.204l1.635-4.918-4.438-3.074c-.101-.079-.168-.191-.19-.314a.5.5 0 0 1 .073-.356.53.53 0 0 1 .185-.127.55.55 0 0 1 .224-.041l5.489-.056L50.644.454c.023-.059.058-.113.102-.159s.098-.083.158-.109.124-.04.19-.042a.5.5 0 0 1 .192.031.4.4 0 0 1 .258.068c.075.051.128.126.151.211zm21.43 0l1.752 4.918 5.489.056a.48.48 0 0 1 .18.032.45.45 0 0 1 .152.097.44.44 0 0 1 .101.146c.023.055.035.113.034.172a.49.49 0 0 1-.043.214.51.51 0 0 1-.132.177L76.22 9.34l1.635 4.918a.43.43 0 0 1 .014.181c-.008.061-.03.119-.062.171a.44.44 0 0 1-.128.133c-.052.035-.111.061-.173.073a.53.53 0 0 1-.408-.056L72.6 11.743l-4.496 3.018a.5.5 0 0 1-.178.083.51.51 0 0 1-.198.008.5.5 0 0 1-.184-.069.46.46 0 0 1-.14-.134.34.34 0 0 1-.094-.187.33.33 0 0 1 .035-.204L68.98 9.34l-4.438-3.074c-.101-.079-.168-.191-.19-.314a.5.5 0 0 1 .073-.356.53.53 0 0 1 .185-.127.55.55 0 0 1 .224-.041l5.489-.056L72.074.454c.023-.059.058-.113.102-.159s.098-.083.158-.109.124-.04.19-.042a.5.5 0 0 1 .192.031c.092-.007.183.017.258.068s.128.126.151.211zM88.831 15a.68.68 0 0 1-.296-.074.65.65 0 0 1-.229-.194.47.47 0 0 1-.123-.258.46.46 0 0 1 .051-.279l1.595-4.802-4.353-3.018c-.13-.098-.219-.238-.248-.393s.001-.317.087-.452l.027-.037a.68.68 0 0 1 .233-.157.7.7 0 0 1 .279-.052l5.384-.056L92.956.405c.057-.151.174-.274.325-.344a.67.67 0 0 1 .484-.029.55.55 0 0 1 .326.102.51.51 0 0 1 .193.272l1.718 4.824 5.385.056a.63.63 0 0 1 .235.043.61.61 0 0 1 .199.127.59.59 0 0 1 .133.191.56.56 0 0 1 .045.225.63.63 0 0 1-.054.267.66.66 0 0 1-.164.223l-4.37 3.029 1.603 4.821a.61.61 0 0 1 .013.252c-.013.084-.044.164-.09.237-.041.062-.095.116-.157.158a.59.59 0 0 1-.209.088.69.69 0 0 1-.267.02.68.68 0 0 1-.253-.083l-4.431-2.972-4.412 2.962a.65.65 0 0 1-.376.127zm-3.265-9.322a.36.36 0 0 0-.049.253.37.37 0 0 0 .133.223l4.521 3.13-1.667 5.015a.21.21 0 0 0-.03.128c.004.045.022.087.052.122a.34.34 0 0 0 .098.104c.04.028.086.047.134.056a.36.36 0 0 0 .146-.002c.048-.011.093-.031.132-.059l4.583-3.077 4.58 3.074c.078.046.17.062.26.045l.037-.012a.3.3 0 0 0 .111-.043c.033-.022.062-.05.083-.082a.33.33 0 0 0 .043-.262L97.07 9.283l4.523-3.132a.36.36 0 0 0 .117-.28c.001-.041-.007-.081-.023-.119s-.039-.072-.069-.101a.32.32 0 0 0-.105-.066.33.33 0 0 0-.124-.022l-5.594-.056L94.01.496c-.013-.057-.048-.108-.098-.142S93.8.305 93.739.312l-.054-.01a.38.38 0 0 0-.274.017.36.36 0 0 0-.184.195L91.45 5.508l-5.592.056c-.054-.002-.108.007-.159.027s-.096.049-.133.087h0z"/><path d="M96.734 13.835l-3.116-2.091-4.496 3.018c-.053.039-.113.067-.178.083s-.132.018-.198.008-.129-.034-.184-.069-.104-.08-.14-.133a.34.34 0 0 1-.094-.187c-.01-.07.002-.141.035-.204l1.635-4.918-4.438-3.074a.51.51 0 0 1-.19-.314.5.5 0 0 1 .073-.356.53.53 0 0 1 .185-.127.55.55 0 0 1 .224-.041l5.489-.056L93.092.455c.023-.059.058-.113.102-.159s.098-.083.158-.109.124-.04.19-.042a.52.52 0 0 1 .192.031.4.4 0 0 1 .258.068c.075.051.128.126.151.211l1.752 4.918.798.008h.094l-.054 8.454z"/></g><defs><clipPath id="A"><path fill="#fff" d="M0 0h102v15H0z"/></clipPath></defs></svg>