<svg xmlns="http://www.w3.org/2000/svg" width="100" height="100" fill="none"  xmlns:v="https://vecta.io/nano"><circle cx="50" cy="50" r="50" fill="#fff"/><g clip-path="url(#A)"><path d="M71.618 73.347L60.397 48.893c-.013-.026-.02-.053-.033-.079l-3.645-7.945v-12.44h.205c1.641 0 2.977-1.328 2.977-2.957s-1.336-2.957-2.977-2.957H43.011c-1.641 0-2.977 1.328-2.977 2.957s1.336 2.957 2.977 2.957h.205v12.447L28.323 73.347c-.185.361-2.461 4.909-.582 7.978 1.052 1.722 3.149 2.596 6.239 2.596h31.974c3.09 0 5.187-.874 6.239-2.596 1.885-3.062-.39-7.617-.576-7.978z" fill="#fac8be"/><path d="M71.148 80.754c-.801 1.308-2.527 1.965-5.121 1.965H34c-2.6 0-4.32-.664-5.121-1.965-1.535-2.497.615-6.684.635-6.723.007-.007.007-.02.013-.033l8.501-18.533s3.017-1.157 12.1 1.912 11.908-1.912 11.908-1.912l8.455 18.533c.007.013.007.02.013.033.026.046 2.17 4.226.642 6.723z" fill="#e8f6fd"/><g fill="#103d5e"><path d="M71.677 73.413l-11.234-24.48c-.013-.026-.02-.053-.033-.079l-3.652-7.952V28.435h.205c1.641 0 2.977-1.328 2.977-2.964 0-1.63-1.336-2.957-2.977-2.957H43.037c-1.641 0-2.977 1.328-2.977 2.957a2.98 2.98 0 0 0 2.977 2.964h.205v12.467L28.323 73.413c-.185.362-2.461 4.922-.582 7.991C28.793 83.126 30.897 84 33.993 84H66.02c3.096 0 5.193-.874 6.252-2.596 1.866-3.069-.41-7.63-.595-7.991zM41.376 25.471a1.66 1.66 0 0 1 1.661-1.649h13.926c.92 0 1.661.743 1.661 1.649a1.66 1.66 0 0 1-1.661 1.649H43.037c-.92 0-1.661-.736-1.661-1.649zm23.175 35.58h-29.11 29.11zm-29.103 0l9.057-19.742a.64.64 0 0 0 .06-.269V28.428h10.876v6.927h-3.758a.66.66 0 0 0-.662.657.66.66 0 0 0 .662.657h3.758v4.37a.64.64 0 0 0 .06.269l.285.618h-3.394a.66.66 0 0 0-.662.657.66.66 0 0 0 .662.657h3.996l2.415 5.258h-3.381a.66.66 0 0 0-.662.657.66.66 0 0 0 .662.657h3.983l2.335 5.1h-3.387a.66.66 0 0 0-.662.651.66.66 0 0 0 .662.657h3.989l2.216 4.837-29.11-.007zm-.602 1.308h30.307zm29.705-1.308l5.928 12.92c.007.013.007.02.013.033.026.039 2.163 4.226.635 6.723-.8 1.301-2.521 1.965-5.121 1.965H33.98c-2.6 0-4.32-.664-5.121-1.965-1.535-2.497.615-6.684.635-6.723.007-.007.007-.02.013-.033l5.928-12.92m23.493 17.678c4.003-2.603 3.659-10.797 3.645-11.146a.39.39 0 0 0-.417-.388c-.344.007-8.601.118-11.002 4.232-1.019 1.774-.814 3.923.582 6.526.172.316.595.559.595.559 2.64 1.242 4.863 1.321 6.596.217z"/></g><path d="M61.78 68.004c.013 1.636-.126 7.978-3.301 10.016-1.416.9-3.268.835-5.518-.164l1.092-1.15c1.27-.033 2.263.342 2.269-.322.04-.631-.933-.375-1.541-.447l1.29-1.354c1.27-.033 2.263.342 2.269-.322.04-.631-.933-.375-1.541-.447l2.163-2.267c.165-.177.159-.407-.013-.572a.39.39 0 0 0-.576.013l-2.163 2.267-.093-1.144c-.007-.23-.212-.368-.443-.361s-.37.21-.364.44l.165 1.834-1.29 1.354c-.132-.624.073-1.551-.536-1.505-.688.079-.205 1.038-.199 2.274l-1.092 1.15c-3.381-6.414 2.468-8.957 9.421-9.293z" fill="#fae6d5"/><path d="M48.31 78.736s.417-.243.595-.559c1.403-2.603 1.601-4.745.582-6.526-2.401-4.107-10.651-4.219-11.002-4.232a.39.39 0 0 0-.417.388c-.007.342-.351 8.537 3.645 11.146 1.74 1.117 3.963 1.032 6.596-.217z" fill="#103d5e"/><path d="M48.29 77.533l-1.092-1.15c.007-1.236.496-2.195-.198-2.274-.602-.046-.397.881-.536 1.505l-1.29-1.354.165-1.833c.007-.23-.132-.434-.364-.44s-.437.131-.443.361l-.093 1.144-2.163-2.267a.38.38 0 0 0-.576-.013c-.179.164-.185.394-.013.572l2.163 2.267c-.609.072-1.581-.184-1.541.447.013.657 1.006.283 2.269.322l1.29 1.354c-.609.072-1.581-.184-1.541.447.013.657 1.006.283 2.269.322l1.092 1.15c-2.249.999-4.102 1.065-5.518.164-3.176-2.037-3.321-8.379-3.301-10.016 6.953.335 12.802 2.872 9.421 9.293z" fill="#fae6d5"/><path d="M57.142 73.242c1.389-5.829-6.073-13.045-6.384-13.354a.5.5 0 0 0-.721 0c-.311.309-7.774 7.518-6.384 13.354.615 2.504 2.679 4.298 6.232 5.474.43.138 1.032 0 1.032 0 3.493-1.124 5.604-2.964 6.225-5.474z" fill="#103d5e"/><path d="M50.394 60.966c1.442 1.485 6.847 7.42 5.716 12.026-.516 2.044-2.263 3.582-5.2 4.607v-1.998c1.131-1.124 2.368-1.636 1.8-2.247-.516-.611-1.184.46-1.8.92v-2.353c1.131-1.124 2.368-1.636 1.8-2.248-.516-.611-1.184.46-1.8.92v-3.937a.48.48 0 0 0-.516-.513.48.48 0 0 0-.516.513v3.937l-1.078-.973c-.205-.204-.516-.151-.721.053s-.152.513.053.716l1.753 1.538v2.353c-.668-.46-1.29-1.485-1.8-.92-.569.664.721 1.124 1.8 2.248v1.998c-8.707-2.977-5.564-10.344.509-16.64z" fill="#fac8be"/><g fill="#103d5e"><path d="M63.552 29.138l5.564.624c.278.013.516-.217.542-.539-.033-.289-.265-.526-.542-.539l-5.564-.624c-.278-.013-.516.217-.543.539.033.289.265.526.543.539zm-1.362-8.234l4.73-2.918c.589-.342.033-1.255-.509-.907l-4.73 2.918c-.595.342-.086 1.249.509.907zm1.462 4.271l5.452-1.268c.642-.145.397-1.176-.258-.992l-5.452 1.268c-.642.145-.384 1.137.258.992z"/></g></g><defs><clipPath id="A"><path fill="#fff" transform="translate(27 17)" d="M0 0h46v67H0z"/></clipPath></defs></svg>