<svg xmlns="http://www.w3.org/2000/svg" width="113" height="113" fill="none" xmlns:v="https://vecta.io/nano"><circle cx="56.5" cy="56.5" r="55.5" stroke="#217bc9" stroke-width="2"/><path d="M84.314 51.712l6.577.215c.797.026.796-1.256 0-1.282l-6.577-.215c-.797-.026-.797 1.256 0 1.282zm-2.354-9.929l5.305-4.026a.66.66 0 0 0 .279-.393.68.68 0 0 0-.058-.484c-.084-.146-.219-.252-.378-.295s-.328-.02-.47.065l-5.305 4.027a.66.66 0 0 0-.28.393.68.68 0 0 0 .058.484.63.63 0 0 0 .378.295c.158.043.328.02.47-.065v-.001zm2.129 5.085l6.275-2.048c.758-.247.438-1.485-.329-1.236l-6.275 2.048c-.758.247-.438 1.485.33 1.236z" fill="#207bc9"/><path d="M53.639 77.342L48.4 87.502s-1.31 2.032 5.239 1.359 30.128-.678 30.128-.678 2.62 0 0-2.709l-8.33-16.376s-4.118 5.539-7.391 4.184-13.757 1.35-14.408 4.059z" fill="#ffe8b9"/><g fill="#207bc9"><path d="M83.96 89.345H49.308a1.32 1.32 0 0 1-.666-.193c-.202-.123-.37-.298-.486-.508a1.79 1.79 0 0 1-.241-.847c-.009-.299.056-.595.189-.86L59.206 66.14c.349-.708.529-1.493.526-2.288V50.251h-3.154v-4.53a2.49 2.49 0 0 1 .577-1.752c.408-.483.983-.78 1.602-.826h16.539c.618.047 1.194.343 1.602.826a2.49 2.49 0 0 1 .578 1.752v4.53h-3.154v13.681c-.003.758.159 1.506.475 2.19l10.377 20.839a1.81 1.81 0 0 1 .173.86c-.014.297-.1.586-.251.839a1.36 1.36 0 0 1-.481.497 1.3 1.3 0 0 1-.655.188zM57.786 49.002h3.154v14.851c.004 1-.225 1.987-.666 2.877L49.172 87.527a.52.52 0 0 0-.046.237c.004.082.026.161.066.232.018.03.065.1.12.1h34.652c.053 0 .099-.066.117-.091a.52.52 0 0 0 .068-.236c.004-.083-.013-.166-.047-.241L73.724 66.688a6.5 6.5 0 0 1-.602-2.748V49.009h3.154v-3.284c0-.725-.444-1.33-.972-1.33H58.766c-.526 0-.972.609-.972 1.33l-.008 3.278z"/><path d="M54.499 77.465l-.788-.943c.231-.208 5.745-5.063 13.032-4.056 6.511.894 7.729-4.194 7.778-4.41l1.174.285c-.014.063-1.543 6.401-9.112 5.363-6.776-.929-12.032 3.713-12.084 3.762z"/></g><path d="M64.722 40.576c1.825 0 3.305-1.53 3.305-3.418s-1.48-3.418-3.305-3.418-3.305 1.53-3.305 3.418 1.48 3.418 3.305 3.418z" fill="#fed0d0"/><path d="M64.722 41.003a3.66 3.66 0 0 1-2.628-1.127c-.697-.721-1.089-1.698-1.09-2.718s.393-1.997 1.09-2.718a3.66 3.66 0 0 1 2.628-1.127c.986.001 1.931.407 2.628 1.128s1.089 1.698 1.09 2.718-.393 1.997-1.09 2.718-1.642 1.126-2.628 1.127zm0-6.836a2.81 2.81 0 0 0-1.106.228 2.89 2.89 0 0 0-.938.648 3 3 0 0 0-.627.97 3.08 3.08 0 0 0 0 2.288 3 3 0 0 0 .627.97c.268.278.587.498.938.648s.727.228 1.106.228c.767 0 1.502-.315 2.044-.876s.847-1.321.847-2.114-.305-1.553-.847-2.114-1.278-.876-2.044-.876z" fill="#207bc9"/><path d="M71.635 34.724c1.272 0 2.302-1.066 2.302-2.381s-1.031-2.381-2.302-2.381-2.303 1.066-2.303 2.381 1.031 2.381 2.303 2.381z" fill="#e6f7ff"/><path d="M71.634 35.021a2.55 2.55 0 0 1-1.831-.785 2.73 2.73 0 0 1 0-3.786 2.55 2.55 0 0 1 1.831-.785 2.55 2.55 0 0 1 1.831.785c.486.502.759 1.183.76 1.893s-.274 1.391-.76 1.893a2.55 2.55 0 0 1-1.831.785zm0-4.762a1.98 1.98 0 0 0-1.425.61 2.12 2.12 0 0 0 0 2.947 1.98 1.98 0 0 0 1.425.61c.535 0 1.047-.22 1.425-.61a2.12 2.12 0 0 0 0-2.947c-.378-.391-.89-.61-1.425-.61z" fill="#207bc9"/><path d="M63.824 26.229a1.73 1.73 0 0 1 .985.309 1.82 1.82 0 0 1 .653.823 1.89 1.89 0 0 1 .101 1.059c-.068.356-.237.682-.485.938s-.564.431-.908.502-.7.035-1.024-.104-.601-.374-.795-.675-.299-.656-.299-1.018c0-.486.187-.952.519-1.296s.783-.537 1.253-.537z" fill="#e6f7ff"/><path d="M63.824 30.124c-.529 0-1.036-.218-1.41-.604a2.1 2.1 0 0 1 0-2.915c.374-.387.881-.604 1.409-.605s1.035.218 1.409.605a2.1 2.1 0 0 1 0 2.915c-.374.387-.881.604-1.409.605zm0-3.666a1.53 1.53 0 0 0-1.096.47c-.291.301-.455.708-.455 1.134s.164.833.455 1.134a1.53 1.53 0 0 0 1.097.47c.411 0 .806-.17 1.096-.47s.455-.709.455-1.134-.165-.833-.455-1.134-.685-.47-1.096-.47z" fill="#207bc9"/><g stroke-width="2" stroke="#207bc9"><path d="M21 43.897v45.01"/><path d="M32.105 43.139c0 3.215-4.402 3.215-4.402 6.433s4.402 3.215 4.402 6.433-4.402 3.216-4.402 6.433 4.402 3.215 4.402 6.433-4.402 3.215-4.402 6.433 4.402 3.216 4.402 6.433-4.402 3.216-4.402 6.433m15.303-44.273c0 1.875-5.87 1.875-5.87 3.75s5.87 1.875 5.87 3.75-5.87 1.875-5.87 3.751 5.87 1.875 5.87 3.75-5.87 1.875-5.87 3.751 5.87 1.876 5.87 3.751-5.87 1.874-5.87 3.749 5.87 1.876 5.87 3.75-5.87 1.875-5.87 3.752 5.87 1.876 5.87 3.75-5.87 1.876-5.87 3.753 5.87 1.876 5.87 3.753" stroke-miterlimit="10"/></g></svg>