<svg xmlns="http://www.w3.org/2000/svg" xmlns:xlink="http://www.w3.org/1999/xlink" width="113" height="113" fill="none" xmlns:v="https://vecta.io/nano"><circle cx="56.5" cy="56.5" r="55.5" stroke="#217bc9" stroke-width="2"/><path d="M83.211 84.738H33.908a2.72 2.72 0 0 1-1.96-.844 2.94 2.94 0 0 1-.812-2.038V52.88c-.093-.361-.109-.738-.046-1.106a2.6 2.6 0 0 1 .41-1.021c.313-.319.695-.554 1.115-.686s.863-.156 1.294-.07c.434-.002.86.13 1.223.377 1.072.856.19 2.645 1.09 3.776.644.809 1.807.785 3.27.755.811-.017 4.226-.089 5.448-2.266.49-.873.166-1.262.726-1.888.73-.817 1.862-.806 3.996-.755 1.99.047 2.985.071 3.633.755.847.895.276 1.825 1.089 2.643.709.712 1.814.611 3.996.377 2.236-.239 3.798-.407 4.358-1.512.406-.801-.085-1.351.364-1.888.62-.737 1.829-.023 3.996 0 2.79.03 4.079-1.117 4.722-.377.573.66-.379 1.653 0 3.025.522 1.884 3.325 3.59 5.448 3.025 3.081-.825 3.587-6.122 5.945-6.041.728.036 1.421.335 1.961.844a2.88 2.88 0 0 1 .602.935 2.97 2.97 0 0 1 .21 1.103v28.976a2.94 2.94 0 0 1-.814 2.033 2.72 2.72 0 0 1-1.958.842z" fill="#ffe8b9"/><path d="M28.986 45.156l-3.133-5.055c-.045-.059-.101-.107-.163-.143s-.132-.059-.204-.067a.53.53 0 0 0-.213.019.54.54 0 0 0-.19.102.59.59 0 0 0-.198.382c-.016.149.024.299.113.418l3.133 5.057c.091.118.223.193.367.21s.289-.027.403-.121a.57.57 0 0 0 .199-.382.6.6 0 0 0-.113-.418v-.001zm-5.78 6.776l-5.466-1.971c-.662-.238-1.064.815-.401 1.054l5.466 1.972c.662.239 1.064-.815.401-1.054v-.001zm2.502-4.163l-4.566-3.694c-.555-.445-1.198.464-.647.912l4.565 3.694c.555.445 1.198-.464.647-.912h.001z" fill="#207bc9"/><path d="M69.515 33.623s-1.874-2.998 6.632-2.436c0 0 8.506-.188 7.065 2.06 0 0 1.729 2.529-7.065 1.452-.001.001-6.632 1.546-6.632-1.076z" fill="#e6f7ff"/><path d="M51.493 33.998s-1.874-2.997 6.632-2.436c0 0 8.506-.188 7.065 2.061 0 0 1.729 2.529-7.065 1.452 0 0-6.632 1.545-6.632-1.077z" fill="#fed0d0"/><path d="M33.471 33.623s-1.874-2.998 6.632-2.436c0 0 8.506-.188 7.064 2.06 0 0 1.73 2.529-7.064 1.452-.001.001-6.632 1.546-6.632-1.076zM40.144 78.4s-5.406-.749.721-7.494c-.004-.001 5.042 7.868-.721 7.494z" fill="#e6f7ff"/><path d="M58.161 78.4s-5.407-.749.721-7.494c0-.001 5.046 7.868-.721 7.494z" fill="#fed0d0"/><g fill="#e6f7ff"><path d="M75.823 78.4s-5.407-.749.721-7.494c0-.001 5.045 7.868-.721 7.494z"/><use xlink:href="#B"/></g><use xlink:href="#B" x="17.799" fill="#fed0d0"/><path d="M71.82 53.018l-.104 12.716c.23.978.81 1.828 1.622 2.377s1.794.755 2.748.577c0 0 4.45 1.132 4.45-4.531V52.829a3.53 3.53 0 0 1-2.967 0 13.07 13.07 0 0 0-4.08 0l-1.669.189z" fill="#e6f7ff"/><g fill="#207bc9"><path d="M86.319 51.941c-.001-.593-.228-1.162-.631-1.581s-.95-.655-1.521-.656h-2.73v-14.11h.222c.562-.001 1.101-.233 1.498-.646a2.25 2.25 0 0 0 0-3.115c-.397-.413-.936-.645-1.498-.646H70.76c-.562.001-1.101.233-1.499.646a2.25 2.25 0 0 0 0 3.115c.398.413.937.645 1.499.646h.222v14.109h-7.406V35.595h.222c.562 0 1.101-.233 1.499-.646a2.25 2.25 0 0 0 0-3.115c-.398-.413-.937-.645-1.499-.646H52.898c-.562.001-1.101.233-1.498.646a2.25 2.25 0 0 0 0 3.115c.397.413.936.645 1.498.646h.222v14.109h-7.405V35.595h.222a2.08 2.08 0 0 0 1.498-.646 2.25 2.25 0 0 0 0-3.115 2.08 2.08 0 0 0-1.498-.646h-10.9c-.562.001-1.101.233-1.499.646a2.25 2.25 0 0 0 0 3.115c.397.413.936.645 1.499.646h.222v14.109h-2.727c-.57.001-1.117.236-1.521.656s-.63.988-.631 1.581v32.508c0 .118.045.231.125.315a.42.42 0 0 0 .303.13h3.701l.626 3.548a.45.45 0 0 0 .148.264.42.42 0 0 0 .276.103h4.589a.42.42 0 0 0 .276-.103.45.45 0 0 0 .148-.264l.625-3.548h34.3l.626 3.548a.45.45 0 0 0 .147.264.42.42 0 0 0 .276.103h4.589c.101.001.198-.036.276-.103a.45.45 0 0 0 .148-.264l.626-3.548h3.704a.42.42 0 0 0 .303-.13c.08-.083.125-.197.125-.315l.001-32.507zm-14.478.966a1.85 1.85 0 0 1 .536.267 2.31 2.31 0 0 0 1.43.47c.513.008 1.015-.156 1.431-.47a1.5 1.5 0 0 1 .968-.328 1.5 1.5 0 0 1 .968.328 2.32 2.32 0 0 0 1.432.47 2.32 2.32 0 0 0 1.432-.47c.164-.118.346-.208.537-.267v11.233c-.002 1.203-.463 2.355-1.281 3.206a4.29 4.29 0 0 1-3.084 1.331 4.29 4.29 0 0 1-3.084-1.331c-.818-.85-1.279-2.003-1.281-3.206l-.005-11.233zm-2.342-19.516c0-.347.133-.68.369-.926s.556-.384.89-.384h10.9c.334 0 .654.139.89.384s.368.578.369.925-.133.68-.369.925-.556.384-.89.384H70.76a1.22 1.22 0 0 1-.483-.099 1.26 1.26 0 0 1-.409-.284c-.117-.122-.21-.266-.273-.425s-.096-.329-.096-.501zm11.077 2.204v14.548 1.847a2.42 2.42 0 0 0-1.002.433 1.5 1.5 0 0 1-.968.328 1.5 1.5 0 0 1-.968-.328c-.416-.313-.918-.478-1.432-.47-.513-.008-1.016.157-1.432.47-.277.221-.618.336-.967.328-.349.008-.69-.108-.967-.328-.298-.22-.64-.368-1-.433v-1.827-.021-14.545l8.735-.001zM53.979 52.907a1.84 1.84 0 0 1 .536.267 2.31 2.31 0 0 0 1.43.47c.514.008 1.016-.156 1.431-.47.277-.221.618-.336.967-.328a1.5 1.5 0 0 1 .969.328 2.32 2.32 0 0 0 1.432.47 2.32 2.32 0 0 0 1.433-.47c.165-.118.346-.208.538-.267v11.233c-.002 1.203-.463 2.355-1.281 3.206a4.29 4.29 0 0 1-3.084 1.332 4.29 4.29 0 0 1-3.084-1.332c-.818-.85-1.279-2.003-1.281-3.206l-.008-11.233zm-2.342-19.516c0-.347.133-.68.369-.925s.556-.384.89-.384h10.9c.334 0 .654.139.89.384s.369.578.369.925-.133.68-.369.925-.556.384-.89.384h-10.9c-.334-.001-.654-.139-.889-.384s-.368-.578-.369-.925h-.001zm11.077 2.204v16.394a2.42 2.42 0 0 0-1.002.433 1.5 1.5 0 0 1-.969.328 1.5 1.5 0 0 1-.968-.328c-.416-.313-.919-.478-1.432-.47-.513-.008-1.015.157-1.431.47a1.5 1.5 0 0 1-.968.328c-.348.008-.689-.108-.965-.328-.298-.22-.64-.368-1-.433V50.16 35.595h8.735zM36.118 52.907a1.85 1.85 0 0 1 .536.267 2.31 2.31 0 0 0 1.43.47 2.31 2.31 0 0 0 1.431-.47c.277-.22.619-.336.968-.328a1.5 1.5 0 0 1 .968.328 2.32 2.32 0 0 0 1.432.47 2.32 2.32 0 0 0 1.432-.47c.164-.118.346-.208.537-.267v11.233c-.002 1.203-.462 2.355-1.28 3.206a4.29 4.29 0 0 1-3.084 1.331 4.29 4.29 0 0 1-3.084-1.331c-.818-.85-1.279-2.003-1.281-3.206l-.005-11.233zm-2.342-19.516c0-.347.133-.68.369-.926s.556-.384.89-.384h10.9c.334 0 .654.139.89.384s.369.578.369.925-.133.68-.369.925-.556.384-.89.384h-10.9c-.334 0-.654-.139-.89-.384s-.368-.578-.369-.925h-.001zm11.077 2.204v16.394c-.361.066-.703.214-1.002.433a1.5 1.5 0 0 1-.968.328c-.349.008-.69-.108-.968-.328-.416-.313-.918-.478-1.432-.47-.514-.008-1.016.157-1.432.47-.277.221-.618.336-.967.328-.349.008-.689-.108-.966-.328a2.41 2.41 0 0 0-1-.433V35.595h8.734zm-5.063 52.321h-3.872l-.533-3.019h4.938l-.532 3.019zm40.991 0h-3.872l-.533-3.019h4.938l-.533 3.019zm4.681-3.914H31.242v-32.06a1.37 1.37 0 0 1 .378-.949 1.27 1.27 0 0 1 .912-.394h2.728V64.14c.002 1.441.553 2.823 1.533 3.841s2.309 1.592 3.696 1.593 2.715-.575 3.695-1.594 1.531-2.4 1.533-3.841V50.6h7.405v13.541c.002 1.441.553 2.822 1.533 3.841s2.309 1.592 3.695 1.594 2.715-.575 3.695-1.594 1.532-2.4 1.533-3.841V50.6h7.406v13.541c.002 1.441.553 2.822 1.533 3.841s2.309 1.592 3.695 1.594 2.715-.575 3.695-1.594 1.531-2.4 1.533-3.841V50.6h2.73c.342 0 .671.142.913.393a1.37 1.37 0 0 1 .379.949v32.059z"/><path d="M81.134 89h-4.589a.6.6 0 0 1-.39-.148c-.109-.095-.183-.227-.209-.373l-.599-3.394H41.351l-.599 3.393a.64.64 0 0 1-.209.373c-.109.095-.247.148-.39.148h-4.59a.6.6 0 0 1-.39-.148.64.64 0 0 1-.209-.373l-.599-3.393h-3.55a.6.6 0 0 1-.432-.187.65.65 0 0 1-.18-.45V51.941a2.48 2.48 0 0 1 .684-1.714 2.29 2.29 0 0 1 1.649-.712h2.546v-13.73h-.04a2.26 2.26 0 0 1-1.626-.701c-.431-.448-.674-1.057-.675-1.691s.243-1.242.675-1.691A2.26 2.26 0 0 1 35.043 31h10.901a2.26 2.26 0 0 1 1.626.701 2.45 2.45 0 0 1 .675 1.691c.001.634-.243 1.242-.675 1.691a2.26 2.26 0 0 1-1.626.701h-.04v13.731h7.042V35.784h-.04a2.26 2.26 0 0 1-1.626-.702c-.431-.448-.674-1.056-.675-1.69a2.44 2.44 0 0 1 .675-1.691A2.26 2.26 0 0 1 52.905 31h10.9a2.26 2.26 0 0 1 1.627.701c.431.448.674 1.057.675 1.691a2.44 2.44 0 0 1-.675 1.691 2.26 2.26 0 0 1-1.627.701h-.039v13.731h7.042V35.784h-.04a2.26 2.26 0 0 1-1.626-.702c-.431-.448-.674-1.056-.675-1.69s.243-1.242.675-1.691A2.26 2.26 0 0 1 70.767 31h10.901a2.26 2.26 0 0 1 1.626.702 2.44 2.44 0 0 1 0 3.38 2.26 2.26 0 0 1-1.626.702h-.05v13.731h2.548c.619.001 1.212.257 1.65.711a2.48 2.48 0 0 1 .684 1.715V84.45a.65.65 0 0 1-.179.45.6.6 0 0 1-.432.187h-3.552l-.599 3.393c-.026.146-.1.278-.21.374a.6.6 0 0 1-.391.148zm-40.088-4.292h34.602l.654 3.703a.26.26 0 0 0 .085.152.24.24 0 0 0 .159.06h4.589a.24.24 0 0 0 .159-.06c.044-.039.075-.093.085-.152l.653-3.703h3.856c.066 0 .129-.027.176-.075s.073-.114.073-.183V51.941c-.001-.542-.209-1.062-.578-1.446s-.869-.599-1.391-.601h-2.909V35.406h.404c.514-.001 1.006-.214 1.369-.591a2.06 2.06 0 0 0 0-2.847c-.363-.378-.856-.59-1.369-.591h-10.9c-.514.001-1.006.213-1.37.591a2.06 2.06 0 0 0 0 2.848c.363.378.856.59 1.37.591h.403v14.487h-7.768V35.406h.403c.514-.001 1.007-.213 1.371-.591a2.06 2.06 0 0 0 0-2.849c-.364-.378-.857-.59-1.371-.591h-10.9c-.514.001-1.007.213-1.37.591a2.06 2.06 0 0 0 0 2.848c.363.378.856.59 1.37.591h.404v14.487h-7.769V35.406h.403c.514-.001 1.007-.213 1.37-.591a2.06 2.06 0 0 0 0-2.849c-.363-.378-.856-.59-1.37-.591h-10.9a1.9 1.9 0 0 0-1.37.591 2.06 2.06 0 0 0 0 2.849c.363.378.856.59 1.37.591h.404v14.487h-2.91a1.9 1.9 0 0 0-.753.156 1.97 1.97 0 0 0-.639.444 2.05 2.05 0 0 0-.427.664c-.099.248-.15.514-.15.783v32.508a.26.26 0 0 0 .073.182c.047.048.11.076.175.076h3.851l.654 3.703c.011.059.041.113.086.152s.101.06.159.06h4.589c.058 0 .114-.021.159-.06s.075-.092.086-.152l.649-3.7zm39.878 3.397H76.75l-.599-3.397h5.374l-.601 3.397zm-3.871-.377h3.568l.467-2.641h-4.501l.466 2.641zm-37.116.377h-4.174l-.599-3.397h5.377l-.604 3.397zm-3.871-.377h3.569l.466-2.641H35.6l.466 2.641zm49.57-3.536H31.053v-32.25c0-.406.156-.795.432-1.082s.65-.449 1.041-.449h2.909V64.14c0 1.392.532 2.727 1.479 3.712a4.95 4.95 0 0 0 3.57 1.537c1.339 0 2.623-.553 3.57-1.537s1.479-2.319 1.479-3.712V50.41h7.769v13.73c0 1.392.532 2.727 1.479 3.712a4.95 4.95 0 0 0 3.57 1.537c1.339 0 2.623-.553 3.57-1.537s1.479-2.32 1.479-3.712V50.41h7.768v13.73c0 1.392.532 2.727 1.479 3.712a4.95 4.95 0 0 0 3.57 1.537c1.339 0 2.623-.553 3.57-1.537s1.479-2.319 1.479-3.712V50.41h2.909a1.45 1.45 0 0 1 1.041.449c.276.287.431.676.432 1.082l-.012 32.25zm-54.219-.377h53.856V51.941a1.2 1.2 0 0 0-.085-.443 1.16 1.16 0 0 0-.241-.375 1.11 1.11 0 0 0-.361-.251 1.08 1.08 0 0 0-.426-.088h-2.543v13.352c-.002 1.491-.572 2.92-1.587 3.975s-2.389 1.647-3.823 1.649-2.809-.595-3.823-1.649-1.585-2.484-1.587-3.975V50.788h-7.042V64.14c-.002 1.491-.572 2.92-1.587 3.975s-2.389 1.647-3.823 1.649-2.809-.595-3.823-1.649-1.585-2.484-1.587-3.975V50.788h-7.042V64.14c-.002 1.491-.572 2.92-1.587 3.975s-2.389 1.647-3.823 1.649-2.809-.595-3.823-1.649-1.585-2.484-1.587-3.975V50.788h-2.546a1.09 1.09 0 0 0-.787.339 1.18 1.18 0 0 0-.326.818l.002 31.869zm44.788-14.946c-1.206-.001-2.362-.5-3.215-1.387s-1.332-2.089-1.334-3.343V52.662l.229.065c.209.065.407.163.586.293a2.13 2.13 0 0 0 1.332.439c.479.009.947-.146 1.333-.439a1.66 1.66 0 0 1 1.066-.356c.383-.009.759.117 1.065.356a2.14 2.14 0 0 0 1.334.44c.479.009.947-.146 1.333-.44a2.02 2.02 0 0 1 .589-.293l.229-.065v11.476c-.001 1.253-.48 2.455-1.332 3.342s-2.008 1.386-3.213 1.388l-.002-.002zM72.019 53.18v10.959c.002 1.154.444 2.259 1.229 3.075s1.848 1.275 2.958 1.276 2.173-.461 2.957-1.277a4.45 4.45 0 0 0 1.228-3.074v-10.96c-.088.047-.174.099-.257.156a2.5 2.5 0 0 1-1.53.5 2.5 2.5 0 0 1-1.529-.499c-.248-.202-.556-.307-.871-.299-.314-.008-.622.097-.87.298a2.5 2.5 0 0 1-1.529.5 2.49 2.49 0 0 1-1.528-.5 2.64 2.64 0 0 0-.254-.154l-.004-.001zM58.343 68.868c-1.206-.001-2.363-.5-3.215-1.387a4.83 4.83 0 0 1-1.334-3.343V52.662l.229.065a2.02 2.02 0 0 1 .586.293 2.13 2.13 0 0 0 1.333.439c.478.009.946-.146 1.332-.439a1.66 1.66 0 0 1 1.066-.356 1.67 1.67 0 0 1 1.065.356 2.14 2.14 0 0 0 1.335.44 2.14 2.14 0 0 0 1.334-.44 2.02 2.02 0 0 1 .588-.293l.229-.065v11.476c-.001 1.253-.48 2.455-1.332 3.342s-2.008 1.386-3.214 1.388l-.003-.002zm-4.186-15.689v10.96a4.45 4.45 0 0 0 1.228 3.075c.784.816 1.848 1.275 2.958 1.276s2.173-.461 2.958-1.276 1.227-1.921 1.229-3.075v-10.96a2.64 2.64 0 0 0-.257.156 2.5 2.5 0 0 1-1.53.499 2.5 2.5 0 0 1-1.529-.499c-.248-.202-.556-.307-.871-.299a1.32 1.32 0 0 0-.87.298 2.5 2.5 0 0 1-1.529.5 2.49 2.49 0 0 1-1.527-.5 2.73 2.73 0 0 0-.256-.153l-.004-.002zM40.482 68.868c-1.206-.001-2.362-.5-3.215-1.387a4.83 4.83 0 0 1-1.334-3.343V52.66l.229.066a2.02 2.02 0 0 1 .586.293c.386.294.854.448 1.332.44.479.009.947-.146 1.333-.44a1.66 1.66 0 0 1 1.064-.356 1.66 1.66 0 0 1 1.066.356 2.14 2.14 0 0 0 1.335.44 2.14 2.14 0 0 0 1.333-.439 2.03 2.03 0 0 1 .589-.293l.229-.065v11.476c-.001 1.254-.48 2.456-1.332 3.343s-2.008 1.387-3.213 1.389l-.004-.002zm-4.186-15.689v10.959c.002 1.154.444 2.259 1.229 3.075s1.848 1.275 2.958 1.276 2.173-.461 2.957-1.277a4.45 4.45 0 0 0 1.228-3.074v-10.96c-.088.047-.174.099-.257.156a2.5 2.5 0 0 1-1.53.499 2.5 2.5 0 0 1-1.528-.499 1.33 1.33 0 0 0-.872-.299 1.32 1.32 0 0 0-.869.298c-.445.332-.981.508-1.529.5a2.5 2.5 0 0 1-1.528-.5 2.65 2.65 0 0 0-.254-.153l-.003-.001zm42.306-.24a1.65 1.65 0 0 1-1.065-.356 2.14 2.14 0 0 0-1.334-.439c-.479-.009-.948.145-1.334.439a1.66 1.66 0 0 1-1.065.356c-.383.009-.757-.116-1.063-.356a2.25 2.25 0 0 0-.933-.407l-.153-.025V35.406h9.098V52.15l-.152.025c-.336.062-.655.2-.933.406a1.66 1.66 0 0 1-1.063.359l-.004-.001zm-2.396-1.175a2.5 2.5 0 0 1 1.529.498 1.31 1.31 0 0 0 .87.3 1.32 1.32 0 0 0 .87-.298 2.69 2.69 0 0 1 .919-.431V35.784h-8.371v16.051a2.66 2.66 0 0 1 .915.43 1.32 1.32 0 0 0 .869.298 1.32 1.32 0 0 0 .869-.298 2.5 2.5 0 0 1 1.53-.5l-.001-.001zm-15.462 1.175a1.66 1.66 0 0 1-1.066-.356c-.387-.294-.855-.448-1.334-.439a2.13 2.13 0 0 0-1.333.439 1.66 1.66 0 0 1-1.065.356c-.383.009-.757-.116-1.063-.356a2.25 2.25 0 0 0-.933-.407l-.152-.025V35.406h9.098V52.15l-.152.025a2.27 2.27 0 0 0-.934.407 1.66 1.66 0 0 1-1.065.358l-.001-.001zm-2.4-1.175a2.5 2.5 0 0 1 1.53.499 1.32 1.32 0 0 0 .871.299 1.32 1.32 0 0 0 .87-.299 2.71 2.71 0 0 1 .918-.43V35.784h-8.372v16.05a2.67 2.67 0 0 1 .916.43 1.32 1.32 0 0 0 .868.298 1.32 1.32 0 0 0 .87-.298 2.5 2.5 0 0 1 1.525-.499l.003-.001zm-15.461 1.175a1.65 1.65 0 0 1-1.066-.356c-.387-.294-.855-.448-1.334-.439a2.13 2.13 0 0 0-1.332.439 1.66 1.66 0 0 1-1.065.356 1.66 1.66 0 0 1-1.064-.356 2.25 2.25 0 0 0-.931-.407l-.152-.025V35.406h9.098V52.15l-.152.025a2.27 2.27 0 0 0-.933.407 1.66 1.66 0 0 1-1.068.358v-.001zm-2.396-1.175a2.5 2.5 0 0 1 1.529.498 1.32 1.32 0 0 0 .871.3 1.32 1.32 0 0 0 .869-.298c.278-.201.59-.347.919-.43v-16.05h-8.371v16.051c.329.083.639.228.917.43a1.32 1.32 0 0 0 .869.298 1.32 1.32 0 0 0 .869-.298 2.5 2.5 0 0 1 1.523-.5l.004-.001zm41.176-16.875H70.762c-.382 0-.748-.158-1.019-.439a1.53 1.53 0 0 1 0-2.118 1.41 1.41 0 0 1 1.019-.439h10.901c.382.001.748.159 1.018.44a1.53 1.53 0 0 1 .422 1.059 1.55 1.55 0 0 1-.11.574 1.51 1.51 0 0 1-.313.486 1.44 1.44 0 0 1-.468.325c-.175.075-.363.114-.552.114h.003zM70.762 32.27a1.06 1.06 0 0 0-.762.328c-.202.21-.316.495-.316.792s.114.582.316.792a1.06 1.06 0 0 0 .762.328h10.901a1.06 1.06 0 0 0 .761-.328c.202-.21.316-.495.316-.792s-.114-.582-.316-.792-.476-.328-.761-.328H70.762zM63.8 34.889H52.9c-.382 0-.748-.158-1.019-.439a1.53 1.53 0 0 1 0-2.118c.27-.281.637-.439 1.019-.439h10.9a1.42 1.42 0 0 1 1.019.439 1.53 1.53 0 0 1 .423 1.059 1.55 1.55 0 0 1-.11.574c-.073.182-.179.347-.313.487a1.44 1.44 0 0 1-.469.325c-.175.075-.363.114-.552.114h.003zm-10.9-2.618a1.06 1.06 0 0 0-.762.328c-.202.21-.316.495-.316.792s.114.582.316.792a1.06 1.06 0 0 0 .762.328h10.9a1.06 1.06 0 0 0 .762-.328c.202-.21.316-.495.316-.792s-.114-.582-.316-.792a1.06 1.06 0 0 0-.762-.328H52.9zm-6.962 2.618h-10.9c-.382 0-.748-.158-1.019-.439a1.53 1.53 0 0 1 0-2.118 1.41 1.41 0 0 1 1.019-.439h10.901a1.42 1.42 0 0 1 1.019.439 1.53 1.53 0 0 1 .422 1.059 1.55 1.55 0 0 1-.111.575c-.073.182-.18.348-.314.487a1.44 1.44 0 0 1-.47.325 1.41 1.41 0 0 1-.553.113h.007zm-10.9-2.619a1.06 1.06 0 0 0-.761.329c-.202.21-.316.495-.316.791s.114.581.316.791a1.06 1.06 0 0 0 .761.329h10.901a1.06 1.06 0 0 0 .761-.329c.202-.21.315-.495.316-.791a1.14 1.14 0 0 0-.316-.791 1.06 1.06 0 0 0-.761-.329H35.038zm46.788 48.451h-5.188v-1.677c.742-.131 1.415-.534 1.896-1.136a3.36 3.36 0 0 0 .727-2.146c0-1.723-2.47-4.291-2.752-4.578a.42.42 0 0 0-.3-.127.42.42 0 0 0-.299.127c-.281.287-2.751 2.854-2.751 4.578-.012.782.246 1.543.727 2.145s1.153 1.005 1.895 1.136v1.677h-17v-1.677c.742-.131 1.415-.534 1.896-1.136s.739-1.363.727-2.146c0-1.723-2.47-4.291-2.751-4.578a.42.42 0 0 0-.3-.127.42.42 0 0 0-.299.127c-.282.287-2.752 2.854-2.752 4.578a3.36 3.36 0 0 0 .727 2.146c.481.602 1.154 1.005 1.896 1.136v1.677H40.922v-1.677c.742-.131 1.415-.534 1.896-1.136a3.36 3.36 0 0 0 .727-2.145c0-1.723-2.471-4.291-2.752-4.578a.42.42 0 0 0-.299-.127.42.42 0 0 0-.3.127c-.282.287-2.751 2.854-2.751 4.578-.012.782.246 1.543.727 2.145s1.153 1.005 1.895 1.136v1.677h-5.187a.42.42 0 0 0-.303.13c-.08.083-.125.197-.125.314a.46.46 0 0 0 .125.315.42.42 0 0 0 .303.13h46.958a.42.42 0 0 0 .302-.13c.08-.083.125-.197.125-.315a.46.46 0 0 0-.129-.319c-.04-.042-.089-.074-.142-.096a.41.41 0 0 0-.167-.031zm-7.81-4.959c0-1.004 1.385-2.732 2.193-3.62.951 1.04 2.192 2.703 2.192 3.62a2.41 2.41 0 0 1-.614 1.683 2.23 2.23 0 0 1-1.578.742 2.23 2.23 0 0 1-1.578-.741 2.41 2.41 0 0 1-.615-1.683h.001zm-17.862 0c0-1.004 1.385-2.732 2.193-3.62.951 1.04 2.192 2.703 2.192 3.62a2.41 2.41 0 0 1-.615 1.683 2.23 2.23 0 0 1-1.578.742 2.23 2.23 0 0 1-1.578-.742 2.41 2.41 0 0 1-.615-1.683zm-17.861 0c0-1.004 1.385-2.732 2.193-3.62.951 1.04 2.192 2.703 2.192 3.62a2.41 2.41 0 0 1-.615 1.683 2.23 2.23 0 0 1-1.578.742 2.23 2.23 0 0 1-1.578-.742 2.41 2.41 0 0 1-.615-1.683z"/><path d="M81.826 81.805h-46.96a.6.6 0 0 1-.432-.187.65.65 0 0 1 0-.899.6.6 0 0 1 .432-.187h5.005v-1.334a3.34 3.34 0 0 1-1.897-1.237 3.58 3.58 0 0 1-.726-2.203c0-1.761 2.337-4.235 2.806-4.715.115-.115.268-.18.428-.18a.6.6 0 0 1 .428.18c.469.479 2.806 2.952 2.806 4.715.008.799-.248 1.576-.726 2.203a3.34 3.34 0 0 1-1.897 1.237v1.334h16.638v-1.334a3.34 3.34 0 0 1-1.897-1.237c-.477-.626-.733-1.404-.726-2.202 0-1.761 2.338-4.235 2.806-4.715.115-.115.268-.18.428-.18a.6.6 0 0 1 .428.18c.468.479 2.806 2.952 2.806 4.715a3.57 3.57 0 0 1-.726 2.202 3.34 3.34 0 0 1-1.897 1.237v1.334H75.59v-1.334a3.34 3.34 0 0 1-1.897-1.237c-.477-.626-.733-1.403-.725-2.202 0-1.761 2.337-4.235 2.806-4.715.115-.115.268-.179.428-.179s.313.064.428.179c.468.479 2.805 2.952 2.805 4.715.008.799-.248 1.576-.725 2.202a3.34 3.34 0 0 1-1.897 1.237v1.334h5.005a.6.6 0 0 1 .432.187.65.65 0 0 1 .002.897.6.6 0 0 1-.428.189zm-46.958-.895c-.066 0-.129.027-.176.076s-.073.114-.073.182.026.135.073.183.11.076.176.076h46.958c.066 0 .13-.027.176-.076s.073-.114.073-.183c0-.034-.007-.068-.019-.099s-.031-.06-.054-.084a.24.24 0 0 0-.176-.075h-5.369v-2.03l.155-.024a2.95 2.95 0 0 0 1.782-1.075c.452-.568.695-1.283.685-2.02 0-1.645-2.421-4.162-2.697-4.444-.047-.047-.109-.073-.174-.073s-.127.026-.174.073c-.275.281-2.696 2.798-2.696 4.444a3.17 3.17 0 0 0 .686 2.02c.453.567 1.084.948 1.782 1.074l.155.024v2.029H58.596V78.88l.155-.024c.698-.126 1.33-.507 1.782-1.074a3.18 3.18 0 0 0 .686-2.02c0-1.645-2.422-4.162-2.697-4.444-.047-.047-.109-.073-.174-.073s-.127.026-.174.073c-.276.281-2.698 2.799-2.698 4.444-.01.737.233 1.453.685 2.02s1.084.948 1.783 1.074l.155.024v2.029H40.735V78.88l.155-.024c.698-.126 1.33-.507 1.782-1.074s.695-1.283.685-2.02c0-1.645-2.421-4.162-2.697-4.444-.047-.047-.109-.073-.174-.073s-.127.026-.174.073c-.276.281-2.697 2.799-2.697 4.444-.01.737.233 1.453.685 2.02a2.96 2.96 0 0 0 1.782 1.075l.155.024v2.029h-5.368zm41.341-2.535a2.41 2.41 0 0 1-1.706-.796c-.445-.49-.685-1.142-.668-1.816 0-1.196 1.717-3.172 2.243-3.75l.132-.145.132.144c1.034 1.131 2.241 2.792 2.241 3.751.017.673-.223 1.326-.668 1.816a2.41 2.41 0 0 1-1.706.797v-.001zm0-5.96c-.957 1.076-2.012 2.542-2.012 3.344a2.22 2.22 0 0 0 .562 1.549c.377.419.898.665 1.449.686.551-.021 1.072-.267 1.449-.686a2.22 2.22 0 0 0 .561-1.549c.001-.751-1.017-2.225-2.008-3.34l-.001-.004zm-17.862 5.96a2.41 2.41 0 0 1-1.706-.796 2.61 2.61 0 0 1-.669-1.816c0-1.196 1.717-3.172 2.244-3.75l.132-.145.132.144c1.034 1.131 2.242 2.792 2.242 3.751.017.673-.223 1.326-.668 1.816a2.41 2.41 0 0 1-1.706.797l-.001-.001zm0-5.96c-.957 1.076-2.012 2.541-2.012 3.344a2.22 2.22 0 0 0 .562 1.549c.377.419.898.665 1.449.686a2.05 2.05 0 0 0 1.449-.686 2.22 2.22 0 0 0 .562-1.549c.001-.751-1.017-2.225-2.009-3.34l-.001-.004zm-17.862 5.96a2.41 2.41 0 0 1-1.706-.796c-.445-.49-.685-1.142-.668-1.816 0-1.196 1.717-3.172 2.243-3.75l.132-.145.132.144c1.034 1.131 2.241 2.792 2.241 3.751a2.61 2.61 0 0 1-.667 1.816 2.41 2.41 0 0 1-1.706.797l-.001-.001zm0-5.96c-.957 1.076-2.012 2.542-2.012 3.344a2.22 2.22 0 0 0 .562 1.549c.377.419.898.665 1.449.686a2.05 2.05 0 0 0 1.449-.686 2.22 2.22 0 0 0 .561-1.549c.002-.751-1.016-2.225-2.008-3.34l-.002-.004zm.431 4.286c0-.118-.045-.231-.125-.315a.42.42 0 0 0-.303-.13c-.171 0-.326-.217-.333-.472-.002-.116-.049-.227-.128-.308a.42.42 0 0 0-.299-.127h-.012c-.057.001-.112.014-.164.038a.43.43 0 0 0-.137.101c-.039.043-.069.093-.089.148a.46.46 0 0 0-.027.173 1.34 1.34 0 0 0 .334.924 1.24 1.24 0 0 0 .86.418c.056 0 .112-.012.164-.035a.43.43 0 0 0 .139-.098.45.45 0 0 0 .092-.146.46.46 0 0 0 .031-.171z"/><path d="M40.485 77.337a1.41 1.41 0 0 1-.987-.472 1.53 1.53 0 0 1-.388-1.055.66.66 0 0 1 .041-.246.64.64 0 0 1 .128-.21.61.61 0 0 1 .196-.143c.074-.034.153-.052.234-.054a.58.58 0 0 1 .236.043.61.61 0 0 1 .202.133c.059.058.105.127.138.204a.66.66 0 0 1 .052.243c.005.178.102.29.151.29a.6.6 0 0 1 .433.187.65.65 0 0 1-.003.898.6.6 0 0 1-.433.183zm-.763-1.802c-.033 0-.066.007-.097.021a.25.25 0 0 0-.082.058.26.26 0 0 0-.053.086.27.27 0 0 0-.017.101 1.15 1.15 0 0 0 .28.792c.189.216.452.347.732.365.066 0 .129-.027.176-.076s.073-.114.073-.183-.027-.134-.073-.182-.11-.076-.176-.076c-.149-.022-.285-.102-.38-.224a.64.64 0 0 1-.133-.433c-.002-.068-.029-.132-.075-.179s-.109-.073-.174-.072v.001zm19.056 1.166c0-.118-.045-.231-.125-.315a.42.42 0 0 0-.303-.13c-.171 0-.326-.216-.333-.473a.46.46 0 0 0-.135-.311.43.43 0 0 0-.306-.124c-.057.001-.112.014-.164.038a.43.43 0 0 0-.138.101.45.45 0 0 0-.089.148.46.46 0 0 0-.028.173 1.34 1.34 0 0 0 .333.924 1.24 1.24 0 0 0 .86.418c.057 0 .113-.012.165-.034a.42.42 0 0 0 .139-.098c.04-.042.071-.091.093-.146a.46.46 0 0 0 .031-.172z"/><path d="M58.346 77.337a1.41 1.41 0 0 1-.986-.472 1.53 1.53 0 0 1-.388-1.055.65.65 0 0 1 .168-.455.6.6 0 0 1 .427-.199.61.61 0 0 1 .436.179.66.66 0 0 1 .193.444c0 .178.102.29.151.29a.6.6 0 0 1 .432.186.65.65 0 0 1-.002.896.6.6 0 0 1-.431.185zm-.778-1.802c-.065.004-.126.034-.169.084s-.067.116-.064.183c-.01.292.091.576.28.792a1.06 1.06 0 0 0 .732.364c.066 0 .13-.027.176-.076s.073-.114.073-.183-.026-.134-.073-.182-.11-.076-.176-.076c-.149-.022-.285-.102-.381-.224a.64.64 0 0 1-.133-.433.27.27 0 0 0-.084-.181.25.25 0 0 0-.181-.069v.001zm19.073 1.166c0-.118-.045-.231-.125-.315a.42.42 0 0 0-.303-.13c-.171 0-.326-.217-.333-.472-.003-.116-.049-.227-.129-.308a.42.42 0 0 0-.299-.127h-.013c-.057.001-.112.014-.164.038a.43.43 0 0 0-.138.101c-.039.043-.069.093-.089.148a.46.46 0 0 0-.028.173 1.34 1.34 0 0 0 .334.924 1.24 1.24 0 0 0 .86.418c.056 0 .112-.012.164-.035s.099-.056.139-.098.071-.091.092-.146a.46.46 0 0 0 .031-.171z"/><path d="M76.208 77.337c-.376-.017-.73-.186-.987-.472a1.53 1.53 0 0 1-.388-1.055.65.65 0 0 1 .167-.455c.112-.122.265-.194.427-.199a.59.59 0 0 1 .236.043.61.61 0 0 1 .202.133c.058.058.105.127.138.204a.66.66 0 0 1 .052.243c.004.178.103.29.151.29a.6.6 0 0 1 .433.187.65.65 0 0 1-.001.896.6.6 0 0 1-.43.185zm-.763-1.802c-.033 0-.066.007-.097.021s-.058.033-.081.058a.26.26 0 0 0-.053.087.27.27 0 0 0-.017.101c-.009.292.091.576.28.792s.451.347.732.365c.066 0 .129-.027.176-.076s.073-.114.073-.183c0-.034-.006-.068-.019-.099s-.031-.06-.054-.084-.051-.043-.081-.056a.24.24 0 0 0-.095-.019c-.149-.022-.285-.102-.38-.224a.64.64 0 0 1-.133-.433c-.002-.068-.029-.132-.075-.179s-.109-.073-.174-.072v.001z"/></g><defs ><path id="B" d="M36.22 53.018l-.102 12.716c.216.967.78 1.811 1.575 2.36a3.63 3.63 0 0 0 2.704.594s4.359 1.132 4.359-4.531V52.829c-.457.216-.953.328-1.455.328s-.998-.112-1.455-.328a12.54 12.54 0 0 0-3.995 0l-1.631.189z"/></defs></svg>