<svg xmlns="http://www.w3.org/2000/svg" xmlns:xlink="http://www.w3.org/1999/xlink" width="113" height="113" fill="none" xmlns:v="https://vecta.io/nano"><circle cx="56.5" cy="56.5" r="55.5" stroke="#217bc9" stroke-width="2"/><g clip-path="url(#A)"><use xlink:href="#B" fill="#f4e0d4"/><use xlink:href="#C" fill="#e6f7ff"/><use xlink:href="#D" fill="#ffe8b9"/><g fill="#ffd0d0"><path d="M77.974 47.489c2.085-8.293 1.39-14.866-2.626-17.108-1.544-.896-3.476-1.045-5.715-.448S62.606 33.22 58.9 36.731c-3.707-3.511-7.493-5.976-10.733-6.798s-4.17-.448-5.715.448c-4.016 2.241-4.711 8.815-2.626 17.108C31.406 49.805 26 53.764 26 58.247s5.406 8.441 13.824 10.757c-2.085 8.293-1.39 14.866 2.626 17.108a6.5 6.5 0 0 0 3.24.822c.837-.02 1.668-.146 2.471-.373 3.24-.822 7.028-3.287 10.733-6.798 3.706 3.512 7.493 5.976 10.733 6.798.804.227 1.634.353 2.471.373a6.5 6.5 0 0 0 3.243-.822c4.016-2.241 4.71-8.815 2.626-17.108 8.418-2.316 13.823-6.275 13.823-10.757s-5.399-8.442-13.816-10.758zM70.019 31.35a11.69 11.69 0 0 1 2.085-.298c.863-.006 1.713.199 2.471.597 3.32 1.868 3.784 7.844 1.854 15.389a72.51 72.51 0 0 0-9.962-1.644 66.14 66.14 0 0 0-6.487-7.62c3.551-3.36 7.027-5.601 10.039-6.425zm-.772 32.721c-1.158 1.942-2.394 3.809-3.63 5.528a65.29 65.29 0 0 1-6.718.299 65.29 65.29 0 0 1-6.718-.296 77.74 77.74 0 0 1-3.63-5.528c-1.158-1.943-2.16-3.885-3.09-5.827.927-1.942 2.008-3.884 3.09-5.826 1.101-1.908 2.313-3.753 3.63-5.529 2.233-.215 4.475-.314 6.718-.298a65.4 65.4 0 0 1 6.718.298c1.235 1.718 2.471 3.586 3.63 5.528s2.16 3.885 3.089 5.827c-.927 1.943-2.008 3.886-3.089 5.828v-.003zm3.939-4.034a65.63 65.63 0 0 1 2.857 7.922c-2.776.646-5.586 1.145-8.417 1.494 1.004-1.494 2.007-3.063 2.934-4.632s1.776-3.213 2.626-4.781l.001-.003zm-14.287 17.63a81.87 81.87 0 0 1-5.561-6.42l5.56.15 5.561-.15a81.89 81.89 0 0 1-5.561 6.423l.001-.003zm-8.727-8.214a80.69 80.69 0 0 1-8.418-1.494 65.62 65.62 0 0 1 2.857-7.919c.849 1.567 1.699 3.212 2.626 4.781a95.25 95.25 0 0 0 2.935 4.632zm-5.56-12.999a65.67 65.67 0 0 1-2.857-7.919 80.68 80.68 0 0 1 8.417-1.494c-1.004 1.494-2.008 3.063-2.935 4.632s-1.776 3.213-2.625 4.781zm14.287-17.63c1.966 2.048 3.822 4.192 5.56 6.425l-5.56-.149-5.56.149a81.97 81.97 0 0 1 5.56-6.425zm11.661 12.849a97.47 97.47 0 0 0-2.934-4.632c2.832.349 5.642.848 8.417 1.494a65.67 65.67 0 0 1-2.857 7.919c-.85-1.568-1.699-3.213-2.626-4.781zM43.221 31.652c1.235-.673 2.7-.747 4.556-.299 3.012.822 6.487 3.063 10.039 6.425-2.357 2.379-4.526 4.926-6.487 7.62a72.5 72.5 0 0 0-9.961 1.644c-1.931-7.545-1.468-13.521 1.854-15.389h-.001zM27.542 58.247c0-3.735 5.02-7.172 12.665-9.263a60.48 60.48 0 0 0 3.553 9.263 60.48 60.48 0 0 0-3.553 9.264c-7.644-2.092-12.665-5.529-12.665-9.264zM47.778 85.14c-1.854.449-3.321.374-4.556-.298-3.321-1.868-3.784-7.844-1.854-15.389a72.44 72.44 0 0 0 9.963 1.644 66.11 66.11 0 0 0 6.487 7.62c-3.553 3.361-7.028 5.602-10.04 6.424zm26.798-.298c-1.236.672-2.7.747-4.556.298-3.012-.821-6.487-3.063-10.039-6.425 2.357-2.379 4.525-4.926 6.487-7.62a72.43 72.43 0 0 0 9.962-1.644c1.931 7.546 1.469 13.522-1.854 15.39h.001zm3.012-17.331c-.927-3.175-2.115-6.273-3.553-9.264a60.51 60.51 0 0 0 3.551-9.266c7.645 2.095 12.665 5.531 12.665 9.266s-5.019 7.172-12.665 9.263l.001.001z"/><use xlink:href="#E"/><path d="M58.205 27.558l.106 6.132a.57.57 0 0 0 .182.396.61.61 0 0 0 .831 0 .57.57 0 0 0 .182-.396l-.106-6.132a.57.57 0 0 0-.182-.396.61.61 0 0 0-.831 0 .57.57 0 0 0-.182.396zm23.522 44.228l5.293 3.375c.643.41 1.242-.588.602-.998l-5.293-3.375c-.644-.41-1.243.588-.603.998h.001z"/><use xlink:href="#F"/><use xlink:href="#G"/><use xlink:href="#H"/><use xlink:href="#B"/></g><use xlink:href="#C" fill="#e6f5fc"/><use xlink:href="#D" fill="#ffe8b9"/><g fill="#207bc9"><path d="M77.974 47.489c2.085-8.293 1.39-14.866-2.626-17.108-1.544-.896-3.476-1.045-5.715-.448S62.606 33.22 58.9 36.731c-3.707-3.511-7.493-5.976-10.733-6.798s-4.17-.448-5.715.448c-4.016 2.241-4.711 8.815-2.626 17.108C31.406 49.805 26 53.764 26 58.247s5.406 8.441 13.824 10.757c-2.085 8.293-1.39 14.866 2.626 17.108a6.5 6.5 0 0 0 3.24.822 9.97 9.97 0 0 0 2.471-.374c3.24-.822 7.028-3.287 10.733-6.798 3.706 3.512 7.493 5.976 10.733 6.798a9.97 9.97 0 0 0 2.471.374 6.5 6.5 0 0 0 3.243-.822c4.016-2.241 4.71-8.815 2.626-17.108 8.418-2.316 13.823-6.275 13.823-10.757s-5.399-8.442-13.816-10.758zM70.019 31.35a11.69 11.69 0 0 1 2.085-.298c.863-.006 1.713.199 2.471.597 3.32 1.868 3.784 7.844 1.854 15.389a72.51 72.51 0 0 0-9.962-1.644 66.14 66.14 0 0 0-6.487-7.62c3.551-3.36 7.027-5.601 10.039-6.425zm-.772 32.721c-1.158 1.942-2.394 3.809-3.63 5.528a65.29 65.29 0 0 1-6.718.299 65.29 65.29 0 0 1-6.718-.296 77.74 77.74 0 0 1-3.63-5.528c-1.158-1.943-2.16-3.885-3.09-5.827.927-1.942 2.008-3.884 3.09-5.826 1.101-1.908 2.313-3.753 3.63-5.529 2.233-.215 4.475-.314 6.718-.298a65.4 65.4 0 0 1 6.718.298c1.235 1.718 2.471 3.586 3.63 5.528s2.16 3.885 3.089 5.827c-.927 1.943-2.008 3.886-3.089 5.828v-.003zm3.939-4.034a65.63 65.63 0 0 1 2.857 7.922c-2.776.646-5.586 1.145-8.417 1.494 1.004-1.494 2.007-3.063 2.934-4.632s1.776-3.213 2.626-4.781l.001-.003zm-14.287 17.63a81.87 81.87 0 0 1-5.561-6.42l5.56.15 5.561-.15a81.89 81.89 0 0 1-5.561 6.423l.001-.003zm-8.727-8.214a80.69 80.69 0 0 1-8.418-1.494 65.62 65.62 0 0 1 2.857-7.919c.849 1.567 1.699 3.212 2.626 4.781a95.25 95.25 0 0 0 2.935 4.632zm-5.56-12.999c-1.122-2.579-2.076-5.224-2.857-7.919a80.68 80.68 0 0 1 8.417-1.494c-1.004 1.494-2.008 3.063-2.935 4.632s-1.776 3.213-2.625 4.781zm14.287-17.63c1.966 2.048 3.822 4.192 5.56 6.425l-5.56-.149-5.56.149a81.97 81.97 0 0 1 5.56-6.425zm11.661 12.849a97.42 97.42 0 0 0-2.934-4.632 80.68 80.68 0 0 1 8.417 1.494c-.781 2.694-1.735 5.339-2.857 7.919-.85-1.568-1.699-3.213-2.626-4.781zM43.221 31.652c1.235-.673 2.7-.747 4.556-.299 3.012.822 6.487 3.063 10.039 6.425-2.357 2.379-4.526 4.926-6.487 7.62a72.5 72.5 0 0 0-9.961 1.644c-1.931-7.545-1.468-13.521 1.854-15.389h-.001zM27.542 58.247c0-3.735 5.02-7.172 12.665-9.263a60.48 60.48 0 0 0 3.553 9.263c-1.438 2.991-2.626 6.089-3.553 9.264-7.644-2.092-12.665-5.529-12.665-9.264zM47.778 85.14c-1.854.449-3.321.374-4.556-.298-3.321-1.868-3.784-7.844-1.854-15.389a72.44 72.44 0 0 0 9.963 1.644 66.11 66.11 0 0 0 6.487 7.62c-3.553 3.361-7.028 5.602-10.04 6.424zm26.798-.298c-1.236.672-2.7.747-4.556.298-3.012-.821-6.487-3.063-10.039-6.425 2.357-2.379 4.525-4.926 6.487-7.62a72.43 72.43 0 0 0 9.962-1.644c1.931 7.546 1.469 13.522-1.854 15.39h.001zm3.012-17.331a60.51 60.51 0 0 0-3.553-9.264 60.51 60.51 0 0 0 3.551-9.266c7.645 2.095 12.665 5.531 12.665 9.266s-5.019 7.172-12.665 9.263l.001.001z"/><use xlink:href="#E"/><path d="M58.205 27.558l.106 6.131a.57.57 0 0 0 .182.396.61.61 0 0 0 .831 0 .57.57 0 0 0 .182-.396l-.106-6.131a.57.57 0 0 0-.182-.396.61.61 0 0 0-.831 0 .57.57 0 0 0-.182.396zm23.522 44.228l5.293 3.375c.643.41 1.242-.588.602-.998l-5.293-3.375c-.644-.41-1.243.588-.603.998h.001z"/><use xlink:href="#F"/><use xlink:href="#G"/><use xlink:href="#H"/></g></g><defs><clipPath id="A"><path fill="#fff" transform="translate(26 27)" d="M0 0h66v62H0z"/></clipPath><path id="B" d="M75.309 85.42s-10.455 4.285-27.62-20.83c0 0-16.752-26.61-4.942-34.035 0 0 13.174-2.824 27.28 20.647 0 .002 16.486 24.75 5.282 34.218z"/><path id="C" d="M26.53 58.509s1.468-10.885 32.58-12.637c0 0 32.24-.657 32.89 12.935 0 0-4.147 12.425-32.245 12.444 0 0-30.442 1.368-33.225-12.743z"/><path id="D" d="M42.682 85.735a16.85 16.85 0 0 1-3.184-6.545c-.537-2.323-.675-5.385 1.99-13.091a90.56 90.56 0 0 1 6.367-14.246c2.556-4.645 5.772-8.922 9.554-12.706 4.455-4.44 8.598-8.46 14.329-8.47a13 13 0 0 1 4.378.77c1.24 2.282 2.048 4.759 2.385 7.316.651 5.042-.792 8.986-2.786 14.246a62.85 62.85 0 0 1-5.572 11.166c-2.587 4.529-5.655 8.786-9.152 12.702-6.059 6.773-9.407 7.999-11.144 8.473a17.55 17.55 0 0 1-7.164.385z"/><path id="E" d="M30.44 42.52l5.293 3.375c.643.41 1.242-.588.602-.998l-5.293-3.375c-.644-.41-1.243.588-.603.998h.001z"/><path id="F" d="M81.811 45.962l6.045-1.845c.73-.223.418-1.339-.317-1.114l-6.046 1.845c-.73.223-.418 1.339.317 1.114z"/><path id="G" d="M58.356 82.312l.106 6.131a.57.57 0 0 0 .182.396.61.61 0 0 0 .831 0 .57.57 0 0 0 .182-.396l-.106-6.131a.57.57 0 0 0-.182-.396.61.61 0 0 0-.831 0 .57.57 0 0 0-.182.396z"/><path id="H" d="M30.343 72.94l6.045-1.845c.73-.223.419-1.339-.317-1.114l-6.045 1.845c-.73.223-.418 1.339.317 1.114z"/></defs></svg>