<svg xmlns="http://www.w3.org/2000/svg" width="113" height="113" fill="none" xmlns:v="https://vecta.io/nano"><circle cx="56.5" cy="56.5" r="55.5" stroke="#eeada9" stroke-width="2"/><g clip-path="url(#A)"><path d="M36.003 72.81s-3.069-30.739 4.433-35.467c0 0 3.489-7.538 18.456-7.654 1.496.23 13.494 2.217 17.453 9.917a36.92 36.92 0 0 1 2.971 10.574 39.4 39.4 0 0 1 .341 4.053v18.581c-1.882 4.258-4.987 7.874-8.929 10.396s-8.547 3.839-13.239 3.787c-4.577-.078-9.036-1.456-12.845-3.971s-6.809-6.061-8.642-10.216z" fill="#d7effa"/><path d="M42.824 81.593V49.842s2.388-11.823 14.325-12.161c0 0 17.394.675 15.348 16.89v27.361c-1.931 1.594-4.123 2.851-6.48 3.716-2.731.979-5.624 1.437-8.526 1.352-2.791.079-5.571-.38-8.185-1.352-2.402-.93-4.601-2.306-6.48-4.056z" fill="#fff7f5"/><path d="M49.986 85.984V52.543c.257-1.967 1.231-3.774 2.738-5.08s3.444-2.023 5.447-2.014c0 0 7.162 1.689 6.821 7.093v33.442c-2.332.643-4.739.984-7.16 1.014a28.25 28.25 0 0 1-7.846-1.013z" fill="#fee299"/><g fill="#efaea8"><path d="M43.946 30.228l-2.084-4.969c-.066-.117-.175-.204-.305-.242a.52.52 0 0 0-.629.344c-.038.128-.025.265.036.384l2.084 4.969c.066.117.175.204.305.242a.52.52 0 0 0 .389-.04c.116-.067.202-.176.24-.304s.025-.265-.036-.384zm-6.427 5.011l-4.735-2.637c-.573-.319-1.113.542-.538.862l4.735 2.638c.573.319 1.113-.542.538-.863zm2.977-3.252l-3.626-4.006c-.441-.487-1.185.211-.744.696l3.626 4.006c.441.487 1.185-.211.745-.696h-.001zm17.164-2.792c-4.419-.003-8.755 1.185-12.544 3.437a.72.72 0 0 0-.302.426.71.71 0 0 0 .069.516c.104.146.259.248.435.287a.73.73 0 0 0 .517-.078c3.573-2.121 7.66-3.244 11.826-3.247 11.658 0 20.985 8.736 20.985 19.444v4.023a.67.67 0 0 0 .198.475.68.68 0 0 0 .738.145.69.69 0 0 0 .22-.145.67.67 0 0 0 .147-.218c.034-.081.051-.169.051-.257V49.98c0-11.479-9.996-20.785-22.34-20.785zm-17.622 8.024c-.098.004-.194.028-.281.072s-.165.105-.226.18c-2.834 3.556-4.324 7.98-4.213 12.508v22.796a.67.67 0 0 0 .2.473c.127.126.298.197.478.198a.7.7 0 0 0 .474-.202c.126-.125.199-.293.203-.469V49.979c-.114-4.217 1.271-8.34 3.913-11.65a.7.7 0 0 0 .055-.714.71.71 0 0 0-.247-.279.72.72 0 0 0-.355-.117zm17.622.021c-8.344 0-15.57 6.271-15.57 14.083v4.023c.005.177.077.344.203.469a.7.7 0 0 0 .474.202.7.7 0 0 0 .474-.201c.126-.125.199-.293.203-.47v-4.023c0-6.983 6.558-12.739 14.219-12.739s14.219 5.756 14.219 12.739v28.16a.68.68 0 0 0 .203.469.7.7 0 0 0 .474.201.7.7 0 0 0 .474-.202c.126-.125.199-.293.203-.469v-28.16c-.006-7.81-7.235-14.082-15.576-14.082zm0 8.046c-4.345 0-8.124 3.264-8.124 7.375v32.183a.69.69 0 0 0 .203.469.7.7 0 0 0 .474.202.7.7 0 0 0 .474-.201c.126-.125.199-.293.203-.469V52.661c0-3.285 3.112-6.035 6.77-6.035s6.77 2.749 6.77 6.035v8.716c.004.177.077.345.203.47a.7.7 0 0 0 .474.201.7.7 0 0 0 .474-.202c.126-.125.199-.293.203-.469v-8.716c-.001-4.11-3.781-7.375-8.124-7.375zm-.085 7.354c-.166.026-.317.11-.426.237a.69.69 0 0 0-.167.454v18.774c.005.177.077.345.203.469a.7.7 0 0 0 .474.201.7.7 0 0 0 .474-.202c.126-.125.199-.293.203-.469V53.333a.69.69 0 0 0-.061-.279.7.7 0 0 0-.168-.232.71.71 0 0 0-.532-.182zm21.747 7.397a.68.68 0 0 0-.259.05.69.69 0 0 0-.22.145.66.66 0 0 0-.147.218.67.67 0 0 0-.051.257v12.069a.67.67 0 0 0 .198.475.68.68 0 0 0 .738.145.69.69 0 0 0 .22-.145.66.66 0 0 0 .147-.218.67.67 0 0 0 .051-.257V60.707a.67.67 0 0 0-.198-.475c-.063-.062-.138-.112-.22-.145a.68.68 0 0 0-.259-.05zm-36.64 1.32c-.166.026-.317.11-.426.237a.69.69 0 0 0-.167.455V79.48a.69.69 0 0 0 .203.469.7.7 0 0 0 .474.202.7.7 0 0 0 .474-.201c.126-.125.199-.293.203-.469V62.048a.7.7 0 0 0-.229-.509.71.71 0 0 0-.532-.182zm22.339 6.035c-.166.026-.317.11-.426.237a.69.69 0 0 0-.167.454v16.761a.68.68 0 0 0 .203.469.7.7 0 0 0 .474.201.7.7 0 0 0 .474-.202c.126-.125.199-.293.203-.469V68.082a.7.7 0 0 0-.229-.509.71.71 0 0 0-.532-.182zM57.575 78.79a.7.7 0 0 0-.426.237.69.69 0 0 0-.167.454v6.705a.66.66 0 0 0 .051.257.67.67 0 0 0 .147.218c.063.062.138.112.22.145a.68.68 0 0 0 .259.05.68.68 0 0 0 .259-.051.69.69 0 0 0 .22-.145.67.67 0 0 0 .147-.218c.034-.081.051-.169.051-.257V79.48a.7.7 0 0 0-.229-.509.71.71 0 0 0-.532-.182z"/></g></g><defs><clipPath id="A"><path fill="#fff" transform="translate(32 25)" d="M0 0h48v62H0z"/></clipPath></defs></svg>