<svg xmlns="http://www.w3.org/2000/svg" xmlns:xlink="http://www.w3.org/1999/xlink" width="113" height="113" fill="none" xmlns:v="https://vecta.io/nano"><circle cx="56.5" cy="56.5" r="55.5" stroke="#eeada9" stroke-width="2"/><path d="M84.636 58.202H27.712v9.9h56.924v-9.9z" fill="#fff7f5"/><path d="M27.712 64.92v3.889a8.38 8.38 0 0 0 4.351 1.06c2.106-.104 2.596-1.048 4.716-1.06 2.32-.014 2.464 1.114 4.716 1.06 2.342-.056 2.695-1.29 4.716-1.06 1.843.21 1.886 1.28 3.626 1.415 2.08.163 2.425-1.335 4.716-1.415 2.215-.077 2.594 1.299 4.716 1.06 1.826-.202 1.877-1.264 3.626-1.415 2.045-.176 2.326 1.243 4.716 1.415 2.329.167 2.847-1.127 5.076-.707 1.557.294 1.555.972 2.901 1.061 1.855.122 2.54-1.124 4.351-1.415 1.041-.167 2.596-.041 4.716 1.415v-3.889c-1.33-.735-2.832-1.101-4.351-1.061-2.358.102-2.98 1.256-5.076 1.061-2.215-.206-2.532-1.589-4.351-1.415-1.778.17-1.838 1.525-3.626 1.768-2.07.282-2.605-1.45-5.076-1.415-2.038.03-2.077 1.213-3.988 1.061-1.757-.139-2.318-1.186-4.351-1.061a7.82 7.82 0 0 0-1.813.354c-1.306.415-1.482.845-2.175 1.061-1.886.59-2.964-1.869-5.439-1.768-1.735.067-1.756 1.299-3.626 1.415-2.138.131-2.545-1.451-4.716-1.415-1.936.033-2.381 1.306-4.351 1.415-1.459.015-2.876-.486-4.002-1.414z" fill="#fee299"/><g fill="#efaea8"><path d="M43.084 32.265l-2.542-5.025c-.077-.117-.197-.199-.335-.229s-.28-.003-.399.072-.196.199-.226.335-.005.279.069.398l2.543 5.025c.077.118.197.2.334.23a.53.53 0 0 0 .399-.073c.118-.076.196-.199.225-.335a.54.54 0 0 0-.069-.398l-.001-.001zm-6.25 5.727l-5.1-2.387c-.618-.289-1.109.651-.489.943l5.1 2.387c.618.289 1.108-.651.489-.943zm2.822-3.624l-4.062-3.901c-.494-.472-1.207.311-.715.784l4.062 3.901c.494.471 1.206-.311.715-.784h.001zm-9.859 50.761a1.31 1.31 0 1 0-2.587-.42 1.31 1.31 0 1 0 2.587.42z"/><use xlink:href="#B"/><path d="M43.177 85.846a1.31 1.31 0 1 0-1.853-1.853 1.31 1.31 0 1 0 1.853 1.853z"/><use xlink:href="#B" x="13.747"/><path d="M57.292 85.129a1.31 1.31 0 1 0-2.587-.42 1.31 1.31 0 0 0 2.587.42z"/><use xlink:href="#B" x="27.494"/><path d="M71.028 85.186a1.31 1.31 0 1 0-2.566-.534 1.31 1.31 0 1 0 2.566.534z"/><use xlink:href="#B" x="41.241"/><path d="M84.785 85.134a1.31 1.31 0 1 0-2.585-.431 1.31 1.31 0 1 0 2.585.431zM46.098 57.141H27.712v1.282h18.386v-1.282zm38.54.221h-18.74v1.061h18.74v-1.061zm-.001 13.251a4.06 4.06 0 0 1-2.489-.795c-.542-.415-1.21-.634-1.892-.62a3.01 3.01 0 0 0-1.892.62c-.719.532-1.595.811-2.489.795a4.06 4.06 0 0 1-2.488-.795 3.01 3.01 0 0 0-1.891-.62 3.01 3.01 0 0 0-1.892.62 4.06 4.06 0 0 1-2.489.795 4.06 4.06 0 0 1-2.488-.795 3.01 3.01 0 0 0-1.89-.62 3.01 3.01 0 0 0-1.89.62 4.06 4.06 0 0 1-2.487.795 4.06 4.06 0 0 1-2.488-.795 3.01 3.01 0 0 0-1.891-.62 3.01 3.01 0 0 0-1.891.62 4.06 4.06 0 0 1-2.488.795 4.06 4.06 0 0 1-2.487-.795 3.01 3.01 0 0 0-1.891-.62 3.01 3.01 0 0 0-1.891.62 4.06 4.06 0 0 1-2.488.795 4.06 4.06 0 0 1-2.488-.795 3.01 3.01 0 0 0-1.89-.62 3.01 3.01 0 0 0-1.89.62 4.06 4.06 0 0 1-2.487.795 4.06 4.06 0 0 1-2.487-.795 3.01 3.01 0 0 0-1.89-.62v-1.061a4.06 4.06 0 0 1 2.487.795c.542.415 1.208.633 1.89.619.682.014 1.349-.204 1.89-.619a4.06 4.06 0 0 1 2.487-.795 4.06 4.06 0 0 1 2.487.795 3.01 3.01 0 0 0 1.891.619 3.01 3.01 0 0 0 1.891-.619 4.06 4.06 0 0 1 2.488-.795 4.06 4.06 0 0 1 2.488.795c.542.415 1.208.633 1.89.619a3.01 3.01 0 0 0 1.891-.619 4.06 4.06 0 0 1 2.488-.795 4.06 4.06 0 0 1 2.488.795 3.01 3.01 0 0 0 1.891.619c.682.014 1.349-.204 1.89-.619a4.06 4.06 0 0 1 2.487-.795 4.06 4.06 0 0 1 2.487.795 3.01 3.01 0 0 0 1.891.619 3.01 3.01 0 0 0 1.892-.619 4.06 4.06 0 0 1 2.488-.795 4.06 4.06 0 0 1 2.488.795 3.01 3.01 0 0 0 1.891.619 3.01 3.01 0 0 0 1.892-.619 4.07 4.07 0 0 1 2.493-.795c.895-.016 1.769.263 2.489.795a3.01 3.01 0 0 0 1.892.619l-.003 1.062zm0-3.766a4.06 4.06 0 0 1-2.489-.795 3.01 3.01 0 0 0-1.892-.62 3.01 3.01 0 0 0-1.892.62 4.07 4.07 0 0 1-2.493.795 4.06 4.06 0 0 1-2.488-.795 3.01 3.01 0 0 0-1.891-.62 3.01 3.01 0 0 0-1.892.62 4.06 4.06 0 0 1-2.489.795 4.06 4.06 0 0 1-2.488-.795c-.541-.415-1.208-.634-1.89-.62-.682-.014-1.349.205-1.89.62a4.06 4.06 0 0 1-2.487.795 4.06 4.06 0 0 1-2.488-.795 3.01 3.01 0 0 0-1.891-.62 3.01 3.01 0 0 0-1.891.62 4.06 4.06 0 0 1-2.488.795 4.06 4.06 0 0 1-2.487-.795 3.01 3.01 0 0 0-1.891-.62 3.01 3.01 0 0 0-1.891.62 4.06 4.06 0 0 1-2.488.795 4.06 4.06 0 0 1-2.487-.795 3.01 3.01 0 0 0-1.891-.62c-.682-.014-1.349.205-1.89.62a4.06 4.06 0 0 1-2.487.795 4.06 4.06 0 0 1-2.487-.795 3.01 3.01 0 0 0-1.89-.62v-1.061a4.06 4.06 0 0 1 2.487.795 3.01 3.01 0 0 0 1.89.619c.682.014 1.349-.204 1.89-.619a4.06 4.06 0 0 1 2.487-.795 4.06 4.06 0 0 1 2.488.795 3.01 3.01 0 0 0 1.89.619 3.01 3.01 0 0 0 1.891-.619 4.06 4.06 0 0 1 2.488-.795 4.06 4.06 0 0 1 2.488.795 3.01 3.01 0 0 0 1.89.619 3.01 3.01 0 0 0 1.891-.619 4.06 4.06 0 0 1 2.488-.795 4.06 4.06 0 0 1 2.488.795 3.01 3.01 0 0 0 1.891.619 3.01 3.01 0 0 0 1.89-.619 4.06 4.06 0 0 1 2.487-.795 4.06 4.06 0 0 1 2.487.795 3.01 3.01 0 0 0 1.891.619 3.01 3.01 0 0 0 1.892-.619 4.06 4.06 0 0 1 2.489-.795 4.06 4.06 0 0 1 2.488.795 3.01 3.01 0 0 0 1.891.619 3.01 3.01 0 0 0 1.892-.619c.72-.532 1.595-.811 2.489-.795a4.06 4.06 0 0 1 2.489.795 3.01 3.01 0 0 0 1.892.619l.003 1.062z"/></g><path d="M56.816 58.91c7.76 0 14.05-6.29 14.05-14.05s-6.29-14.05-14.05-14.05-14.05 6.29-14.05 14.05 6.291 14.05 14.05 14.05z" fill="#e6f6ff"/><g fill="#efaea8"><path d="M56.661 59.441c-3.915.015-7.676-1.523-10.458-4.277s-4.358-6.5-4.382-10.415c.024-3.915 1.6-7.66 4.382-10.415s6.543-4.293 10.458-4.277a14.82 14.82 0 0 1 9.646 3.525v-2.368h1.06v3.992h-4.028v-1.061h1.987a13.77 13.77 0 0 0-8.665-3.032 13.72 13.72 0 0 0-13.779 13.631 13.72 13.72 0 0 0 13.779 13.631v1.065zm-.216-24.272v9.681c.003.068.033.132.082.179s.115.073.183.073.134-.026.183-.073.079-.111.082-.179v-9.681c-.003-.068-.033-.132-.082-.179s-.115-.073-.183-.073-.133.026-.183.073a.26.26 0 0 0-.082.179z"/><path d="M48.882 44.996l7.431.152c.068-.003.132-.033.179-.082s.073-.115.073-.183-.026-.134-.073-.183-.111-.079-.179-.082l-7.431-.152c-.068.004-.132.033-.179.082s-.073.115-.073.183.026.134.073.183.111.079.179.082z"/><path d="M56.627 45.94a1.06 1.06 0 0 0 1.066-1.056 1.06 1.06 0 1 0-2.133 0 1.06 1.06 0 0 0 1.067 1.056zm.154-12.365c.337 0 .61-.27.61-.603s-.273-.603-.61-.603-.61.27-.61.603.273.603.61.603zm-12.34 11.61c.337 0 .61-.27.61-.603s-.273-.603-.61-.603-.61.27-.61.603.273.603.61.603z"/></g><defs ><path id="B" d="M34.865 80.153a1.31 1.31 0 1 0 0-2.621 1.31 1.31 0 1 0 0 2.621z"/></defs></svg>