<svg xmlns="http://www.w3.org/2000/svg" width="114" height="114" fill="none" xmlns:v="https://vecta.io/nano"><path d="M41.444 62.651V48.805v-1.086h10.859v3.258l.543 13.575 9.23 16.29-.814 1.9H32.757l-1.357-1.9 10.045-18.191z" fill="#fee299"/><path d="M81.895 65.095H54.747h-.271-.815l5.973 10.86 2.443 5.973 4.887 1.358 7.601-1.901 5.43-4.887 3.258-6.516-1.357-4.887z" fill="#fed0d0"/><path d="M39.272 47.176l-.814-2.443 15.203-.543 1.629 1.086-1.357 2.172-14.66-.271zm21.447-6.788l-.271-2.986v-.272l15.203-.543 1.086 2.172-1.629 1.629H60.719zm0 31.223l1.357-2.443 2.715 1.086-.814 2.444-3.258-1.086zm11.675-1.9l-.543-.815h-.272l1.9-.543v1.358h-1.086zm-4.888 8.144l.543-4.072 3.529-1.086 1.9 2.715-1.086 2.987-4.886-.543z" fill="#e6f7ff"/><path d="M74.488 54.979V41.195h.425a2.59 2.59 0 0 0 1.833-.759c.486-.486.759-1.146.759-1.833a2.59 2.59 0 0 0-2.592-2.593H61.759a2.59 2.59 0 0 0-2.592 2.593c0 .688.273 1.347.759 1.833s1.145.759 1.833.759h.425v13.785a15.07 15.07 0 0 0-8.318 9.574l-.552-.956a2.99 2.99 0 0 1-.4-1.492V48.529h.425a2.59 2.59 0 0 0 1.833-.759c.486-.486.759-1.146.759-1.833s-.273-1.347-.759-1.833a2.59 2.59 0 0 0-1.833-.759h-.879l2.531-12.771c.045-.228-.003-.464-.132-.657s-.33-.326-.557-.372-.464.002-.657.131-.327.329-.372.557l-2.599 13.112H40.186a2.59 2.59 0 0 0-2.592 2.593c0 .688.273 1.347.759 1.833a2.59 2.59 0 0 0 1.833.759h.425v13.575a2.99 2.99 0 0 1-.4 1.492l-9.249 16.021c-.246.427-.376.91-.376 1.403s.13.976.376 1.403.6.781 1.027 1.027.91.376 1.403.376h26.743c.452 0 .897-.109 1.297-.319a2.79 2.79 0 0 0 1.001-.885c1.866.799 3.875 1.208 5.904 1.204a15.08 15.08 0 0 0 14.748-11.935 15.08 15.08 0 0 0-8.596-16.913zM61.759 39.443a.84.84 0 0 1-.841-.841.84.84 0 0 1 .841-.841h13.153a.84.84 0 0 1 .841.841.84.84 0 0 1-.841.841H61.759zm1.626 16.929l.55-.22V41.195h8.801v14.957l.55.22A13.26 13.26 0 0 1 78 59.559c1.322 1.391 2.327 3.052 2.945 4.868H55.735a13.32 13.32 0 0 1 7.65-8.055zM53.339 45.096a.84.84 0 0 1 .841.841.84.84 0 0 1-.841.841h-1.559l.333-1.682h1.226zm-13.153 1.682a.84.84 0 0 1-.841-.841.84.84 0 0 1 .841-.841h10.142l-.333 1.682h-9.808zM61.158 81.26c-.052.233-.182.44-.369.589s-.418.229-.656.227H33.391c-.185 0-.367-.049-.527-.141s-.293-.226-.386-.386-.141-.342-.141-.527.049-.367.141-.527l9.249-16.021a4.74 4.74 0 0 0 .635-2.368v-2.066h2.626c.232 0 .455-.092.619-.257s.256-.387.256-.619-.092-.455-.256-.619-.387-.257-.619-.257h-2.626v-2.229h2.626c.232 0 .455-.092.619-.257s.256-.387.256-.619-.092-.455-.256-.619-.387-.257-.619-.257h-2.626v-2.229h2.626c.232 0 .455-.092.619-.256s.256-.387.256-.619-.092-.455-.256-.619-.387-.256-.619-.256h-2.626v-1.796h7.285L43.26 80.754c-.022.113-.022.229 0 .342s.067.22.131.316.146.178.242.241.203.108.316.131c.056.011.114.017.171.017.203 0 .399-.071.555-.199s.263-.308.303-.506l6.185-31.205v12.215c0 .831.219 1.648.635 2.368l9.249 16.021c.136.231.176.506.112.766zm7.178.816a13.18 13.18 0 0 1-5.4-1.147 2.79 2.79 0 0 0-.373-1.311l-7.398-12.814.101-.626h26.143a13.31 13.31 0 0 1-.146 5.833c-.48 1.91-1.377 3.689-2.628 5.21s-2.823 2.745-4.604 3.585-3.726 1.273-5.695 1.269zM63.06 67.889c-.56 0-1.108.166-1.574.477a2.83 2.83 0 0 0-1.043 1.271c-.215.518-.271 1.087-.161 1.637s.379 1.054.775 1.45a2.83 2.83 0 0 0 3.087.614c.518-.214.96-.578 1.272-1.043s.477-1.014.477-1.574c-.001-.751-.3-1.471-.831-2.002s-1.251-.83-2.002-.831zm0 3.915a1.08 1.08 0 0 1-.999-.668 1.08 1.08 0 0 1 .234-1.178 1.08 1.08 0 0 1 .554-.296c.21-.042.427-.02.625.062a1.08 1.08 0 0 1 .668.999 1.08 1.08 0 0 1-1.081 1.081h0zm7.233 0c-.778 0-1.54.231-2.187.664s-1.152 1.047-1.45 1.767a3.94 3.94 0 0 0 .854 4.29c.55.55 1.252.925 2.015 1.077a3.94 3.94 0 0 0 4.041-1.674 3.94 3.94 0 0 0-.491-4.97 3.94 3.94 0 0 0-2.782-1.154h0zm0 6.122c-.432 0-.855-.128-1.214-.368s-.639-.581-.805-.981-.209-.839-.124-1.263.292-.813.598-1.119.695-.514 1.119-.598.863-.041 1.262.124.741.445.981.805.368.782.368 1.214a2.19 2.19 0 0 1-2.185 2.185zm2.484-10.037c-.287 0-.568.085-.807.245s-.425.387-.535.652-.139.558-.083.84.194.541.398.744.462.341.744.398.574.027.839-.083a1.45 1.45 0 0 0 .652-.535c.16-.239.245-.52.245-.807-.001-.385-.154-.754-.426-1.027s-.641-.425-1.027-.426zm0 1.752a.3.3 0 0 1-.276-.184.3.3 0 0 1 .065-.326.3.3 0 0 1 .326-.065c.055.023.101.061.134.11a.3.3 0 0 1-.037.377.3.3 0 0 1-.211.088z" fill="#207bc9"/><path d="M57 113c30.928 0 56-25.072 56-56S87.928 1 57 1 1 26.072 1 57s25.072 56 56 56z" stroke="#207bc9" stroke-width="2"/></svg>