<svg xmlns="http://www.w3.org/2000/svg" width="339" height="62" fill="none"  xmlns:v="https://vecta.io/nano"><path fill="#ffcbc0" d="M0 5h339v57H0z"/><path fill="#01385e" d="M10 0h319v53H10z"/><path d="M32.525 29.24c0 .547.093 1.013.28 1.4s.447.707.78.96c.333.24.713.42 1.14.54.44.107.913.16 1.42.16.547 0 1.013-.06 1.4-.18.387-.133.7-.3.94-.5a1.79 1.79 0 0 0 .52-.68 2.14 2.14 0 0 0 .16-.8c0-.547-.127-.947-.38-1.2-.24-.267-.507-.453-.8-.56-.507-.187-1.1-.36-1.78-.52l-2.48-.66c-.613-.16-1.127-.367-1.54-.62-.4-.267-.72-.56-.96-.88s-.413-.66-.52-1.02c-.093-.36-.14-.727-.14-1.1 0-.72.147-1.34.44-1.86.307-.533.707-.973 1.2-1.32s1.053-.6 1.68-.76a7.1 7.1 0 0 1 1.9-.26c.747 0 1.447.1 2.1.3.667.187 1.247.473 1.74.86.507.387.907.867 1.2 1.44.293.56.44 1.213.44 1.96h-2.5c-.067-.92-.38-1.567-.94-1.94-.56-.387-1.273-.58-2.14-.58a4.23 4.23 0 0 0-.9.1c-.307.053-.587.153-.84.3a1.84 1.84 0 0 0-.64.56c-.16.24-.24.54-.24.9 0 .507.153.907.46 1.2.32.28.733.493 1.24.64l.62.18 1.24.32 1.32.36.94.24c.467.147.873.347 1.22.6s.633.547.86.88c.24.32.413.667.52 1.04a3.64 3.64 0 0 1 .18 1.12c0 .8-.167 1.487-.5 2.06a4.09 4.09 0 0 1-1.28 1.38c-.533.36-1.14.62-1.82.78a8.39 8.39 0 0 1-2.08.26 8.56 8.56 0 0 1-2.3-.3c-.72-.2-1.347-.507-1.88-.92s-.96-.94-1.28-1.58c-.32-.653-.487-1.42-.5-2.3h2.5zm9.969-9.52h11.56v2.16h-4.54V34h-2.5V21.88h-4.52v-2.16zm15.2 0h2.66l5.5 14.28h-2.68l-1.34-3.78h-5.7L54.794 34h-2.58l5.48-14.28zm-.88 8.6h4.36l-2.14-6.14h-.06l-2.16 6.14zm10.4-8.6h6.82c1.573 0 2.753.34 3.54 1.02s1.18 1.627 1.18 2.84c0 .68-.1 1.247-.3 1.7-.2.44-.433.8-.7 1.08-.267.267-.533.46-.8.58l-.56.24v.04c.213.027.44.093.68.2a1.96 1.96 0 0 1 .7.52c.213.227.387.527.52.9.147.373.22.84.22 1.4 0 .84.06 1.607.18 2.3.133.68.333 1.167.6 1.46h-2.68c-.187-.307-.3-.647-.34-1.02l-.04-1.08a10.11 10.11 0 0 0-.12-1.68c-.08-.48-.227-.873-.44-1.18-.213-.32-.507-.553-.88-.7-.36-.147-.827-.22-1.4-.22h-3.68V34h-2.5V19.72zm2.5 6.5h4.1c.8 0 1.407-.187 1.82-.56.413-.387.62-.96.62-1.72 0-.453-.067-.82-.2-1.1-.133-.293-.32-.52-.56-.68-.227-.16-.493-.267-.8-.32a5.14 5.14 0 0 0-.92-.08h-4.06v4.46zm9.87-6.5h11.56v2.16h-4.54V34h-2.5V21.88h-4.52v-2.16zm22.502 8.68l-5.36-8.68h2.9l3.78 6.4 3.72-6.4h2.8l-5.34 8.68V34h-2.5v-5.6zm15.328-6.98c-.76 0-1.42.153-1.98.46-.546.307-.993.72-1.34 1.24-.346.507-.606 1.087-.78 1.74-.16.653-.24 1.32-.24 2s.08 1.347.24 2c.174.653.434 1.24.78 1.76.347.507.794.913 1.34 1.22.56.307 1.22.46 1.98.46s1.414-.153 1.96-.46c.56-.307 1.014-.713 1.36-1.22.347-.52.6-1.107.76-1.76.174-.653.26-1.32.26-2s-.086-1.347-.26-2c-.16-.653-.413-1.233-.76-1.74-.346-.52-.8-.933-1.36-1.24-.546-.307-1.2-.46-1.96-.46zm0-2.04c1.067 0 2.02.2 2.86.6.854.4 1.574.94 2.16 1.62s1.034 1.473 1.34 2.38a8.59 8.59 0 0 1 .48 2.88 8.65 8.65 0 0 1-.48 2.9c-.306.907-.753 1.7-1.34 2.38s-1.306 1.22-2.16 1.62c-.84.387-1.793.58-2.86.58s-2.026-.193-2.88-.58c-.84-.4-1.553-.94-2.14-1.62s-1.04-1.473-1.36-2.38a9.01 9.01 0 0 1-.46-2.9c0-1.013.154-1.973.46-2.88.32-.907.774-1.7 1.36-2.38s1.3-1.22 2.14-1.62c.854-.4 1.814-.6 2.88-.6zm8.956.34h2.5v8.32l.06 1.46c.053.493.186.94.4 1.34.226.387.56.707 1 .96.453.253 1.086.38 1.9.38s1.44-.127 1.88-.38c.453-.253.786-.573 1-.96.226-.4.36-.847.4-1.34.053-.493.08-.98.08-1.46v-8.32h2.5v9.14c0 .92-.14 1.72-.42 2.4s-.68 1.253-1.2 1.72c-.507.453-1.12.793-1.84 1.02s-1.52.34-2.4.34-1.68-.113-2.4-.34a5.14 5.14 0 0 1-1.86-1.02c-.507-.467-.9-1.04-1.18-1.72s-.42-1.48-.42-2.4v-9.14zm14.593 0h6.82c1.574 0 2.754.34 3.54 1.02s1.18 1.627 1.18 2.84c0 .68-.1 1.247-.3 1.7-.2.44-.433.8-.7 1.08-.266.267-.533.46-.8.58l-.56.24v.04a2.42 2.42 0 0 1 .68.2 1.95 1.95 0 0 1 .7.52c.214.227.387.527.52.9.147.373.22.84.22 1.4 0 .84.06 1.607.18 2.3.134.68.334 1.167.6 1.46h-2.68c-.186-.307-.3-.647-.34-1.02l-.04-1.08a10.11 10.11 0 0 0-.12-1.68c-.08-.48-.226-.873-.44-1.18a1.83 1.83 0 0 0-.88-.7c-.36-.147-.826-.22-1.4-.22h-3.68V34h-2.5V19.72zm2.5 6.5h4.1c.8 0 1.407-.187 1.82-.56.414-.387.62-.96.62-1.72 0-.453-.066-.82-.2-1.1-.133-.293-.32-.52-.56-.68-.226-.16-.493-.267-.8-.32-.293-.053-.6-.08-.92-.08h-4.06v4.46zm17.149-6.5h9.86v2.16h-7.36v3.74h6.46v2.04h-6.46V34h-2.5V19.72zm11.855 0h6.82c1.574 0 2.754.34 3.54 1.02s1.18 1.627 1.18 2.84c0 .68-.1 1.247-.3 1.7-.2.44-.433.8-.7 1.08-.266.267-.533.46-.8.58l-.56.24v.04a2.42 2.42 0 0 1 .68.2 1.95 1.95 0 0 1 .7.52c.214.227.387.527.52.9.147.373.22.84.22 1.4 0 .84.06 1.607.18 2.3.134.68.334 1.167.6 1.46h-2.68c-.186-.307-.3-.647-.34-1.02l-.04-1.08a10.11 10.11 0 0 0-.12-1.68c-.08-.48-.226-.873-.44-1.18a1.83 1.83 0 0 0-.88-.7c-.36-.147-.826-.22-1.4-.22h-3.68V34h-2.5V19.72zm2.5 6.5h4.1c.8 0 1.407-.187 1.82-.56.414-.387.62-.96.62-1.72 0-.453-.066-.82-.2-1.1-.133-.293-.32-.52-.56-.68-.226-.16-.493-.267-.8-.32-.293-.053-.6-.08-.92-.08h-4.06v4.46zm11.582-6.5h10.28v2.16h-7.78v3.74h7.2v2.04h-7.2v4.18h7.92V34h-10.42V19.72zm12.598 0h10.28v2.16h-7.78v3.74h7.2v2.04h-7.2v4.18h7.92V34h-10.42V19.72zm21.984 0h2.66l5.5 14.28h-2.68l-1.34-3.78h-5.7l-1.34 3.78h-2.58l5.48-14.28zm-.88 8.6h4.36l-2.14-6.14h-.06l-2.16 6.14zm10.3-8.6h2.64l6.52 10.52h.04V19.72h2.38V34h-2.64l-6.5-10.5h-.06V34h-2.38V19.72zm18.353 0h2.66l5.5 14.28h-2.68l-1.34-3.78h-5.7l-1.34 3.78h-2.58l5.48-14.28zm-.88 8.6h4.36l-2.14-6.14h-.06l-2.16 6.14zm10.4-8.6h2.5v12.12h7.26V34h-9.76V19.72zm12.978 8.68l-5.36-8.68h2.9l3.78 6.4 3.72-6.4h2.8l-5.34 8.68V34h-2.5v-5.6zm10.889.84c0 .547.093 1.013.28 1.4a2.62 2.62 0 0 0 .78.96c.333.24.713.42 1.14.54.44.107.913.16 1.42.16.547 0 1.013-.06 1.4-.18.387-.133.7-.3.94-.5s.413-.427.52-.68c.107-.267.16-.533.16-.8 0-.547-.127-.947-.38-1.2-.24-.267-.507-.453-.8-.56a15.41 15.41 0 0 0-1.78-.52l-2.48-.66c-.613-.16-1.127-.367-1.54-.62-.4-.267-.72-.56-.96-.88s-.413-.66-.52-1.02a4.38 4.38 0 0 1-.14-1.1c0-.72.147-1.34.44-1.86a4.08 4.08 0 0 1 1.2-1.32 5.07 5.07 0 0 1 1.68-.76 7.1 7.1 0 0 1 1.9-.26c.747 0 1.447.1 2.1.3.667.187 1.247.473 1.74.86a4.18 4.18 0 0 1 1.2 1.44c.293.56.44 1.213.44 1.96h-2.5c-.067-.92-.38-1.567-.94-1.94-.56-.387-1.273-.58-2.14-.58-.293 0-.593.033-.9.1a2.52 2.52 0 0 0-.84.3c-.253.133-.467.32-.64.56-.16.24-.24.54-.24.9 0 .507.153.907.46 1.2.32.28.733.493 1.24.64l.62.18 1.24.32 1.32.36.94.24a4.17 4.17 0 0 1 1.22.6c.347.253.633.547.86.88.24.32.413.667.52 1.04a3.64 3.64 0 0 1 .18 1.12c0 .8-.167 1.487-.5 2.06-.32.56-.747 1.02-1.28 1.38a5.45 5.45 0 0 1-1.82.78c-.68.173-1.373.26-2.08.26a8.56 8.56 0 0 1-2.3-.3c-.72-.2-1.347-.507-1.88-.92s-.96-.94-1.28-1.58c-.32-.653-.487-1.42-.5-2.3h2.5zm11.329-9.52h2.5V34h-2.5V19.72zm7.206 9.52c0 .547.093 1.013.28 1.4a2.62 2.62 0 0 0 .78.96c.333.24.713.42 1.14.54.44.107.913.16 1.42.16.547 0 1.013-.06 1.4-.18.387-.133.7-.3.94-.5s.413-.427.52-.68c.107-.267.16-.533.16-.8 0-.547-.127-.947-.38-1.2-.24-.267-.507-.453-.8-.56a15.41 15.41 0 0 0-1.78-.52l-2.48-.66c-.613-.16-1.127-.367-1.54-.62-.4-.267-.72-.56-.96-.88s-.413-.66-.52-1.02a4.38 4.38 0 0 1-.14-1.1c0-.72.147-1.34.44-1.86a4.08 4.08 0 0 1 1.2-1.32 5.07 5.07 0 0 1 1.68-.76 7.1 7.1 0 0 1 1.9-.26c.747 0 1.447.1 2.1.3.667.187 1.247.473 1.74.86a4.18 4.18 0 0 1 1.2 1.44c.293.56.44 1.213.44 1.96h-2.5c-.067-.92-.38-1.567-.94-1.94-.56-.387-1.273-.58-2.14-.58-.293 0-.593.033-.9.1a2.52 2.52 0 0 0-.84.3c-.253.133-.467.32-.64.56-.16.24-.24.54-.24.9 0 .507.153.907.46 1.2.32.28.733.493 1.24.64l.62.18 1.24.32 1.32.36.94.24a4.17 4.17 0 0 1 1.22.6c.347.253.633.547.86.88.24.32.413.667.52 1.04a3.64 3.64 0 0 1 .18 1.12c0 .8-.167 1.487-.5 2.06-.32.56-.747 1.02-1.28 1.38a5.45 5.45 0 0 1-1.82.78c-.68.173-1.373.26-2.08.26a8.56 8.56 0 0 1-2.3-.3c-.72-.2-1.347-.507-1.88-.92s-.96-.94-1.28-1.58c-.32-.653-.487-1.42-.5-2.3h2.5z" fill="#fff"/></svg>