<svg xmlns="http://www.w3.org/2000/svg" width="113" height="113" fill="none" xmlns:v="https://vecta.io/nano"><circle cx="56.5" cy="56.5" r="55.5" stroke="#eeada9" stroke-width="2"/><path d="M59.569 65.958s-4.133 14.932 9.989 19.446c0 .001 3.789-12.153-9.989-19.446zm3.618-7.117s6.2-16.665 23.422-11.806c0-.001-5.166 16.667-23.422 11.806z" fill="#fee299"/><path d="M40.552 66.31c-1.577 2.273-1.628 5.439-1.649 6.593-.032 1.942.388 2.108.344 4.862-.016 1.007-.082 1.622.326 2.187.82 1.134 2.784.989 3.462.938 3.56-.263 6.138-2.747 7.922-4.512 2.399-2.375 4.331-4.288 4.476-7.292.026-.538.153-3.069-1.47-4.814-3.056-3.294-10.635-1.962-13.413 2.039z" fill="#fff7f5"/><path d="M36.451 55.847l-2.731-4.275c-.08-.098-.194-.161-.319-.174a.48.48 0 0 0-.349.102.49.49 0 0 0-.071.673l2.731 4.275c.08.098.194.161.32.174s.25-.023.349-.102a.49.49 0 0 0 .169-.322c.013-.125-.022-.251-.098-.351v-.001zm-5.04 5.727l-4.766-1.667c-.577-.202-.927.689-.348.891l4.766 1.667c.577.202.927-.689.348-.891h0zm2.181-3.518l-3.981-3.123c-.484-.38-1.046.393-.564.769l3.981 3.123c.484.379 1.046-.393.564-.769z" fill="#eeada9"/><path d="M40.7 58.823c.258-4.076.935-8.115 2.019-12.05 1.662-6.013 3.103-10.963 7.55-14.147a14.82 14.82 0 0 1 4.683-2.216 6.82 6.82 0 0 1 1.824 4.095c.062 1.378-.362 3.031-1.824 4.845-4.117 5.108-12.351 19.476-12.351 19.476l-.95 2.235-.951-2.238z" fill="#e6f7ff"/><path d="M40.542 65.368c1.462-5.423 3.694-10.605 6.628-15.383.799-1.292 2.369-3.407 5.511-7.64 5.736-7.728 7.443-9.39 9.3-10.765a25.97 25.97 0 0 1 7.698-3.888c.874-.034 1.726.281 2.372.875 1.353 1.392 1.793 4.97-3.955 14.131 0 .002-15.202 21.712-27.553 22.67z" fill="#e6f6ff"/><g fill="#eeada9"><path d="M42.338 81.827c-.668.015-1.327-.156-1.904-.494-1.593-.969-2.196-3.311-2.015-7.831.086-2.174.346-4.338.779-6.47l-2.413.802-.403-1.328 3.177-1.082c2.645-10.771 9.448-19.653 17.091-29.632 1.78-2.41 3.977-4.477 6.486-6.099a23.7 23.7 0 0 1 5.631-2.62l.14-.029c1.827-.174 3.154.188 3.943 1.077.661.742.94 1.838.835 3.256-.479 6.453-8.766 18.675-17.734 26.152a54.44 54.44 0 0 1-15.215 8.932c-.531 2.332-.845 4.708-.94 7.098-.225 5.628.96 6.349 1.35 6.586 2.064 1.254 7.166-1.354 12.136-7.885.589-.728 1.016-1.575 1.252-2.484a6.6 6.6 0 0 0 .114-2.784 3.83 3.83 0 0 0-.519-1.473c-.272-.45-.634-.837-1.062-1.138-1.302-.754-4.166.257-6.706 3.242l-1.046-.904c2.781-3.271 6.329-4.762 8.437-3.542a5.1 5.1 0 0 1 1.504 1.531 5.14 5.14 0 0 1 .746 2.019c.199 1.12.156 2.27-.125 3.371s-.793 2.13-1.503 3.014c-4.126 5.416-8.806 8.717-12.035 8.718zm26.768-53.409a22.31 22.31 0 0 0-5.236 2.447 23.53 23.53 0 0 0-6.132 5.774c-7.308 9.544-13.835 18.068-16.59 28.161 5.037-2.046 9.733-4.859 13.923-8.343 9.655-8.051 16.833-19.735 17.238-25.187.076-1.026-.088-1.776-.487-2.226-.473-.532-1.387-.743-2.717-.627h.001z"/><path d="M41.478 59.559l-1.377-.051c.232-4.294.891-8.553 1.967-12.714 2.359-9.005 6.22-14.777 11.478-17.153l.117-.051.127-.007a3.11 3.11 0 0 1 2.14.568c1.835 1.42 1.577 5.347-.647 9.769l-1.229-.628c2.078-4.135 2.086-7.23 1.037-8.04a1.76 1.76 0 0 0-1.101-.286C42.431 36.345 41.485 59.328 41.478 59.56zm7.723 11.85c.697 0 1.262-.57 1.262-1.272s-.565-1.272-1.262-1.272-1.262.57-1.262 1.272.565 1.272 1.262 1.272zm20.311 14.925c.045-.024.086-.056.118-.096s.056-.086.071-.135c.072-.266 1.725-6.564-.994-12.057S59.998 66.101 59.745 66c-.045-.012-.082-.019-.119-.019-.012 0-.023-.005-.034-.005-.05.002-.099.015-.144.038s-.082.052-.113.089-.055.078-.07.123c0 .007-.004.013-.006.02-.072.266-1.726 6.564.994 12.056s8.708 7.946 8.961 8.046a.35.35 0 0 0 .15.025.36.36 0 0 0 .147-.039zm-8.607-8.359c-1.975-3.987-1.5-8.544-1.153-10.524l4.402 8.89a.37.37 0 0 0 .087.113c.036.032.078.056.123.071a.36.36 0 0 0 .278-.02c.043-.021.081-.051.112-.088a.38.38 0 0 0 .07-.124.37.37 0 0 0-.02-.28l-4.403-8.891c1.778.908 5.676 3.261 7.653 7.254 2.205 4.455 1.353 9.632 1.039 11.118-1.367-.64-5.982-3.058-8.19-7.519zm1.601-18.542a.34.34 0 0 0 .089.046c.338.095 8.174 2.185 15.003-1.251s9.879-11.005 10.005-11.326c.019-.048.027-.1.025-.151a.38.38 0 0 0-.037-.148c-.022-.046-.055-.087-.095-.12a.36.36 0 0 0-.135-.07c-.33-.09-8.164-2.181-14.994 1.254s-9.88 11.007-10.006 11.327l-.007.02a.37.37 0 0 0 .02.281.33.33 0 0 0 .051.067.4.4 0 0 0 .039.051.24.24 0 0 0 .043.02v.001zm24.251-12.409c-.722 1.598-3.768 7.673-9.485 10.55-5.201 2.615-11.172 1.861-13.484 1.419l8.765-4.41 3.54 1.192a.36.36 0 0 0 .277-.02.37.37 0 0 0 .183-.212c.031-.092.023-.193-.02-.28s-.119-.153-.21-.184l-2.848-.96 4.127-2.078c.043-.021.081-.051.113-.088s.055-.079.07-.124a.36.36 0 0 0 .017-.142.37.37 0 0 0-.125-.251c-.036-.031-.078-.056-.124-.071a.36.36 0 0 0-.278.02l-4.909 2.471-.009.005-4.123 2.075 1.029-3.105a.37.37 0 0 0 .018-.142c-.003-.048-.016-.095-.037-.138s-.051-.081-.087-.113-.078-.056-.123-.071-.093-.021-.141-.018a.36.36 0 0 0-.137.038c-.043.022-.081.051-.112.088a.38.38 0 0 0-.07.124l-1.26 3.802-3.853 1.935c1.038-2.126 4.027-7.395 9.23-10.014 5.713-2.872 12.365-1.677 14.066-1.3l.001.003z"/><path d="M69.351 86.635a.62.62 0 0 1-.23-.044c-.257-.102-6.329-2.581-9.097-8.172-2.762-5.576-1.085-11.971-1.013-12.241l.011-.037a.63.63 0 0 1 .118-.205c.053-.064.119-.116.192-.154s.16-.06.246-.065h.034l.051.009a.41.41 0 0 1 .125.02l.039.011c.271.108 6.347 2.594 9.112 8.177s1.085 11.973 1.012 12.242a.64.64 0 0 1-.12.232.63.63 0 0 1-.202.164c-.087.044-.182.066-.278.065zm-9.743-20.398c-.015.001-.03.004-.043.01s-.023.015-.032.025-.016.022-.021.035c-.073.268-1.7 6.477.975 11.878 2.681 5.414 8.576 7.822 8.825 7.921.014.005.028.008.043.007s.029-.004.042-.011.026-.018.036-.031.017-.028.02-.043c.069-.257 1.701-6.452-.978-11.864-2.602-5.254-8.245-7.681-8.792-7.906l-.125-.024a.24.24 0 0 0 .049.002zm9.673 19.63l-.293-.137c-1.383-.646-6.068-3.107-8.313-7.641-2.035-4.102-1.499-8.84-1.175-10.686l.136-.776 4.752 9.595c.013.024.035.043.061.051s.055.007.08-.006.044-.035.053-.061.006-.056-.006-.081l-4.752-9.596.697.356c1.658.847 5.732 3.261 7.768 7.37 2.242 4.529 1.379 9.785 1.061 11.289l-.067.322zm-9.396-17.568c-.283 2.139-.465 6.093 1.252 9.56 2.03 4.102 6.15 6.457 7.772 7.256.34-1.788.946-6.526-1.082-10.623-1.719-3.472-4.963-5.699-6.829-6.755l4.04 8.157c.037.074.059.154.065.236s-.005.165-.031.243-.067.151-.121.213a.62.62 0 0 1-.193.15.61.61 0 0 1-.474.034c-.078-.026-.15-.067-.212-.121a.62.62 0 0 1-.149-.194l-4.039-8.155zm8.716-7.845a24.89 24.89 0 0 1-6.066-.718l-.051-.019c-.038-.016-.075-.035-.109-.058l-.075-.048c-.028-.024-.052-.052-.072-.083-.034-.035-.063-.075-.086-.118a.63.63 0 0 1-.064-.235c-.006-.082.005-.164.03-.242l.013-.034c.128-.324 3.218-7.985 10.13-11.464s14.843-1.364 15.178-1.272a.62.62 0 0 1 .231.12.63.63 0 0 1 .163.205.64.64 0 0 1 .064.252c.003.087-.011.175-.042.257-.13.328-3.225 7.991-10.132 11.466a20.33 20.33 0 0 1-9.112 1.992h-.002zm-5.89-1.211c.763.2 8.243 2.037 14.77-1.247 6.732-3.387 9.756-10.871 9.882-11.19.01-.028.009-.059-.003-.087-.007-.014-.016-.025-.028-.035s-.025-.016-.039-.02c-.327-.09-8.07-2.154-14.811 1.235s-9.756 10.874-9.881 11.19c-.005.014-.007.029-.007.044s.004.029.011.043l.043.038c.009.007.018.012.028.017l.036.012zm-.051-.014l.021.006-.021-.006zm5.951.474a26.49 26.49 0 0 1-4.868-.455l-.753-.144 9.546-4.805 3.641 1.226c.027.009.056.007.081-.006s.044-.035.053-.062a.11.11 0 0 0-.006-.081c-.013-.025-.034-.045-.061-.054l-3.441-1.159 4.685-2.359c.024-.013.043-.035.051-.062.005-.013.007-.027.006-.041s-.004-.027-.011-.04c-.012-.026-.034-.045-.061-.054s-.056-.006-.081.006l-9.6 4.832 1.227-3.702c.009-.027.007-.056-.006-.081s-.035-.044-.061-.053c-.013-.005-.027-.007-.041-.006s-.027.005-.04.011c-.024.013-.042.035-.051.061l-1.294 3.904-4.634 2.333.338-.693c1.056-2.163 4.081-7.481 9.346-10.132 5.739-2.885 12.348-1.741 14.237-1.322l.312.069-.133.293c-.802 1.774-3.863 7.785-9.605 10.675-2.744 1.304-5.75 1.954-8.783 1.898h.003zm-3.999-.833c2.671.418 7.926.795 12.548-1.531 5.307-2.67 8.271-8.102 9.229-10.13-2.187-.447-8.276-1.32-13.581 1.346-4.624 2.328-7.483 6.789-8.756 9.193l3.052-1.538 1.226-3.699a.62.62 0 0 1 .12-.213c.054-.062.119-.113.192-.15s.153-.059.234-.065.163.005.241.031.149.067.211.121.112.12.149.194.059.154.064.236-.005.165-.031.243l-.832 2.509 8.483-4.27c.073-.037.152-.059.234-.065s.163.005.241.031a.62.62 0 0 1 .212.121c.061.054.112.12.148.194s.059.154.065.236-.005.165-.031.243a.63.63 0 0 1-.12.213.62.62 0 0 1-.192.15l-3.569 1.795 2.258.761c.156.053.286.166.359.315s.086.321.034.479c-.026.078-.067.151-.121.213s-.119.113-.192.15a.61.61 0 0 1-.475.033l-3.439-1.158-7.961 4.013z"/></g></svg>