<svg xmlns="http://www.w3.org/2000/svg" xmlns:xlink="http://www.w3.org/1999/xlink" width="113" height="113" fill="none" xmlns:v="https://vecta.io/nano"><circle cx="56.5" cy="56.5" r="55.5" stroke="#eeada9" stroke-width="2"/><g clip-path="url(#A)"><path d="M83.676 59.898h-54v9.391h54v-9.391z" fill="#fff7f5"/><path d="M29.676 66.271v3.691a7.95 7.95 0 0 0 4.127 1.006c1.997-.099 2.463-.994 4.471-1.006 2.201-.013 2.338 1.057 4.471 1.006 2.222-.053 2.558-1.224 4.471-1.006 1.748.199 1.792 1.213 3.44 1.342 1.972.155 2.297-1.267 4.471-1.342 2.102-.069 2.461 1.232 4.472 1.006 1.733-.194 1.781-1.199 3.439-1.342 1.94-.167 2.207 1.181 4.472 1.342 2.21.158 2.701-1.069 4.815-.671 1.477.278 1.475.923 2.752 1.006 1.76.115 2.41-1.066 4.127-1.342.987-.158 2.463-.039 4.471 1.342v-3.689a8.1 8.1 0 0 0-4.127-1.006c-2.236.098-2.827 1.191-4.815 1.006-2.101-.196-2.401-1.507-4.127-1.342-1.686.162-1.743 1.446-3.44 1.677-1.964.267-2.47-1.376-4.816-1.342-1.933.029-1.97 1.151-3.783 1.006-1.667-.133-2.199-1.125-4.127-1.006-.584.044-1.161.156-1.719.335-1.238.394-1.409.802-2.064 1.006-1.791.561-2.809-1.772-5.159-1.677-1.647.069-1.667 1.233-3.44 1.342-2.028.124-2.413-1.377-4.471-1.342-1.836.031-2.259 1.239-4.127 1.342a5.87 5.87 0 0 1-3.782-1.344z" fill="#fee299"/><g fill="#efaea8"><path d="M31.653 85.44c.11-.678-.35-1.316-1.028-1.426s-1.316.35-1.426 1.028.351 1.316 1.028 1.426 1.316-.351 1.426-1.028zm4.809-4.719c.687 0 1.243-.557 1.243-1.243s-.557-1.243-1.243-1.243-1.243.556-1.243 1.243.556 1.243 1.243 1.243zm7.884 5.399c.486-.485.486-1.272 0-1.758a1.24 1.24 0 0 0-1.758 0c-.486.486-.486 1.273 0 1.758s1.273.486 1.758 0z"/><use xlink:href="#B"/><path d="M57.735 85.44c.11-.678-.35-1.316-1.028-1.426s-1.316.35-1.426 1.028.35 1.316 1.028 1.426 1.316-.351 1.426-1.028zm4.808-4.719c.687 0 1.243-.557 1.243-1.243s-.556-1.243-1.243-1.243-1.243.556-1.243 1.243.557 1.243 1.243 1.243zm8.223 4.775c.14-.672-.291-1.331-.963-1.471s-1.331.291-1.471.963.291 1.331.963 1.471 1.331-.291 1.471-.963zm4.817-4.775c.686 0 1.243-.557 1.243-1.243s-.557-1.243-1.243-1.243-1.243.556-1.243 1.243.557 1.243 1.243 1.243zm8.232 4.725c.113-.677-.345-1.317-1.022-1.43a1.24 1.24 0 0 0-1.429 1.022c-.112.677.345 1.317 1.022 1.43s1.317-.345 1.43-1.022zM47.117 58.891H29.676v1.216h17.441v-1.216zm36.559.21H65.899v1.006h17.777v-1.006zm0 12.57a3.86 3.86 0 0 1-2.361-.754c-.514-.394-1.147-.601-1.795-.588a2.86 2.86 0 0 0-1.795.588 3.86 3.86 0 0 1-2.361.754 3.86 3.86 0 0 1-2.361-.754c-.514-.394-1.147-.601-1.794-.588a2.86 2.86 0 0 0-1.795.588 3.85 3.85 0 0 1-2.361.754 3.86 3.86 0 0 1-2.361-.754 2.85 2.85 0 0 0-1.793-.588 2.85 2.85 0 0 0-1.793.588 3.85 3.85 0 0 1-2.361.754 3.86 3.86 0 0 1-2.361-.754c-.514-.394-1.147-.601-1.794-.588-.647-.013-1.28.194-1.794.588-.682.505-1.513.77-2.361.754a3.85 3.85 0 0 1-2.361-.754c-.514-.394-1.147-.601-1.794-.588-.647-.013-1.28.194-1.794.588-.682.505-1.513.77-2.361.754a3.86 3.86 0 0 1-2.361-.754 2.85 2.85 0 0 0-1.793-.588 2.85 2.85 0 0 0-1.793.588 3.85 3.85 0 0 1-2.361.754 3.85 3.85 0 0 1-2.361-.754 2.85 2.85 0 0 0-1.793-.588v-1.006a3.85 3.85 0 0 1 2.361.754 2.85 2.85 0 0 0 1.793.588 2.85 2.85 0 0 0 1.793-.588 3.85 3.85 0 0 1 2.361-.754 3.85 3.85 0 0 1 2.361.754c.514.394 1.147.601 1.794.588.647.013 1.28-.194 1.794-.588a3.85 3.85 0 0 1 2.361-.754 3.85 3.85 0 0 1 2.361.754 2.85 2.85 0 0 0 1.793.588c.647.013 1.28-.194 1.794-.588a3.85 3.85 0 0 1 2.361-.754 3.85 3.85 0 0 1 2.361.754c.514.394 1.147.601 1.794.588a2.85 2.85 0 0 0 1.793-.588 3.85 3.85 0 0 1 2.361-.754 3.85 3.85 0 0 1 2.361.754c.514.394 1.147.601 1.794.588a2.86 2.86 0 0 0 1.795-.588 3.85 3.85 0 0 1 2.361-.754 3.85 3.85 0 0 1 2.361.754c.514.394 1.147.601 1.794.588.647.013 1.28-.194 1.794-.588.683-.504 1.513-.77 2.361-.754a3.86 3.86 0 0 1 2.361.754 2.86 2.86 0 0 0 1.795.588v1.006zm0-3.572a3.86 3.86 0 0 1-2.361-.754c-.514-.394-1.147-.601-1.795-.588-.648-.013-1.28.194-1.794.588-.683.504-1.513.77-2.361.754a3.85 3.85 0 0 1-2.361-.754c-.514-.394-1.147-.601-1.794-.588-.647-.013-1.28.194-1.794.588a3.85 3.85 0 0 1-2.361.754 3.85 3.85 0 0 1-2.361-.754 2.85 2.85 0 0 0-1.793-.588 2.85 2.85 0 0 0-1.793.588 3.85 3.85 0 0 1-2.361.754 3.85 3.85 0 0 1-2.361-.754c-.514-.394-1.147-.601-1.794-.588-.647-.013-1.28.194-1.794.588a3.85 3.85 0 0 1-2.361.754 3.85 3.85 0 0 1-2.361-.754c-.514-.394-1.147-.601-1.794-.588-.647-.013-1.28.194-1.794.588a3.85 3.85 0 0 1-2.361.754 3.85 3.85 0 0 1-2.361-.754c-.514-.394-1.147-.601-1.794-.588a2.85 2.85 0 0 0-1.793.588 3.85 3.85 0 0 1-2.361.754 3.85 3.85 0 0 1-2.361-.754 2.85 2.85 0 0 0-1.793-.588v-1.006a3.85 3.85 0 0 1 2.361.754 2.85 2.85 0 0 0 1.793.588 2.85 2.85 0 0 0 1.793-.588 3.85 3.85 0 0 1 2.361-.754 3.86 3.86 0 0 1 2.361.754 2.85 2.85 0 0 0 1.793.588c.647.013 1.28-.194 1.794-.588a3.85 3.85 0 0 1 2.361-.754 3.86 3.86 0 0 1 2.361.754 2.85 2.85 0 0 0 1.793.588c.647.013 1.28-.194 1.794-.588a3.85 3.85 0 0 1 2.361-.754 3.86 3.86 0 0 1 2.361.754c.514.394 1.146.601 1.794.588a2.85 2.85 0 0 0 1.793-.588 3.85 3.85 0 0 1 2.361-.754 3.85 3.85 0 0 1 2.361.754c.514.394 1.146.601 1.794.588.648.013 1.28-.194 1.794-.588a3.85 3.85 0 0 1 2.361-.754 3.86 3.86 0 0 1 2.361.754c.514.394 1.147.601 1.794.588.648.013 1.281-.194 1.795-.588a3.86 3.86 0 0 1 2.361-.754 3.86 3.86 0 0 1 2.361.754c.514.394 1.147.601 1.795.588v1.006zM55.977 32.443l-1.479-5.134a.51.51 0 0 0-.656-.278.5.5 0 0 0-.271.272c-.052.122-.054.26-.007.384l1.479 5.134a.51.51 0 0 0 .656.278c.124-.049.219-.15.27-.273a.52.52 0 0 0 .007-.384h0zm-6.843 4.229l-4.33-3.125c-.524-.378-1.149.411-.625.79l4.33 3.125c.524.379 1.149-.411.625-.79zm3.274-2.877l-3.094-4.355c-.376-.53-1.181.076-.805.604l3.094 4.355c.376.529 1.181-.076.806-.603h-.001z"/></g><path d="M56.501 60.747c-3.522-.309-5.054-1.796-5.634-2.483-3.172-3.763-.437-10.413.878-13.612 1.158-2.802 2.764-5.397 4.756-7.683 5.704 7.871 8.264 15.185 6.951 18.658-.473 1.249-1.223 2.375-2.194 3.293-1.343 1.112-3.014 1.754-4.757 1.828z" fill="#e6f6ff"/><g fill="#efaea8"><use xlink:href="#C"/><path d="M37.084 49.455a.91.91 0 0 1-.91-.91v-.331a.91.91 0 0 1 .91-.91.91.91 0 0 1 .91.91v.331a.91.91 0 0 1-.91.91z"/><use xlink:href="#D"/><path d="M40.249 46.289h-.331a.91.91 0 0 1 0-1.82h.331a.91.91 0 0 1 0 1.82zm38.192-9.735a.91.91 0 0 1-.91-.91v-.33a.91.91 0 0 1 1.82 0v.33a.91.91 0 0 1-.91.91zm0 6.003a.91.91 0 0 1-.91-.91v-.331a.91.91 0 0 1 1.82 0v.331a.91.91 0 0 1-.91.91zm-2.834-3.166h-.331a.91.91 0 0 1 0-1.82h.331a.91.91 0 1 1 0 1.82zm6 0h-.331a.91.91 0 0 1 0-1.82h.331a.91.91 0 1 1 0 1.82zm-11.284 9.547a.91.91 0 0 1-.91-.91v-.331a.91.91 0 0 1 1.82 0v.331a.91.91 0 0 1-.91.91zm0 6a.91.91 0 0 1-.91-.91v-.331a.91.91 0 0 1 1.82 0v.334a.91.91 0 0 1-.91.906zm-2.835-3.165h-.331a.91.91 0 0 1 0-1.82h.331a.91.91 0 0 1 0 1.82zm6 0h-.331a.91.91 0 0 1 0-1.82h.331a.91.91 0 0 1 0 1.82zm-16.959 9.48h-.049c-.205-.009-5.036-.268-7.004-4.275-2.16-4.395.066-11.347 6.615-20.663l.391-.556.417.535c.407.522 9.936 12.87 7.038 20.149-1.035 2.602-3.511 4.218-7.361 4.803l-.046.005zm-.013-23.791c-4.223 6.117-8.532 14.182-6.142 19.063 1.607 3.281 5.632 3.681 6.105 3.718 3.439-.534 5.634-1.938 6.523-4.172 2.36-5.929-4.679-16.135-6.486-18.608h.001z"/><path d="M56.533 61.337h-.058c-.208-.009-5.083-.265-7.075-4.321-2.174-4.425.053-11.405 6.622-20.748l.456-.649.486.625c.408.524 9.966 12.907 7.051 20.232-1.047 2.631-3.545 4.264-7.425 4.855l-.056.006zm-.048-25.438l-.326.462c-6.528 9.289-8.754 16.212-6.608 20.577 1.949 3.968 6.73 4.219 6.933 4.227h.041l.041-.006c3.82-.581 6.271-2.179 7.292-4.752 2.88-7.236-6.621-19.546-7.027-20.066l-.347-.444zm.008 24.427c-.479-.034-4.563-.435-6.193-3.763-2.425-4.953 2.005-13.146 6.148-19.147l.069-.097.069.095c1.843 2.523 3.454 5.208 4.814 8.021 2.128 4.535 2.694 8.125 1.682 10.668-.903 2.263-3.119 3.684-6.59 4.224h.001zm.026-22.718c-4.097 5.955-8.446 14.028-6.068 18.881 1.59 3.245 5.586 3.637 6.036 3.671 3.388-.529 5.561-1.915 6.438-4.12 2.334-5.872-4.766-16.172-6.407-18.432h.001z"/></g></g><defs><clipPath id="A"><path fill="#fff" transform="translate(29 27)" d="M0 0h55.02v60H0z"/></clipPath><path id="B" d="M49.502 80.721c.687 0 1.243-.557 1.243-1.243s-.556-1.243-1.243-1.243-1.243.556-1.243 1.243.557 1.243 1.243 1.243z"/><path id="C" d="M37.084 43.454a.91.91 0 0 1-.91-.91v-.331a.91.91 0 0 1 .91-.91.91.91 0 0 1 .91.91v.331a.91.91 0 0 1-.91.91z"/><path id="D" d="M34.249 46.289h-.331a.91.91 0 0 1-.91-.91.91.91 0 0 1 .91-.91h.331a.91.91 0 0 1 .91.91.91.91 0 0 1-.91.91z"/></defs></svg>