<svg xmlns="http://www.w3.org/2000/svg" width="113" height="113" fill="none" xmlns:v="https://vecta.io/nano"><path d="M67.157 33.94s-1.19-6.749 5.953-7.939c0 0 1.587 7.542-5.953 7.939z" fill="#fff7f5"/><path d="M60.809 33.94a2.38 2.38 0 1 0 0-4.763 2.38 2.38 0 1 0 0 4.763z" fill="#e7d996"/><path d="M68.745 40.688a1.59 1.59 0 0 0 1.587-1.588 1.59 1.59 0 0 0-1.587-1.588 1.59 1.59 0 0 0-1.587 1.588 1.59 1.59 0 0 0 1.587 1.588z" fill="#fff7f5"/><path d="M57.634 52.199c.628 0 1.242.186 1.764.535s.929.845 1.169 1.425.303 1.219.181 1.835-.425 1.182-.869 1.626-1.01.747-1.626.869-1.254.06-1.834-.181-1.076-.647-1.425-1.17-.535-1.136-.535-1.764c0-.842.334-1.65.93-2.246s1.403-.93 2.245-.93h0z" fill="#e7d996"/><path d="M37.524 64.465l10.19.833s6.55-.197 8.928 3.771l1.588.794h9.524s3.174 1.191 2.381 4.366l3.175-.794 10.318-3.572s3.968 1.588 1.984 4.366L64.579 85.344s-3.175 2.779-9.921 0l-17.461-6.351.326-14.528z" fill="#fff6f6"/><path d="M31.443 81.573s-5.953-8.733-5.556-19.45h9.127s3.175.397 2.381 3.573l-.397 13.498s0 3.572-1.984 3.176l-3.571-.796z" fill="#eedc97"/><path d="M57.634 47.039s-9.524 2.382-11.508-14.687c0 0 15.08 1.588 11.508 14.687z" fill="#d7effa"/><path d="M66.364 58.154s-3.175-18.656 16.667-21.038c0 0 5.555 20.641-16.667 21.038z" fill="#e6f5fc"/><path d="M39.413 44.332l-3.423-5.315a.6.6 0 0 0-.837-.09.61.61 0 0 0-.09.837l3.423 5.315a.6.6 0 0 0 .837.09.61.61 0 0 0 .09-.837zm-6.315 7.123l-5.971-2.073c-.721-.251-1.161.856-.436 1.108l5.971 2.072c.721.251 1.162-.856.437-1.108l-.001.001zm2.732-4.377l-4.988-3.883c-.607-.472-1.31.488-.707.958l4.988 3.883c.607.472 1.31-.488.707-.958zM73.629 25c-1.977.005-3.871.792-5.268 2.19s-2.184 3.293-2.189 5.27v1.361c-2.705 2.797-4.206 6.542-4.184 10.433v21.828a.7.7 0 0 0 .186.533c.066.071.147.128.236.166a.7.7 0 0 0 .283.057c.199-.005.388-.086.529-.227s.222-.33.227-.529V44.306a13.7 13.7 0 0 1 3.78-9.427 7.48 7.48 0 0 0 7.155-7.459v-1.664c-.005-.199-.086-.389-.227-.529a.78.78 0 0 0-.529-.227zm-.756 1.563v.858a5.94 5.94 0 0 1-1.482 3.93c-.956 1.086-2.275 1.785-3.71 1.967v-.858a5.94 5.94 0 0 1 5.191-5.897zM60.577 28.68a2.87 2.87 0 0 0-1.595.485c-.472.316-.84.765-1.057 1.289a2.87 2.87 0 0 0 2.094 3.915 2.87 2.87 0 0 0 3.432-2.818c0-.377-.074-.751-.218-1.1a2.87 2.87 0 0 0-2.654-1.773zm.05 1.512c.179-.001.356.034.522.102s.316.168.442.295a1.37 1.37 0 0 1 .295.442c.068.165.103.343.102.522a1.42 1.42 0 0 1-.416.945c-.252.252-.589.4-.945.416a1.36 1.36 0 0 1-1.331-1.361 1.36 1.36 0 0 1 1.331-1.361zM46.77 32.309c-.199.005-.388.086-.529.227s-.222.33-.227.529v2.924a12.5 12.5 0 0 0 3.659 8.839c1.16 1.161 2.538 2.082 4.054 2.71s3.141.952 4.782.952c.199-.005.388-.086.529-.227s.222-.33.227-.529v-2.923c0-1.642-.323-3.267-.951-4.784a12.5 12.5 0 0 0-2.708-4.056c-1.16-1.161-2.538-2.082-4.054-2.71a12.49 12.49 0 0 0-4.782-.952zm.756 1.512a11.01 11.01 0 0 1 7.277 3.481 11.02 11.02 0 0 1 2.953 7.508v2.167a11.01 11.01 0 0 1-7.277-3.48 11.02 11.02 0 0 1-2.954-7.508v-2.168zm36.182 3.125a17.55 17.55 0 0 0-12.396 5.142 17.56 17.56 0 0 0-5.14 12.399v4.184a.74.74 0 0 0 .756.756 17.55 17.55 0 0 0 12.396-5.142 17.56 17.56 0 0 0 5.14-12.4V37.7c-.005-.199-.086-.389-.227-.529s-.331-.222-.529-.226zm-14.915.353a1.81 1.81 0 0 0-1.008.306c-.299.2-.531.483-.668.814s-.173.696-.103 1.048a1.82 1.82 0 0 0 .496.929 1.81 1.81 0 0 0 .929.497c.352.07.716.034 1.048-.103a1.81 1.81 0 0 0 .814-.668c.199-.298.306-.649.306-1.008.001-.239-.045-.475-.136-.695s-.224-.421-.393-.59a1.81 1.81 0 0 0-.589-.393 1.8 1.8 0 0 0-.695-.136zm14.16 1.109v3.428a16.06 16.06 0 0 1-4.432 11.066c-2.842 2.983-6.722 4.76-10.837 4.962v-3.427c.003-4.121 1.59-8.083 4.432-11.067a16.06 16.06 0 0 1 10.837-4.963zm-14.16.404c.06 0 .118.018.168.051s.088.081.111.136a.3.3 0 0 1 .017.175c-.012.059-.04.112-.083.154a.3.3 0 0 1-.155.082c-.059.011-.119.006-.174-.017s-.102-.062-.135-.111-.051-.108-.051-.168a.33.33 0 0 1 .302-.302zM57.454 51.564a3.93 3.93 0 0 0-3.631 2.427 3.94 3.94 0 0 0-.224 2.271 3.93 3.93 0 0 0 7.123 1.417 3.93 3.93 0 0 0 .662-2.184 3.94 3.94 0 0 0-1.153-2.778c-.737-.737-1.736-1.152-2.777-1.153zm0 1.563a2.42 2.42 0 0 1 2.418 2.419 2.42 2.42 0 0 1-2.419 2.419 2.42 2.42 0 0 1-2.419-2.419 2.42 2.42 0 0 1 2.419-2.419zM26.26 61.445c-.298-.012-.594.058-.857.201a.78.78 0 0 0-.287.275.79.79 0 0 0-.116.38v.252a38.06 38.06 0 0 0 5.846 20.263c.076.104.174.19.287.251s.239.096.368.103h3.628c.644.008 1.269-.217 1.76-.634a2.67 2.67 0 0 0 .911-1.634l16.882 5.343a19.46 19.46 0 0 0 5.341.756 11.84 11.84 0 0 0 4.435-.756c3.326-1.361 16.68-8.518 20.661-10.635 1.058-.554 2.418-2.167 1.662-4.083-.228-.626-.648-1.163-1.2-1.534a3.15 3.15 0 0 0-1.874-.533 7.44 7.44 0 0 0-1.915.303l-11.034 3.83v-1.059c0-.1-.051-.252-.051-.353v-.1a4.2 4.2 0 0 0-1.513-2.308 4.19 4.19 0 0 0-2.619-.868h-8.617c-3.83-4.99-12.904-5.041-13.304-5.041H37.8a2.73 2.73 0 0 0-2.722-2.419H26.26zm.252 1.512h8.617c.319.004.624.133.85.359s.355.531.359.85c0 .101 0 .151.05.202 0 .05-.05.151-.05.202v15.324c-.013.087.005.177.05.252a.45.45 0 0 0-.05.252 1.24 1.24 0 0 1-1.209 1.261h-3.225c-3.473-5.624-5.337-12.092-5.392-18.701zm11.339 2.369h6.803c.101 0 9.071.05 12.296 4.739a.77.77 0 0 0 .604.352h9.021a2.6 2.6 0 0 1 2.671 2.319v.353a1 1 0 0 1-.051.352c.004.027.001.055-.008.082s-.023.05-.042.07c-.05.1-.05.201-.1.302 0 .05-.05.102-.05.152a2.61 2.61 0 0 1-2.369 1.562H53.525a.76.76 0 0 0-.535.221c-.142.141-.221.334-.221.535a.76.76 0 0 0 .221.535c.141.142.334.221.535.221h13.101a4.23 4.23 0 0 0 3.275-1.614l12.296-4.284a5.91 5.91 0 0 1 1.461-.252 1.58 1.58 0 0 1 1.662 1.109c.454 1.008-.402 1.915-.907 2.167-3.982 2.168-17.286 9.275-20.562 10.586a9.82 9.82 0 0 1-3.829.655 20.25 20.25 0 0 1-4.888-.655l-17.285-5.494V65.325z" fill="#efaea8"/><circle cx="56.5" cy="56.5" r="55.5" stroke="#eeada9" stroke-width="2"/></svg>