<svg xmlns="http://www.w3.org/2000/svg" xmlns:xlink="http://www.w3.org/1999/xlink" width="100" height="100" fill="none" xmlns:v="https://vecta.io/nano"><circle cx="50" cy="50" r="50" fill="#fff"/><g clip-path="url(#A)"><path d="M27.204 41.687l-.165 27.757s.182 3.1 3.836 3.1 31.458-.985 31.458-.985l-.177-40.988.261-.439-.519-1.534-1.805-.771h-22.28L27.231 38.247l-.027 3.44z" fill="#e9f6fd"/><g fill="#103d5e"><path d="M68.713 32.213l7.199-.711c.357-.059.595-.414.535-.829-.119-.355-.476-.592-.833-.533l-7.199.711c-.357.059-.595.414-.535.829.119.355.477.592.833.533zm-3.981-10.054l5.176-4.972c.655-.592-.297-1.598-.892-1.006l-5.176 4.972c-.655.591.238 1.598.892 1.006zm3.02 5.015l6.545-3.079c.774-.355.179-1.598-.595-1.184l-6.545 3.078c-.774.355-.179 1.539.595 1.184zM27.589 40.945c-.303 0-.549.244-.549.546v28.39a3.29 3.29 0 0 0 3.293 3.276h29.633a3.29 3.29 0 0 0 3.293-3.276v-39.31a3.29 3.29 0 0 0-3.293-3.276l-22.005.002c-.012.001-.023.003-.034.005l-.058.012-.051.016-.048.021-.045.026-.045.031-.053.047L27.2 37.83c-.214.213-.214.559 0 .772a.55.55 0 0 0 .388.16h7.683a3.29 3.29 0 0 0 3.293-3.276v-7.098h21.402c1.212.002 2.194.978 2.195 2.184v39.31c-.002 1.206-.983 2.182-2.195 2.184H30.332c-1.212-.001-2.193-.978-2.195-2.184v-28.39c.001-.303-.245-.547-.548-.547z"/><path d="M59.965 73.195H30.332c-1.835-.002-3.329-1.489-3.332-3.315V41.49c0-.323.263-.585.588-.585s.588.262.588.585v28.39c.002 1.182.968 2.143 2.156 2.145h29.633c1.188-.002 2.154-.963 2.156-2.145v-39.31c-.002-1.182-.968-2.143-2.156-2.145H38.603v7.059c-.002 1.826-1.497 3.313-3.332 3.315h-7.683c-.157 0-.305-.061-.416-.172a.58.58 0 0 1-.172-.413c0-.156.061-.303.172-.413l10.479-10.419.03.026-.023-.031.03-.022.049-.03.052-.024.028.031-.014-.037.041-.015.009-.002.046-.012.03.034-.006-.038.032-.005.055-.003h21.954c1.835.002 3.329 1.489 3.332 3.315v39.31c-.002 1.827-1.497 3.314-3.332 3.316zM27.588 40.983a.51.51 0 0 0-.51.507v28.39c.002 1.783 1.461 3.234 3.253 3.237h29.633c1.792-.002 3.251-1.454 3.253-3.237v-39.31c-.002-1.783-1.461-3.234-3.253-3.237H38.015l-.05.002c-.009.001-.018.002-.027.004l-.023.003c-.013.002-.024.006-.036.009l-.023-.034.011.037-.035.013-.008.003c-.014.005-.025.011-.036.016l-.008.004-.034.02-.008.005-.033.023-.009.006a.47.47 0 0 0-.043.038L27.227 37.857a.5.5 0 0 0-.149.359c0 .136.053.263.149.359s.224.148.36.148h7.683c1.792-.002 3.251-1.454 3.253-3.237v-7.137h21.441c1.231.002 2.233.998 2.234 2.223v39.31c-.002 1.224-1.004 2.221-2.234 2.223H30.331c-1.231-.001-2.233-.998-2.234-2.223v-28.39a.51.51 0 0 0-.509-.508z"/></g><path d="M37.466 35.485c-.002 1.206-.983 2.182-2.195 2.184h-6.358l8.553-8.509v6.325z" fill="#fbe7d6"/><g fill="#103d5e"><use xlink:href="#B"/><path d="M33.625 57.323c0-.302.245-.546.549-.546h21.951c.303 0 .549.244.549.546s-.245.546-.549.546H34.173c-.303 0-.549-.244-.549-.546zm0 7.098c0-.302.245-.546.549-.546h21.951c.303 0 .549.244.549.546s-.245.546-.549.546H34.173c-.303 0-.549-.244-.549-.546zm.548-21.839h21.951c.303 0 .549.244.549.546s-.245.546-.549.546H34.173c-.303 0-.549-.244-.549-.546s.245-.546.549-.546zm7.135-6.004c-.303 0-.549-.244-.549-.546s.245-.546.549-.546h14.817c.303 0 .549.244.549.546s-.245.546-.549.546H41.308z"/><path d="M56.124 36.616H41.307c-.325 0-.588-.262-.588-.585s.263-.585.588-.585h14.817c.325 0 .588.262.588.585s-.263.585-.588.585zm-14.817-1.092a.51.51 0 0 0-.51.507.51.51 0 0 0 .51.507h14.817a.51.51 0 0 0 .51-.507.51.51 0 0 0-.51-.507H41.307z"/></g><path d="M62.416 84.415c9.668 0 17.506-7.798 17.506-17.416s-7.837-17.416-17.506-17.416-17.506 7.798-17.506 17.416 7.838 17.416 17.506 17.416z" fill="#fbc9bf"/><g fill="#103d5e"><path d="M62.416 85a18.02 18.02 0 0 1-12.794-5.272c-3.417-3.4-5.3-7.92-5.3-12.729s1.882-9.329 5.3-12.729a18.02 18.02 0 0 1 12.794-5.272A18.02 18.02 0 0 1 75.21 54.27c3.417 3.4 5.3 7.92 5.3 12.729s-1.882 9.329-5.3 12.729A18.02 18.02 0 0 1 62.416 85zm0-34.833c-9.328 0-16.918 7.551-16.918 16.831s7.59 16.832 16.918 16.832 16.918-7.551 16.918-16.831-7.589-16.831-16.918-16.831zm.178 6.364a9.37 9.37 0 0 0-4.812 1.324c-.119.08-.158.238-.088.364.082.117.241.152.365.08a8.87 8.87 0 0 1 4.537-1.253c4.472 0 8.05 3.366 8.05 7.492v1.551c0 .143.115.258.259.258a.26.26 0 0 0 .261-.257v-1.552c-.002-4.422-3.837-8.007-8.572-8.007zm-6.76 3.093a.26.26 0 0 0-.194.097 7.46 7.46 0 0 0-1.615 4.82v8.784a.26.26 0 0 0 .259.258c.142-.004.256-.117.26-.258V64.54c-.044-1.625.488-3.213 1.501-4.489.086-.124.055-.294-.07-.38-.041-.03-.09-.046-.141-.048zm6.76.008c-3.2 0-5.974 2.417-5.974 5.425v1.551c.004.141.118.254.26.258.142-.004.256-.117.26-.258v-1.551c0-2.691 2.516-4.909 5.453-4.909s5.455 2.217 5.455 4.909v10.851c.004.141.118.255.259.258.142-.004.255-.117.26-.258V65.056c0-3.008-2.772-5.425-5.972-5.425zm0 3.1c-1.666 0-3.116 1.258-3.116 2.842v12.401c.004.141.118.254.26.258.142-.004.256-.117.259-.258V65.574c0-1.266 1.194-2.325 2.597-2.325s2.597 1.059 2.597 2.325v3.359c.004.141.118.255.26.258.142-.004.255-.117.259-.258v-3.359c.002-1.584-1.45-2.842-3.115-2.842zm-.033 2.833c-.132.02-.228.134-.227.266v7.234c.004.141.118.255.26.258.142-.004.256-.117.26-.258v-7.233a.27.27 0 0 0-.274-.267zm8.343 2.85c-.144 0-.26.115-.26.257v4.652c0 .143.115.258.259.258a.26.26 0 0 0 .261-.257v-4.652a.26.26 0 0 0-.26-.257zm-14.057.508c-.132.02-.228.134-.227.267v6.717c.004.141.118.254.26.258.142-.004.256-.117.259-.258V69.19a.27.27 0 0 0-.275-.267h-.016zm8.571 2.326c-.132.02-.228.134-.227.266v6.459c.004.141.118.255.26.258.142-.004.255-.117.259-.258v-6.459a.27.27 0 0 0-.274-.267zm-2.856 4.392c-.132.02-.228.134-.227.266v2.584c0 .143.116.258.259.258h.001c.143 0 .26-.115.26-.257v-2.585a.27.27 0 0 0-.274-.267z"/><path d="M62.595 79.022h-.001c-.295 0-.534-.239-.534-.531v-2.583a.54.54 0 0 1 .447-.534l.03-.004.039-.001c.304 0 .549.24.552.537v2.586c0 .144-.056.277-.157.377s-.235.154-.377.154zm2.856-.516a.54.54 0 0 1-.534-.524v-6.466a.54.54 0 0 1 .459-.536c.007-.001.015-.002.022-.002l.035-.002a.54.54 0 0 1 .388.155c.104.101.162.237.164.382v6.462a.54.54 0 0 1-.527.531zm-5.713 0a.54.54 0 0 1-.533-.524V65.574c0-.837.364-1.625 1.024-2.218.644-.579 1.485-.897 2.367-.897.89.003 1.725.321 2.367.897.661.593 1.024 1.381 1.023 2.218v3.358a.54.54 0 0 1-.527.531c-.303-.008-.535-.238-.542-.524v-3.365c0-1.112-1.064-2.052-2.322-2.052s-2.323.94-2.323 2.052v12.401a.54.54 0 0 1-.527.531zm8.569-2.067a.54.54 0 0 1-.534-.524V65.057c0-2.513-2.372-4.635-5.18-4.635s-5.179 2.123-5.179 4.635v1.551a.54.54 0 0 1-.527.531c-.303-.008-.534-.238-.541-.524v-1.558c0-1.522.667-2.958 1.878-4.044a6.53 6.53 0 0 1 4.371-1.654c1.628 0 3.181.587 4.37 1.654 1.21 1.086 1.877 2.522 1.877 4.044v10.851a.54.54 0 0 1-.527.531zm-11.428-.001a.54.54 0 0 1-.533-.524V69.19a.54.54 0 0 1 .459-.537c.017-.002.033-.004.049-.003a.55.55 0 0 1 .56.536v6.721a.54.54 0 0 1-.527.531zm-2.595-2.583c-.293-.002-.532-.239-.534-.53V64.54c-.044-1.798.55-3.572 1.674-4.988a.54.54 0 0 1 .4-.2h.025a.55.55 0 0 1 .283.097c.248.172.311.512.139.76a6.67 6.67 0 0 0-1.453 4.326v8.792a.54.54 0 0 1-.527.531zm16.62 0h-.001c-.296-.001-.534-.239-.534-.532v-4.65a.53.53 0 0 1 .533-.531c.305.009.535.244.535.531v4.65c-.001.295-.24.532-.534.532zm-8.31-.258a.54.54 0 0 1-.534-.524v-7.241a.54.54 0 0 1 .459-.536c.013-.002.027-.003.04-.003l.023-.001c.299 0 .543.24.546.537v7.236a.54.54 0 0 1-.527.531zm8.311-6.977c-.297-.001-.535-.239-.535-.532v-1.55c0-3.981-3.488-7.219-7.775-7.219-1.547.002-3.068.422-4.396 1.214a.55.55 0 0 1-.731-.158c-.006-.008-.011-.016-.016-.025-.139-.25-.063-.561.174-.721a9.67 9.67 0 0 1 4.959-1.371c4.883 0 8.85 3.715 8.852 8.281v1.55c0 .144-.056.277-.157.377a.53.53 0 0 1-.376.154z"/></g></g><defs><clipPath id="A"><path fill="#fff" transform="translate(27 16)" d="M0 0h53.51v69H0z"/></clipPath><path id="B" d="M33.625 50.226c0-.302.245-.546.549-.546h21.951c.303 0 .549.244.549.546s-.245.546-.549.546H34.173c-.303 0-.549-.244-.549-.546z"/></defs></svg>