<svg xmlns="http://www.w3.org/2000/svg" width="100" height="100" fill="none"  xmlns:v="https://vecta.io/nano"><circle cx="50" cy="50" r="50" fill="#fff"/><path d="M40.552 56.879S22.457 67.364 24.153 39.797c0 0 5.673-2.573 13.788 2.424s6.024 11.86 2.611 14.658z" fill="#fbc9bf"/><path d="M58.108 56.447S47.283 38.574 74.935 39.787c0 0 2.676 5.615-2.189 13.8s-11.779 6.216-14.638 2.861z" fill="#fbe7d6"/><path d="M49.315 42.739s-20.368-4.794-.145-23.655c0 0 5.892 2.023 8.343 11.219s-3.795 12.744-8.198 12.436z" fill="#e6f7ff"/><path d="M56.382 40.557c.895-.898 1.605-1.964 2.087-3.136a9.62 9.62 0 0 0 .723-3.695c0-9.292-8.902-15.375-9.281-15.629a.56.56 0 0 0-.626 0c-.379.254-9.28 6.337-9.28 15.629a9.62 9.62 0 0 0 .724 3.695c.482 1.172 1.191 2.238 2.087 3.136 1.653 1.673 3.871 2.671 6.222 2.801l.008 26.911c0 .074.014.148.042.217s.07.131.122.184.115.095.183.123a.57.57 0 0 0 .217.044.57.57 0 0 0 .217-.044c.069-.029.131-.071.183-.123s.094-.115.122-.184.043-.142.042-.217h0l-.008-26.911c2.349-.131 4.565-1.129 6.217-2.8h0zm-12.769-.804c-.79-.793-1.415-1.733-1.841-2.767a8.49 8.49 0 0 1-.639-3.26c0-7.73 6.898-13.295 8.465-14.459 1.567 1.165 8.466 6.731 8.466 14.458a8.49 8.49 0 0 1-.639 3.26c-.425 1.034-1.051 1.975-1.841 2.768a8.37 8.37 0 0 1-5.419 2.468V31.874c0-.074-.014-.148-.042-.217s-.07-.131-.122-.184a.57.57 0 0 0-.4-.167.57.57 0 0 0-.4.167c-.052.053-.094.115-.122.184s-.043.142-.042.217h0v10.347a8.37 8.37 0 0 1-5.424-2.468h0zm.54 10.526c.005-1.267-.241-2.523-.723-3.695a9.63 9.63 0 0 0-2.087-3.136c-6.525-6.572-17.089-4.531-17.536-4.443-.11.022-.21.077-.289.156s-.132.18-.154.29c-.089.453-2.113 11.091 4.41 17.661 1.696 1.713 3.981 2.72 6.392 2.817a9.54 9.54 0 0 0 6.599-2.294 13.03 13.03 0 0 1 2.321 7.222l-.014 2.542c-.001.074.013.148.041.217s.069.132.121.185.114.095.183.124a.57.57 0 0 0 .216.045h.003c.15-.001.293-.061.399-.167s.165-.249.165-.399l.014-2.555a14.17 14.17 0 0 0-2.631-8.008c1.656-1.786 2.574-4.13 2.569-6.563v.001zm-15.58 6.028c-5.427-5.466-4.456-14.313-4.164-16.255 1.924-.291 10.709-1.27 16.137 4.197a8.55 8.55 0 0 1 .339 11.676 14.39 14.39 0 0 0-.802-.889l-6.319-6.363a.56.56 0 0 0-.791-.007l-.007.007a.57.57 0 0 0 0 .803l6.319 6.363c.282.283.545.582.798.883-1.612 1.404-3.699 2.142-5.837 2.064s-4.166-.964-5.672-2.48h0zm8.772 15.718a.57.57 0 0 1 0 .803l-3.026 3.047c-.052.053-.114.095-.183.123a.56.56 0 0 1-.433 0c-.069-.029-.131-.071-.183-.123a.57.57 0 0 1 0-.803l3.025-3.047a.56.56 0 0 1 .792-.007l.007.007h0zm-4.064-4.923l-3.956 1.65c-.069.028-.142.043-.216.043-.111-.001-.22-.035-.312-.097s-.164-.151-.206-.254a.57.57 0 0 1 .305-.743l3.956-1.65c.068-.028.142-.043.216-.043s.147.015.216.043.13.07.183.122a.56.56 0 0 1 .122.183h0a.57.57 0 0 1-.308.743l.001.002zm9.995 9.449l-1.638 3.98c-.042.103-.114.191-.206.254s-.201.096-.312.097a.57.57 0 0 1-.472-.254c-.052-.078-.083-.167-.092-.26s.006-.187.042-.273l1.639-3.98c.028-.068.069-.131.121-.183s.114-.094.183-.123.142-.044.216-.044.148.014.216.042h0a.57.57 0 0 1 .303.744h.001zm6.892 1.153v4.309c0 .149-.059.293-.165.398s-.249.165-.399.165-.293-.059-.399-.165-.165-.249-.165-.398h0v-4.309c0-.074.014-.148.042-.217s.07-.131.122-.184.115-.095.183-.123a.57.57 0 0 1 .217-.044.57.57 0 0 1 .401.168c.052.053.094.116.122.184s.043.143.042.217h-.001zm15.518-2.634a.57.57 0 0 1 0 .803.56.56 0 0 1-.399.167.56.56 0 0 1-.399-.167l-3.026-3.046a.57.57 0 0 1 0-.803.56.56 0 0 1 .792-.007l.006.007 3.026 3.046zm4.929-6.627c-.042.103-.114.191-.206.254s-.201.096-.313.097c-.074-.001-.147-.015-.216-.043l-3.956-1.65a.57.57 0 0 1-.306-.742c.028-.069.069-.131.122-.183s.114-.094.183-.123.142-.044.216-.044.148.014.216.042h0l3.956 1.65a.57.57 0 0 1 .305.743h-.001zm-12.004 11.65a.57.57 0 0 1-.306.743.56.56 0 0 1-.432 0 .56.56 0 0 1-.182-.123c-.052-.053-.093-.115-.12-.184l-1.638-3.98a.57.57 0 0 1 .305-.742c.068-.028.142-.043.216-.043s.147.015.216.043.13.07.183.122a.56.56 0 0 1 .122.183h0l1.638 3.982zm16.884-41.092c-.447-.09-11.014-2.127-17.536 4.443-1.758 1.773-2.763 4.154-2.808 6.648a9.69 9.69 0 0 0 2.567 6.745 14.2 14.2 0 0 0-2.63 8.02l.014 2.542c0 .15.059.293.165.399a.57.57 0 0 0 .399.167h.003a.57.57 0 0 0 .217-.045c.068-.029.13-.071.183-.124s.093-.116.121-.185.042-.143.041-.217h0l-.014-2.53a13.05 13.05 0 0 1 2.321-7.233c1.829 1.571 4.188 2.391 6.599 2.294s4.696-1.104 6.392-2.818c6.524-6.57 4.5-17.211 4.41-17.661-.022-.108-.075-.208-.153-.287s-.177-.133-.286-.155l-.003-.003zm-4.767 17.303c-1.506 1.517-3.534 2.405-5.672 2.482s-4.226-.66-5.838-2.064c.252-.304.519-.6.797-.883l6.319-6.363a.57.57 0 0 0 0-.803.56.56 0 0 0-.791-.007l-.007.007-6.319 6.363c-.283.285-.546.583-.802.889a8.55 8.55 0 0 1 .339-11.676c3.689-3.716 8.928-4.454 12.512-4.454 1.213-.002 2.425.084 3.625.259.296 1.942 1.267 10.788-4.159 16.256l-.005-.006z" fill="#01385e" stroke="#01385e" stroke-width=".25" stroke-miterlimit="10"/></svg>