<svg xmlns="http://www.w3.org/2000/svg" width="113" height="113" fill="none" xmlns:v="https://vecta.io/nano"><circle cx="56.5" cy="56.5" r="55.5" stroke="#217bc9" stroke-width="2"/><path d="M59.298 65.544s-4.049 14.773 9.785 19.239c0 .001 3.712-12.024-9.785-19.239zm3.543-7.042s6.074-16.488 22.945-11.681c0 0-5.061 16.49-22.945 11.681z" fill="#fed0d0"/><path d="M40.668 65.891c-1.545 2.248-1.595 5.381-1.615 6.523-.031 1.922.38 2.085.337 4.81-.015.996-.08 1.605.32 2.163.803 1.122 2.727.979 3.392.928 3.488-.26 6.013-2.718 7.761-4.465 2.35-2.35 4.242-4.242 4.385-7.215.026-.532.15-3.037-1.44-4.763-2.994-3.259-10.419-1.942-13.139 2.018z" fill="#e6f7ff"/><path d="M36.65 55.54l-2.675-4.229c-.078-.097-.19-.159-.313-.172s-.245.023-.342.101a.49.49 0 0 0-.07.667l2.675 4.23a.47.47 0 0 0 .313.173.46.46 0 0 0 .342-.101c.097-.078.153-.195.166-.319a.49.49 0 0 0-.096-.347h0zm-4.936 5.666l-4.669-1.649c-.565-.199-.908.682-.341.882l4.669 1.649c.565.199.908-.682.341-.882v.001zm2.135-3.482l-3.9-3.09c-.474-.375-1.025.389-.553.761l3.9 3.09c.474.375 1.025-.389.553-.761z" fill="#207bc9"/><path d="M40.814 58.484a59.42 59.42 0 0 1 1.978-11.922c1.628-5.949 3.04-10.846 7.396-13.997 1.392-.998 2.944-1.74 4.587-2.192 1.029 1.105 1.659 2.534 1.787 4.052.06 1.363-.355 2.998-1.787 4.793-4.033 5.054-12.099 19.269-12.099 19.269l-.931 2.211-.931-2.214z" fill="#ffe8b9"/><path d="M40.658 64.96a58.19 58.19 0 0 1 6.493-15.22c.782-1.278 2.321-3.371 5.399-7.559 5.62-7.645 7.291-9.29 9.111-10.65 2.287-1.699 4.835-2.999 7.541-3.847a3.23 3.23 0 0 1 2.323.866c1.326 1.377 1.757 4.917-3.875 13.98 0 .002-14.892 21.481-26.992 22.429z" fill="#ffe7b8"/><g fill="#207bc9"><path d="M42.418 81.243c-.654.015-1.3-.154-1.866-.489-1.561-.958-2.152-3.275-1.974-7.748.084-2.151.339-4.292.763-6.401l-2.363.793-.395-1.314 3.112-1.071c2.591-10.657 9.255-19.444 16.742-29.317 1.744-2.384 3.896-4.429 6.354-6.035a23.11 23.11 0 0 1 5.517-2.592l.138-.028c1.79-.172 3.089.186 3.863 1.065.648.734.921 1.818.818 3.221-.469 6.385-8.587 18.476-17.373 25.874-4.465 3.748-9.499 6.733-14.905 8.837-.52 2.307-.828 4.658-.92 7.022-.221 5.568.941 6.281 1.322 6.516 2.022 1.24 7.02-1.34 11.889-7.801a6.52 6.52 0 0 0 1.226-2.458 6.59 6.59 0 0 0 .111-2.754 3.81 3.81 0 0 0-.509-1.457 3.74 3.74 0 0 0-1.041-1.126c-1.276-.746-4.081.254-6.569 3.207l-1.025-.894c2.724-3.237 6.2-4.711 8.265-3.505a5.02 5.02 0 0 1 1.473 1.515 5.12 5.12 0 0 1 .73 1.998c.195 1.108.153 2.245-.122 3.335a7.9 7.9 0 0 1-1.473 2.982c-4.042 5.358-8.626 8.624-11.79 8.625zm26.223-52.84a21.76 21.76 0 0 0-5.129 2.421c-2.323 1.521-4.358 3.456-6.007 5.712-7.159 9.442-13.553 17.876-16.251 27.862 4.935-2.024 9.535-4.808 13.639-8.254 9.458-7.965 16.49-19.525 16.887-24.919.075-1.015-.086-1.757-.477-2.202-.463-.527-1.358-.735-2.662-.62h.001z"/><path d="M41.574 59.213l-1.349-.051a64.63 64.63 0 0 1 1.927-12.579c2.311-8.91 6.093-14.62 11.244-16.97l.115-.051.125-.007c.743-.079 1.488.121 2.097.562 1.797 1.405 1.545 5.29-.634 9.665l-1.204-.621c2.035-4.091 2.043-7.153 1.015-7.954a1.71 1.71 0 0 0-1.079-.283c-11.323 5.321-12.25 28.061-12.257 28.29zm7.568 11.723c.683 0 1.236-.564 1.236-1.259s-.553-1.259-1.236-1.259-1.236.564-1.236 1.259.553 1.259 1.236 1.259zm19.896 14.766c.045-.023.084-.056.116-.095s.055-.085.069-.134c.07-.262 1.69-6.494-.974-11.928s-8.531-7.86-8.78-7.96a.48.48 0 0 0-.117-.019c-.011 0-.022-.005-.033-.005-.049.002-.097.015-.141.038a.35.35 0 0 0-.111.088.36.36 0 0 0-.069.122c0 .007-.004.013-.006.02-.07.263-1.691 6.494.974 11.927s8.53 7.861 8.779 7.961c.047.019.097.027.147.025a.35.35 0 0 0 .144-.039zm-8.432-8.269c-1.934-3.944-1.469-8.453-1.129-10.412l4.313 8.795a.36.36 0 0 0 .085.112.35.35 0 0 0 .259.088.35.35 0 0 0 .134-.038.37.37 0 0 0 .11-.087c.031-.036.054-.078.069-.123s.021-.093.017-.141-.016-.094-.037-.137l-4.313-8.796c1.742.898 5.56 3.227 7.497 7.177 2.16 4.408 1.326 9.53 1.017 11-1.339-.633-5.86-3.026-8.023-7.439zm1.568-18.345a.33.33 0 0 0 .087.046c.331.094 8.008 2.162 14.697-1.237s9.678-10.888 9.802-11.206a.38.38 0 0 0-.012-.296.36.36 0 0 0-.093-.119c-.039-.032-.084-.056-.132-.07-.323-.089-7.997-2.158-14.689 1.24s-9.678 10.89-9.802 11.207l-.007.019a.37.37 0 0 0 .02.277c.014.024.031.046.05.066.011.018.024.035.038.051a.31.31 0 0 0 .042.02v.001zM85.931 46.81c-.708 1.581-3.691 7.591-9.291 10.438-5.095 2.587-10.944 1.841-13.21 1.404l8.586-4.363 3.468 1.18a.35.35 0 0 0 .272-.02.36.36 0 0 0 .179-.21.37.37 0 0 0-.019-.277.36.36 0 0 0-.206-.182l-2.79-.949 4.043-2.056c.042-.021.079-.051.11-.087s.054-.078.069-.123a.37.37 0 0 0 .017-.141c-.003-.047-.016-.094-.037-.137a.36.36 0 0 0-.085-.112.35.35 0 0 0-.393-.05l-4.809 2.445-.009.005-4.039 2.053 1.008-3.072a.37.37 0 0 0 .017-.141c-.003-.047-.016-.094-.037-.137a.36.36 0 0 0-.085-.112.35.35 0 0 0-.393-.05.36.36 0 0 0-.11.087c-.031.036-.054.078-.069.123l-1.234 3.761-3.774 1.914c1.017-2.103 3.944-7.316 9.042-9.907 5.596-2.842 12.113-1.66 13.78-1.287v.003z"/><path d="M68.879 86c-.077 0-.154-.015-.225-.044-.252-.102-6.2-2.554-8.912-8.085-2.706-5.517-1.063-11.844-.992-12.11l.011-.037c.026-.075.065-.143.116-.203a.61.61 0 0 1 .429-.217h.033l.05.009a.4.4 0 0 1 .123.019l.038.011c.265.107 6.218 2.566 8.926 8.09s1.063 11.846.992 12.111a.64.64 0 0 1-.118.229c-.054.067-.122.123-.198.162-.085.043-.178.065-.273.064zm-9.545-20.181c-.015.001-.029.004-.042.01s-.023.015-.031.025-.016.022-.02.035c-.071.265-1.666 6.409.955 11.751 2.626 5.357 8.401 7.738 8.646 7.837.013.005.028.008.042.007s.028-.004.041-.01.026-.018.035-.031.016-.027.02-.043c.068-.254 1.667-6.383-.958-11.738-2.549-5.198-8.077-7.599-8.613-7.822l-.123-.023c.016.002.032.003.048.002zm9.476 19.421l-.287-.136c-1.354-.639-5.945-3.073-8.143-7.559-1.993-4.059-1.468-8.746-1.152-10.573l.133-.768 4.655 9.493c.013.024.034.042.06.051s.054.007.079-.006.043-.034.052-.061a.11.11 0 0 0-.006-.08l-4.656-9.493.683.353c1.624.838 5.616 3.226 7.609 7.292 2.196 4.481 1.35 9.681 1.039 11.168l-.066.319zm-9.205-17.381c-.278 2.116-.455 6.028 1.227 9.458 1.989 4.059 6.025 6.388 7.613 7.179.333-1.769.927-6.456-1.06-10.51-1.684-3.435-4.862-5.639-6.689-6.683l3.957 8.07c.036.073.058.152.063.234s-.005.163-.03.241a.62.62 0 0 1-.118.211.61.61 0 0 1-.189.148c-.071.037-.149.059-.229.064a.59.59 0 0 1-.236-.031.6.6 0 0 1-.207-.12.61.61 0 0 1-.146-.192l-3.956-8.068zm8.539-7.762a24.14 24.14 0 0 1-5.942-.71l-.05-.019a.59.59 0 0 1-.107-.058l-.074-.048a.37.37 0 0 1-.07-.082.5.5 0 0 1-.084-.117c-.036-.073-.057-.152-.063-.233s.004-.162.03-.239l.013-.034c.126-.321 3.153-7.9 9.924-11.342s14.541-1.349 14.869-1.259c.083.023.16.064.227.119a.62.62 0 0 1 .159.203c.038.078.059.163.063.249s-.01.173-.041.254c-.127.325-3.16 7.906-9.925 11.344a19.75 19.75 0 0 1-8.926 1.97h-.002zm-5.77-1.198c.747.198 8.075 2.015 14.47-1.234 6.595-3.351 9.557-10.755 9.68-11.071.01-.028.009-.059-.004-.086-.007-.013-.016-.025-.027-.035s-.025-.016-.039-.02c-.32-.089-7.906-2.131-14.51 1.222s-9.557 10.758-9.68 11.071a.11.11 0 0 0 .004.086l.042.038c.009.007.018.012.027.017l.035.012zm-.05-.014l.02.006-.02-.006zm5.83.469c-1.6-.001-3.196-.152-4.769-.45l-.738-.142L72 54.007l3.567 1.213c.026.009.055.007.079-.006s.043-.034.052-.061.007-.055-.006-.08-.034-.044-.06-.053l-3.371-1.147 4.59-2.334c.024-.013.042-.035.05-.061.005-.013.006-.027.005-.041s-.005-.027-.011-.039c-.012-.025-.034-.044-.06-.054s-.054-.006-.079.006l-9.404 4.781 1.202-3.663c.008-.026.006-.055-.006-.08s-.034-.044-.06-.053c-.013-.005-.026-.007-.04-.006s-.027.005-.039.011c-.024.013-.041.035-.05.061l-1.267 3.862-4.54 2.308.331-.686c1.034-2.14 3.998-7.402 9.156-10.024 5.622-2.855 12.096-1.722 13.947-1.307l.306.069-.13.29c-.785 1.755-3.784 7.702-9.409 10.562-2.688 1.29-5.633 1.933-8.604 1.878h.003zm-3.918-.824c2.617.413 7.764.787 12.292-1.514 5.199-2.642 8.102-8.016 9.041-10.022-2.143-.442-8.108-1.306-13.304 1.332-4.53 2.303-7.33 6.717-8.577 9.095l2.99-1.522 1.201-3.66c.025-.078.065-.149.118-.211s.117-.112.189-.148a.6.6 0 0 1 .465-.033c.076.026.146.066.207.12s.11.118.146.191a.63.63 0 0 1 .063.234c.006.081-.005.163-.03.24l-.815 2.482 8.31-4.224c.071-.037.149-.059.229-.064s.16.005.236.03a.6.6 0 0 1 .207.12c.061.054.11.119.145.192a.62.62 0 0 1 .063.233c.006.081-.005.163-.03.24a.62.62 0 0 1-.118.211.61.61 0 0 1-.189.148l-3.496 1.776 2.212.752c.153.052.28.165.352.312a.63.63 0 0 1 .033.474.62.62 0 0 1-.118.211.61.61 0 0 1-.189.148c-.072.037-.15.058-.23.064a.59.59 0 0 1-.236-.032l-3.368-1.145-7.799 3.97z"/></g></svg>