<svg xmlns="http://www.w3.org/2000/svg" width="100" height="100" fill="none"  xmlns:v="https://vecta.io/nano"><circle cx="50" cy="50" r="50" fill="#fff"/><g clip-path="url(#A)"><path d="M65.842 79c-.106 0-.213 0-.319-.106-16.478-8.557-29.979-.106-30.085 0-.319.211-.638.106-.85-.211s-.106-.634.213-.845c.106-.106 14.245-8.98 31.361 0 .319.211.425.528.319.845-.106.211-.319.317-.638.317z" fill="#01385e"/><path d="M23.957 28.924s1.382 22.608 14.883 24.193c14.458 1.69 14.352-14.579 10.737-19.016-6.91-8.346-25.62-5.177-25.62-5.177z" fill="#fbe7d6"/><path d="M76.58 44.137s-23.813-3.698-22.537 9.614c.319 3.275 2.232 6.233 5.209 7.607 4.252 1.796 12.119 2.218 17.328-17.22z" fill="#e6f7ff"/><path d="M27.784 64.104s6.804-6.973 12.757-5.177 4.996 7.501 2.445 9.931c-2.658 2.535-11.906.951-15.202-4.754z" fill="#fbc9bf"/><g fill="#01385e"><path d="M50.534 74.14c-.425 0-.638-.317-.638-.634.957-13.628-1.382-24.087-6.804-30.215-4.465-5.071-9.355-5.388-9.355-5.388-.319 0-.638-.317-.638-.634s.319-.634.638-.634c.213 0 5.528.423 10.312 5.811 5.634 6.444 8.079 16.904 7.123 31.06 0 .423-.319.634-.638.634z"/><path d="M50.747 74.985c-.425 0-.638-.317-.638-.74 1.063-10.353 4.04-17.537 8.717-21.129 3.614-2.852 7.016-2.43 7.123-2.43.319 0 .638.317.532.74 0 .317-.425.634-.744.528 0 0-2.977-.317-6.272 2.219-2.977 2.324-6.91 7.818-8.186 20.284.106.317-.213.528-.532.528zM40.541 54.068c-.638 0-1.382 0-2.126-.106C24.595 52.272 23.106 30.086 23 29.135c0-.317.213-.634.532-.634.744-.106 19.136-3.064 26.258 5.388 2.445 2.958 3.189 10.036.532 14.791-1.382 2.535-4.252 5.388-9.78 5.388zM24.276 29.663c.425 3.486 2.658 21.658 14.352 23.031 4.996.528 8.611-1.056 10.631-4.543 2.445-4.754 1.382-11.198-.532-13.417-5.847-7.184-21.262-5.494-24.451-5.071z"/><path d="M62.972 62.836c-1.276 0-2.658-.317-3.933-.845-3.083-1.373-5.209-4.543-5.634-8.135-.319-2.852.531-5.282 2.445-6.973 5.847-5.494 20.199-3.381 20.837-3.275.213 0 .319.106.425.317s.106.211.106.317c-2.551 9.614-6.166 15.636-10.631 17.643-1.169.634-2.339.951-3.615.951zm6.698-18.594c-4.465 0-9.993.634-12.97 3.381-1.595 1.479-2.232 3.486-2.02 5.916.319 3.169 2.126 5.916 4.89 7.078 2.232 1.056 4.465 1.056 6.485.106 3.933-1.902 7.229-7.29 9.674-16.164-1.063 0-3.402-.317-6.06-.317zM50.747 74.986c-.319 0-.532-.211-.638-.528-.851-3.909-2.658-6.656-5.315-8.346-3.827-2.324-8.292-1.268-8.292-1.268-.319.106-.638-.106-.744-.423s.106-.634.425-.74c.213 0 4.996-1.162 9.355 1.479 2.977 1.796 4.89 4.86 5.847 9.086.106.317-.106.634-.532.74h-.106z"/><path d="M39.053 70.865c-.532 0-1.169 0-1.701-.106-3.402-.423-7.867-2.324-10.099-6.128-.106-.211-.106-.528.106-.739.319-.317 7.229-7.184 13.395-5.388 3.189.951 4.359 2.958 4.678 4.437.532 2.219-.319 4.965-2.02 6.656-.957.845-2.445 1.268-4.359 1.268zM28.528 64.42c2.126 3.169 6.06 4.648 8.93 5.071 2.233.317 4.252 0 5.103-.845 1.382-1.373 2.126-3.592 1.701-5.388-.425-1.69-1.701-2.852-3.827-3.486-4.89-1.479-10.418 3.381-11.907 4.648zm14.883-21.129c-.319 0-.638-.211-.638-.528-.425-5.282-1.807-6.233-1.807-6.339-.319-.211-.319-.634-.213-.845.213-.317.532-.423.85-.211s1.913 1.373 2.445 7.29c.106.317-.213.634-.638.634h0zm-4.571 3.064c-1.913 0-2.764-.211-2.87-.211-.319-.106-.532-.423-.425-.739s.425-.528.744-.423c0 0 2.658.634 8.824-.317.319-.106.638.211.744.528s-.213.634-.532.739l-6.485.423zm18.073-20.284c.319-.211.744-.211.957 0 .213.317.213.739 0 .951l-3.721 3.486c-.319.211-.744.211-.957 0-.213-.317-.213-.739 0-.951l3.721-3.486z"/><path d="M57.019 25.86c.106-.106.213-.106.319-.106a.82.82 0 0 1 .532.211.7.7 0 0 1 0 1.056l-3.721 3.486c-.106.106-.319.211-.532.211a.82.82 0 0 1-.532-.211.8.8 0 0 1-.213-.528.8.8 0 0 1 .213-.528l3.721-3.486c.106 0 .213-.106.213-.106zm.744 1.056c.213-.211.213-.528 0-.845-.106-.106-.213-.211-.425-.211-.106 0-.319.106-.425.211l-3.721 3.486c-.106.106-.213.211-.213.423 0 .106.106.317.213.423s.213.211.425.211a.81.81 0 0 0 .425-.211l3.721-3.486zm3.402 6.128c.319-.106.744.106.851.423a.72.72 0 0 1-.425.845l-4.784 1.69c-.319.106-.744-.106-.851-.423a.72.72 0 0 1 .425-.845l4.784-1.69z"/><path d="M56.168 34.629h0l4.89-1.69c.425-.106.851.106.957.423.106.423-.106.845-.425.951l-4.784 1.69a.68.68 0 0 1-.638 0 .82.82 0 0 1-.425-.423c-.106-.317.106-.74.425-.951zm4.997-1.585l-4.784 1.69c-.106 0-.213.106-.319.317a.32.32 0 0 0 0 .422c0 .106.106.211.319.317.106.106.319.106.425 0l4.784-1.69c.213-.106.425-.422.319-.739-.106-.211-.425-.423-.744-.317zM50.534 21.212c.213.106.425.317.425.634 0 .106 0 .211-.106.211l-2.02 4.648c-.106.317-.532.528-.851.317s-.532-.528-.319-.845l2.02-4.648c.106-.317.532-.528.85-.317z"/><path d="M49.896 21.106c.213-.106.425-.106.638-.106.319.106.425.423.425.739 0 .106 0 .211-.106.317l-2.02 4.648c-.106.211-.213.317-.425.423a.68.68 0 0 1-.638 0c-.213-.106-.319-.211-.425-.423.106-.211.106-.423.213-.528l2.02-4.754.319-.317zm.638.106c-.319-.106-.638 0-.744.317l-2.02 4.649a.32.32 0 0 0 0 .423l.319.317c.106.106.319.106.425 0l.319-.317 2.02-4.543v-.211c0-.317-.106-.528-.319-.634z"/></g></g><defs><clipPath id="A"><path fill="#fff" transform="translate(23 21)" d="M0 0h54.217v58H0z"/></clipPath></defs></svg>