<svg width="72" height="72" viewBox="0 0 72 72" fill="none" xmlns="http://www.w3.org/2000/svg">
<path d="M17.6585 24.1561L15.0595 20.1217C14.9838 20.0289 14.8746 19.9697 14.7556 19.9569C14.6366 19.9442 14.5175 19.9788 14.4239 20.0534C14.3323 20.1299 14.2739 20.2389 14.2612 20.3575C14.2484 20.4761 14.2823 20.595 14.3555 20.6891L16.9544 24.7244C17.0301 24.817 17.1394 24.8761 17.2584 24.8887C17.3774 24.9013 17.4967 24.8665 17.5902 24.7919C17.6818 24.7154 17.74 24.6064 17.7527 24.4878C17.7654 24.3692 17.7318 24.2503 17.6585 24.1561Z" fill="#4B4B4B" stroke="#4B4B4B" stroke-width="0.3"/>
<path d="M12.8628 29.559L8.32827 27.9862C7.77843 27.796 7.44648 28.6365 7.99632 28.8297L12.5309 30.4026C13.0799 30.5928 13.4127 29.7523 12.8628 29.559Z" fill="#4B4B4B" stroke="#4B4B4B" stroke-width="0.3"/>
<path d="M14.9379 26.2404L11.1496 23.2926C10.6895 22.9345 10.1527 23.663 10.6128 24.0204L14.4003 26.9682C14.8605 27.3263 15.3972 26.5978 14.9371 26.2404H14.9379Z" fill="#4B4B4B" stroke="#4B4B4B" stroke-width="0.3"/>
<path d="M65.22 29.5697C65.2194 29.0964 65.0312 28.6426 64.6965 28.308C64.3619 27.9733 63.9081 27.785 63.4348 27.7844H61.1702V16.5253H61.3542C61.8201 16.5239 62.2666 16.3381 62.5961 16.0087C62.9255 15.6792 63.1112 15.2328 63.1126 14.7668C63.1112 14.3009 62.9255 13.8545 62.5961 13.525C62.2666 13.1956 61.8201 13.0098 61.3542 13.0084H52.3113C51.8454 13.0098 51.399 13.1956 51.0695 13.525C50.74 13.8545 50.5544 14.3009 50.5529 14.7668C50.5544 15.2328 50.74 15.6792 51.0695 16.0087C51.399 16.3381 51.8454 16.5239 52.3113 16.5253H52.4954V27.7844H46.352V16.5253H46.5361C47.002 16.5239 47.4485 16.3381 47.7779 16.0087C48.1074 15.6792 48.2931 15.2328 48.2945 14.7668C48.2931 14.3009 48.1074 13.8545 47.7779 13.525C47.4485 13.1956 47.002 13.0098 46.5361 13.0084H37.4932C37.0273 13.0098 36.5808 13.1956 36.2513 13.525C35.9219 13.8545 35.7362 14.3009 35.7348 14.7668C35.7362 15.2328 35.9219 15.6792 36.2513 16.0087C36.5808 16.3381 37.0273 16.5239 37.4932 16.5253H37.6772V27.7844H31.5339V16.5253H31.7179C32.1838 16.5239 32.6303 16.3381 32.9598 16.0087C33.2892 15.6792 33.4749 15.2328 33.4763 14.7668C33.4749 14.3009 33.2892 13.8545 32.9598 13.525C32.6303 13.1956 32.1838 13.0098 31.7179 13.0084H22.6758C22.2099 13.0098 21.7634 13.1956 21.4339 13.525C21.1045 13.8545 20.9188 14.3009 20.9174 14.7668C20.9188 15.2328 21.1045 15.6792 21.4339 16.0087C21.7634 16.3381 22.2099 16.5239 22.6758 16.5253H22.8598V27.7844H20.5969C20.1236 27.785 19.6699 27.9733 19.3354 28.308C19.0008 28.6427 18.8127 29.0964 18.8123 29.5697V55.5104C18.8122 55.5573 18.8213 55.6038 18.8392 55.6471C18.8571 55.6905 18.8834 55.7299 18.9165 55.7631C18.9497 55.7963 18.9889 55.8226 19.0322 55.8406C19.0756 55.8586 19.122 55.8678 19.1689 55.8678H22.2364L22.7555 58.6991C22.7705 58.7813 22.8138 58.8557 22.878 58.9093C22.9422 58.9628 23.0232 58.9921 23.1068 58.992H26.9136C26.9971 58.992 27.078 58.9626 27.1422 58.9091C27.2064 58.8556 27.2498 58.7813 27.2648 58.6991L27.784 55.8678H56.2346L56.7538 58.6991C56.7687 58.7813 56.812 58.8557 56.8762 58.9093C56.9404 58.9628 57.0214 58.9921 57.105 58.992H60.9111C60.9947 58.9921 61.0755 58.9628 61.1397 58.9093C61.2039 58.8557 61.2474 58.7813 61.2623 58.6991L61.7815 55.8678H64.8542C64.9011 55.8679 64.9476 55.8587 64.991 55.8408C65.0344 55.8229 65.0739 55.7966 65.1071 55.7634C65.1403 55.7302 65.1667 55.6907 65.1846 55.6473C65.2025 55.6039 65.2117 55.5574 65.2116 55.5104L65.22 29.5697ZM53.2093 30.3411C53.368 30.3886 53.5182 30.4611 53.6541 30.5559C53.9986 30.8059 54.4149 30.9375 54.8405 30.9309C55.2664 30.9376 55.6828 30.806 56.0275 30.5559C56.2577 30.38 56.541 30.2878 56.8305 30.2944C57.1202 30.288 57.4033 30.3805 57.6333 30.5566C57.9786 30.8061 58.3953 30.9373 58.8213 30.9309C59.2472 30.9373 59.6639 30.8061 60.0092 30.5566C60.1456 30.4615 60.2963 30.3888 60.4555 30.3411V39.305C60.4545 40.2656 60.0724 41.1865 59.3932 41.8658C58.7141 42.5451 57.7933 42.9272 56.8328 42.9285C55.8721 42.9274 54.9511 42.5454 54.2718 41.8661C53.5924 41.1868 53.2103 40.2657 53.2093 39.305V30.3411ZM51.2668 14.7676C51.2672 14.4906 51.3775 14.225 51.5735 14.0292C51.7694 13.8334 52.0351 13.7234 52.3121 13.7231H61.355C61.6319 13.7236 61.8974 13.8337 62.0932 14.0295C62.289 14.2253 62.3991 14.4907 62.3995 14.7676C62.3991 15.0445 62.289 15.3099 62.0932 15.5057C61.8974 15.7015 61.6319 15.8117 61.355 15.8121H52.3121C52.0349 15.8119 51.7693 15.7017 51.5733 15.5057C51.3773 15.3097 51.267 15.044 51.2668 14.7668V14.7676ZM60.4563 16.526V28.1349C60.4563 28.1349 60.4563 28.1395 60.4563 28.1418C60.4563 28.1441 60.4563 28.1464 60.4563 28.1487V29.6057C60.157 29.658 59.8731 29.7761 59.625 29.9516C59.395 30.1278 59.1117 30.2203 58.822 30.2138C58.5323 30.2203 58.2492 30.1278 58.0192 29.9516C57.674 29.7019 57.2572 29.5706 56.8313 29.5773C56.4055 29.5706 55.989 29.7019 55.6441 29.9516C55.4143 30.1276 55.1315 30.2202 54.842 30.2138C54.5526 30.2202 54.2696 30.1276 54.0398 29.9516C53.7925 29.7758 53.5091 29.6577 53.2102 29.6057V28.1487C53.2102 28.1487 53.2102 28.1433 53.2102 28.1402C53.2102 28.1372 53.2102 28.1349 53.2102 28.1318V16.5253L60.4563 16.526ZM38.3928 30.3411C38.5516 30.3884 38.7017 30.4609 38.8375 30.5559C39.182 30.8058 39.5983 30.9374 40.0239 30.9309C40.45 30.9375 40.8668 30.8059 41.2118 30.5559C41.4419 30.3799 41.725 30.2876 42.0146 30.2944C42.3043 30.2881 42.5875 30.3806 42.8176 30.5566C43.1629 30.8062 43.5794 30.9375 44.0054 30.9309C44.4316 30.9375 44.8485 30.8062 45.1941 30.5566C45.3304 30.4614 45.4811 30.3887 45.6404 30.3411V39.305C45.6394 40.2657 45.2572 41.1868 44.5779 41.8661C43.8986 42.5454 42.9776 42.9274 42.0169 42.9285C41.0562 42.9274 40.1352 42.5454 39.4559 41.8661C38.7765 41.1868 38.3946 40.2657 38.3935 39.305L38.3928 30.3411ZM36.4502 14.7676C36.4506 14.4907 36.5609 14.2253 36.7567 14.0295C36.9524 13.8337 37.2178 13.7236 37.4947 13.7231H46.5376C46.8145 13.7234 47.0801 13.8334 47.276 14.0293C47.4718 14.2251 47.5819 14.4907 47.5821 14.7676C47.5819 15.0446 47.4718 15.3101 47.276 15.5059C47.0801 15.7018 46.8145 15.8119 46.5376 15.8121H37.4947C37.2175 15.8119 36.9519 15.7017 36.7559 15.5057C36.5599 15.3097 36.4496 15.044 36.4494 14.7668L36.4502 14.7676ZM45.6389 16.526V29.6088C45.3396 29.6611 45.0557 29.7792 44.8076 29.9546C44.5773 30.1309 44.2938 30.2234 44.0039 30.2169C43.7142 30.2233 43.4311 30.1308 43.2011 29.9546C42.8559 29.705 42.4391 29.5737 42.0131 29.5804C41.5874 29.5735 41.1708 29.7048 40.826 29.9546C40.5959 30.1308 40.3128 30.2233 40.0231 30.2169C39.7339 30.2233 39.4511 30.1308 39.2216 29.9546C38.9741 29.7793 38.6908 29.6611 38.3921 29.6088V28.1517C38.3921 28.1517 38.3921 28.1471 38.3921 28.1448C38.3921 28.1425 38.3921 28.1402 38.3921 28.1379V16.5253L45.6389 16.526ZM23.5747 30.3411C23.7334 30.3887 23.8834 30.4611 24.0193 30.5559C24.364 30.806 24.7806 30.9376 25.2065 30.9309C25.6323 30.9376 26.049 30.806 26.3937 30.5559C26.6238 30.38 26.9069 30.2878 27.1965 30.2944C27.4861 30.288 27.7694 30.3805 27.9995 30.5566C28.3448 30.8061 28.7613 30.9374 29.1872 30.9309C29.6134 30.9375 30.0304 30.8062 30.3759 30.5566C30.5123 30.4615 30.6629 30.3887 30.8222 30.3411V39.305C30.8212 40.2656 30.4393 41.1865 29.7601 41.8658C29.081 42.5451 28.16 42.9272 27.1995 42.9285C26.2388 42.9274 25.3178 42.5454 24.6385 41.8661C23.9591 41.1868 23.5772 40.2657 23.5761 39.305L23.5747 30.3411ZM21.632 14.7676C21.6324 14.4906 21.7427 14.225 21.9387 14.0292C22.1346 13.8334 22.4003 13.7234 22.6773 13.7231H31.7194C31.9963 13.7236 32.2619 13.8337 32.4576 14.0295C32.6534 14.2253 32.7635 14.4907 32.7639 14.7676C32.7635 15.0445 32.6534 15.3099 32.4576 15.5057C32.2619 15.7015 31.9963 15.8117 31.7194 15.8121H22.6773C22.4 15.8121 22.1341 15.702 21.9379 15.506C21.7418 15.31 21.6315 15.0441 21.6313 14.7668L21.632 14.7676ZM30.8215 16.526V29.6088C30.5222 29.661 30.2383 29.7792 29.9902 29.9546C29.7602 30.1308 29.4769 30.2233 29.1872 30.2169C28.8975 30.2234 28.6144 30.1309 28.3844 29.9546C28.0392 29.7049 27.6225 29.5736 27.1965 29.5804C26.7705 29.5736 26.3537 29.7049 26.0086 29.9546C25.7788 30.1308 25.4959 30.2233 25.2065 30.2169C24.917 30.2234 24.6339 30.1309 24.4042 29.9546C24.1568 29.779 23.8735 29.6609 23.5747 29.6088V16.526H30.8215ZM26.6213 58.2781H23.4097L22.9673 55.8686H27.0637L26.6213 58.2781ZM60.6235 58.2781H57.4119L56.97 55.8686H61.0659L60.6235 58.2781ZM64.5069 55.1546H19.5278V29.5697C19.5278 29.4287 19.5557 29.2891 19.6096 29.1588C19.6636 29.0286 19.7427 28.9102 19.8424 28.8105C19.9421 28.7108 20.0603 28.6317 20.1906 28.5778C20.3208 28.5238 20.4604 28.496 20.6014 28.496H22.8645V39.302C22.8657 40.4519 23.323 41.5545 24.1361 42.3676C24.9493 43.1808 26.0519 43.6381 27.2019 43.6393C28.3519 43.6381 29.4543 43.1808 30.2675 42.3676C31.0807 41.5545 31.5381 40.4519 31.5393 39.302V28.4984H37.6819V39.3043C37.6831 40.4542 38.1404 41.5568 38.9535 42.3699C39.7667 43.1831 40.8693 43.6404 42.0193 43.6417C43.1693 43.6404 44.2717 43.1831 45.0849 42.3699C45.8981 41.5568 46.3555 40.4542 46.3567 39.3043V28.4984H52.5001V39.3043C52.5013 40.4542 52.9585 41.5568 53.7717 42.3699C54.5848 43.1831 55.6875 43.6404 56.8375 43.6417C57.9874 43.6404 59.0899 43.1831 59.903 42.3699C60.7162 41.5568 61.1736 40.4542 61.1749 39.3043V28.4984H63.4393C63.7241 28.4984 63.9972 28.6115 64.1985 28.8128C64.3999 29.0141 64.5129 29.2872 64.5129 29.572L64.5069 55.1546Z" fill="#4B4B4B" stroke="#4B4B4B" stroke-width="0.3"/>
<path d="M60.9202 59.1421H57.1134C56.9948 59.142 56.8799 59.1004 56.7888 59.0244C56.6976 58.9485 56.6357 58.8431 56.6141 58.7265L56.1179 56.0187H27.915L27.4181 58.7265C27.3969 58.8433 27.3353 58.9489 27.2442 59.025C27.1531 59.1011 27.0382 59.1428 26.9196 59.1429H23.1122C22.9934 59.143 22.8782 59.1014 22.787 59.0253C22.6957 58.9492 22.6341 58.8434 22.6129 58.7265L22.116 56.0187H19.1711C19.0366 56.0185 18.9076 55.9649 18.8124 55.8698C18.7173 55.7746 18.6638 55.6456 18.6636 55.511V29.5695C18.6642 29.0563 18.8682 28.5644 19.231 28.2015C19.5939 27.8386 20.0859 27.6345 20.5991 27.6339H22.711V16.6762H22.6773C22.171 16.6756 21.6857 16.4742 21.3278 16.1162C20.9698 15.7582 20.7684 15.2729 20.7678 14.7667C20.7682 14.2604 20.9696 13.7749 21.3276 13.4169C21.6856 13.0589 22.171 12.8576 22.6773 12.8572H31.7201C32.2264 12.8576 32.712 13.0589 33.07 13.4169C33.428 13.7749 33.6292 14.2604 33.6296 14.7667C33.6292 15.273 33.428 15.7584 33.07 16.1164C32.712 16.4745 32.2264 16.6758 31.7201 16.6762H31.6872V27.6339H37.5291V16.6762H37.4962C36.9899 16.6756 36.5046 16.4742 36.1467 16.1162C35.7887 15.7582 35.5873 15.2729 35.5867 14.7667C35.5873 14.2604 35.7887 13.7751 36.1467 13.4171C36.5046 13.0592 36.9899 12.8578 37.4962 12.8572H46.5383C47.0445 12.8578 47.5298 13.0592 47.8878 13.4171C48.2458 13.7751 48.4472 14.2604 48.4478 14.7667C48.4472 15.2729 48.2458 15.7582 47.8878 16.1162C47.5298 16.4742 47.0445 16.6756 46.5383 16.6762H46.5053V27.6339H52.3473V16.6762H52.3136C51.8073 16.6756 51.322 16.4742 50.9641 16.1162C50.6061 15.7582 50.4047 15.2729 50.4041 14.7667C50.4045 14.2604 50.6059 13.7749 50.9639 13.4169C51.3219 13.0589 51.8073 12.8576 52.3136 12.8572H61.3564C61.8626 12.8578 62.3479 13.0592 62.7058 13.4172C63.0636 13.7752 63.2648 14.2605 63.2652 14.7667C63.2648 15.2728 63.0636 15.7582 62.7058 16.1162C62.3479 16.4742 61.8626 16.6756 61.3564 16.6762H61.3227V27.6339H63.4371C63.9503 27.6343 64.4424 27.8383 64.8055 28.2012C65.1685 28.5641 65.3727 29.0562 65.3733 29.5695V55.511C65.3731 55.6456 65.3196 55.7746 65.2245 55.8698C65.1293 55.9649 65.0001 56.0185 64.8656 56.0187H61.9187L61.4216 58.7265C61.3999 58.8435 61.3378 58.9492 61.2462 59.0252C61.1545 59.1011 61.0392 59.1425 60.9202 59.1421ZM27.6626 55.7173H56.3681L56.9103 58.672C56.919 58.7194 56.9441 58.7621 56.981 58.7929C57.018 58.8238 57.0645 58.8407 57.1127 58.8408H60.9193C60.9675 58.8406 61.0143 58.8236 61.0513 58.7926C61.0883 58.7617 61.1132 58.7187 61.1219 58.6713L61.6641 55.7165H64.8626C64.9173 55.7165 64.9697 55.6948 65.0084 55.6561C65.0471 55.6174 65.0689 55.565 65.0689 55.5102V29.5695C65.0683 29.1361 64.8957 28.7207 64.5892 28.4143C64.2827 28.108 63.8672 27.9357 63.4339 27.9353H61.0183V16.3748H61.3534C61.7806 16.3748 62.1901 16.2051 62.4921 15.9031C62.7942 15.6011 62.9638 15.1915 62.9638 14.7644C62.9638 14.3373 62.7942 13.9276 62.4921 13.6256C62.1901 13.3236 61.7806 13.1539 61.3534 13.1539H52.3106C51.8835 13.1539 51.4737 13.3236 51.1717 13.6256C50.8697 13.9276 50.7001 14.3373 50.7001 14.7644C50.7001 15.1915 50.8697 15.6011 51.1717 15.9031C51.4737 16.2051 51.8835 16.3748 52.3106 16.3748H52.645V27.9353H46.2032V16.3748H46.5375C46.9647 16.3748 47.3742 16.2051 47.6762 15.9031C47.9782 15.6011 48.148 15.1915 48.148 14.7644C48.148 14.3373 47.9782 13.9276 47.6762 13.6256C47.3742 13.3236 46.9647 13.1539 46.5375 13.1539H37.4954C37.0683 13.1539 36.6587 13.3236 36.3567 13.6256C36.0547 13.9276 35.8851 14.3373 35.8851 14.7644C35.8851 15.1915 36.0547 15.6011 36.3567 15.9031C36.6587 16.2051 37.0683 16.3748 37.4954 16.3748H37.8305V27.9353H31.3889V16.3748H31.7233C32.1504 16.3748 32.56 16.2051 32.862 15.9031C33.164 15.6011 33.3336 15.1915 33.3336 14.7644C33.3336 14.3373 33.164 13.9276 32.862 13.6256C32.56 13.3236 32.1504 13.1539 31.7233 13.1539H22.6803C22.2532 13.1539 21.8436 13.3236 21.5416 13.6256C21.2396 13.9276 21.07 14.3373 21.07 14.7644C21.07 15.1915 21.2396 15.6011 21.5416 15.9031C21.8436 16.2051 22.2532 16.3748 22.6803 16.3748H23.0154V27.9353H20.6021C20.1688 27.9357 19.7535 28.108 19.4471 28.4144C19.1407 28.7208 18.9684 29.1362 18.968 29.5695V55.511C18.968 55.5657 18.9896 55.6182 19.0283 55.6569C19.067 55.6956 19.1196 55.7173 19.1743 55.7173H22.3698L22.9119 58.672C22.9208 58.7193 22.9459 58.762 22.9828 58.7928C23.0198 58.8235 23.0663 58.8405 23.1144 58.8408H26.9218C26.9699 58.8405 27.0165 58.8235 27.0534 58.7928C27.0904 58.762 27.1155 58.7193 27.1244 58.672L27.6626 55.7173ZM60.7483 58.4282H57.2851L56.7874 55.7173H61.2452L60.7483 58.4282ZM57.5367 58.1268H60.4977L60.8811 56.0187H57.1464L57.5367 58.1268ZM26.7462 58.4282H23.2839L22.7862 55.7173H27.244L26.7462 58.4282ZM23.5346 58.1268H26.4955L26.8789 56.0187H23.1444L23.5346 58.1268ZM64.657 55.3047H19.3767V29.5695C19.3781 29.2459 19.5072 28.936 19.736 28.7072C19.9648 28.4784 20.2748 28.3493 20.5983 28.3479H23.0116V39.3048C23.0129 40.4148 23.4543 41.4788 24.2391 42.2637C25.0239 43.0485 26.088 43.49 27.198 43.4912C28.3078 43.4898 29.3719 43.0482 30.1566 42.2635C30.9414 41.4787 31.3828 40.4147 31.3843 39.3048V28.3479H37.8259V39.3048C37.8271 40.4148 38.2687 41.4788 39.0535 42.2637C39.8383 43.0485 40.9025 43.49 42.0124 43.4912C43.1223 43.49 44.1862 43.0485 44.971 42.2637C45.7559 41.4788 46.1975 40.4148 46.1987 39.3048V28.3479H52.6403V39.3048C52.6415 40.4149 53.0831 41.4791 53.8681 42.264C54.6531 43.0488 55.7173 43.4902 56.8273 43.4912C57.9372 43.49 59.0014 43.0485 59.7862 42.2637C60.571 41.4788 61.0124 40.4148 61.0136 39.3048V28.3479H63.4294C63.7529 28.3493 64.0627 28.4784 64.2915 28.7072C64.5203 28.936 64.6496 29.2459 64.651 29.5695L64.657 55.3047ZM19.6781 55.0034H64.3565V29.5695C64.3565 29.3254 64.2595 29.0913 64.0869 28.9188C63.9143 28.7462 63.6804 28.6492 63.4363 28.6492H61.322V39.3048C61.3206 40.4946 60.8473 41.6353 60.006 42.4766C59.1647 43.3179 58.024 43.7911 56.8343 43.7925C55.6445 43.7911 54.5038 43.3179 53.6625 42.4766C52.8212 41.6353 52.3479 40.4946 52.3465 39.3048V28.6492H46.5046V39.3048C46.5032 40.4948 46.0299 41.6355 45.1884 42.4768C44.3469 43.3181 43.206 43.7913 42.0161 43.7925C40.8263 43.7911 39.6857 43.3179 38.8444 42.4766C38.0031 41.6353 37.5298 40.4946 37.5284 39.3048V28.6492H31.6864V39.3048C31.685 40.4946 31.2118 41.6353 30.3705 42.4766C29.5292 43.3179 28.3885 43.7911 27.1987 43.7925C26.0089 43.7911 24.8683 43.3179 24.027 42.4766C23.1857 41.6353 22.7124 40.4946 22.711 39.3048V28.6492H20.5991C20.355 28.6492 20.1209 28.7462 19.9483 28.9188C19.7757 29.0913 19.6789 29.3254 19.6789 29.5695L19.6781 55.0034ZM56.8335 43.0786C55.8329 43.0776 54.8736 42.6797 54.166 41.9722C53.4583 41.2647 53.0601 40.3055 53.0589 39.3048V30.1431L53.2499 30.1952C53.4231 30.2456 53.5873 30.3233 53.7361 30.4253C54.0565 30.6598 54.445 30.7829 54.842 30.7758C55.239 30.7827 55.6272 30.6596 55.9478 30.4253C56.2018 30.233 56.5135 30.1322 56.832 30.1393C57.1502 30.1324 57.4613 30.2329 57.7153 30.4245C58.0362 30.6594 58.4252 30.7828 58.8228 30.7758C59.2197 30.7826 59.608 30.6596 59.9285 30.4253C60.0781 30.3232 60.2431 30.2455 60.4171 30.1952L60.6072 30.1431V39.3041C60.606 40.3046 60.2081 41.2637 59.5007 41.9712C58.7932 42.6786 57.834 43.0766 56.8335 43.0778V43.0786ZM53.3603 30.5587V39.301C53.3613 40.2218 53.7277 41.1045 54.3788 41.7555C55.03 42.4065 55.9128 42.7726 56.8335 42.7734C57.7541 42.7724 58.6367 42.4062 59.2876 41.7552C59.9386 41.1042 60.3049 40.2216 60.3059 39.301V30.558C60.2323 30.5953 60.1609 30.6368 60.0919 30.6822C59.7223 30.9471 59.2775 31.0869 58.8228 31.081C58.3683 31.087 57.9238 30.9475 57.5543 30.683C57.3484 30.5222 57.0932 30.4379 56.832 30.4445C56.5712 30.4377 56.316 30.5217 56.1103 30.6822C55.741 30.9473 55.2966 31.0871 54.842 31.081C54.3877 31.0871 53.9433 30.9473 53.5743 30.6822C53.5054 30.637 53.4339 30.5958 53.3603 30.5587ZM42.0154 43.0786C41.0149 43.0774 40.0556 42.6794 39.3482 41.9719C38.6407 41.2645 38.2429 40.3053 38.2417 39.3048V30.1431L38.4317 30.1952C38.605 30.2456 38.7691 30.3233 38.9179 30.4253C39.2381 30.6598 39.6264 30.7829 40.0231 30.7758C40.4201 30.7826 40.8083 30.6596 41.1289 30.4253C41.3828 30.2329 41.6945 30.132 42.0131 30.1393C42.3315 30.1322 42.6429 30.2327 42.8972 30.4245C43.2182 30.6591 43.6071 30.7825 44.0046 30.7758C44.4018 30.7826 44.7903 30.6596 45.1111 30.4253C45.2604 30.3232 45.4252 30.2455 45.599 30.1952L45.789 30.1431V39.3041C45.7878 40.3046 45.3898 41.2637 44.6824 41.9712C43.9749 42.6786 43.0158 43.0766 42.0154 43.0778V43.0786ZM38.5422 30.5587V39.301C38.5434 40.2217 38.9098 41.1043 39.5609 41.7553C40.212 42.4062 41.0947 42.7724 42.0154 42.7734C42.936 42.7724 43.8185 42.4062 44.4695 41.7552C45.1205 41.1042 45.4868 40.2216 45.4878 39.301V30.558C45.4139 30.5953 45.3422 30.6368 45.273 30.6822C44.9033 30.9468 44.4585 31.0863 44.0039 31.0802C43.5494 31.0862 43.1049 30.9468 42.7354 30.6822C42.5293 30.5213 42.2738 30.437 42.0124 30.4437C41.7518 30.4369 41.4968 30.5209 41.2914 30.6814C40.922 30.9464 40.4777 31.0862 40.0231 31.0802C39.5688 31.0864 39.1244 30.9466 38.7554 30.6814C38.6869 30.6365 38.6159 30.5952 38.5429 30.558L38.5422 30.5587ZM27.198 43.0786C26.1975 43.0774 25.2382 42.6794 24.5308 41.9719C23.8233 41.2645 23.4255 40.3053 23.4243 39.3048V30.1431L23.6153 30.1952C23.7885 30.2457 23.9524 30.3234 24.1013 30.4253C24.4215 30.6597 24.8097 30.7828 25.2065 30.7758C25.6037 30.7829 25.9922 30.6598 26.313 30.4253C26.5667 30.2329 26.8781 30.1321 27.1965 30.1393C27.5149 30.1321 27.8265 30.2326 28.0807 30.4245C28.4017 30.6591 28.7904 30.7825 29.1879 30.7758C29.5852 30.7828 29.9739 30.6597 30.2946 30.4253C30.4443 30.3232 30.6091 30.2456 30.7831 30.1952L30.9733 30.1431V39.3041C30.9721 40.3048 30.5739 41.2642 29.8661 41.9717C29.1583 42.6792 28.1987 43.077 27.198 43.0778V43.0786ZM23.7255 30.5587V39.301C23.7265 40.2216 24.0929 41.1042 24.7438 41.7552C25.3948 42.4062 26.2773 42.7724 27.198 42.7734C28.1186 42.7724 29.0013 42.4062 29.6523 41.7552C30.3032 41.1042 30.6694 40.2216 30.6704 39.301V30.558C30.5968 30.5953 30.5253 30.6368 30.4564 30.6822C30.0866 30.9468 29.6419 31.0862 29.1872 31.0802C28.7327 31.0864 28.2882 30.947 27.9188 30.6822C27.7126 30.5213 27.4571 30.4371 27.1957 30.4437C26.9351 30.4369 26.6803 30.521 26.4749 30.6814C26.1056 30.9466 25.661 31.0863 25.2065 31.0802C24.7519 31.0863 24.3073 30.9466 23.938 30.6814C23.8695 30.6367 23.7985 30.5957 23.7255 30.5587ZM58.822 30.367C58.5034 30.3744 58.1917 30.2735 57.9377 30.081C57.617 29.8465 57.2285 29.7235 56.8313 29.7305C56.4339 29.7236 56.0452 29.8469 55.7246 30.0818C55.4707 30.2737 55.1595 30.3742 54.8413 30.367C54.5236 30.374 54.2127 30.2735 53.9593 30.0818C53.7286 29.9175 53.4643 29.8067 53.1855 29.7574L53.0589 29.7374V16.3748H60.6064V29.7344L60.4799 29.7543C60.2012 29.8037 59.9371 29.9143 59.7063 30.0779C59.4527 30.2714 59.1409 30.3733 58.822 30.367ZM56.8281 29.4291C57.2825 29.4234 57.7269 29.5628 58.0965 29.8272C58.302 29.9887 58.5575 30.0734 58.8188 30.0664C59.0794 30.0731 59.3343 29.989 59.5398 29.8287C59.7704 29.6679 60.0288 29.5514 60.302 29.4851V16.6785H53.3573V29.4851C53.6298 29.551 53.8875 29.6673 54.1173 29.8279C54.3227 29.9884 54.5775 30.0724 54.8381 30.0656C55.0987 30.0724 55.3535 29.9884 55.5589 29.8279C55.9292 29.5617 56.3753 29.4214 56.8313 29.4276L56.8281 29.4291ZM44.0016 30.367C43.6828 30.3743 43.3708 30.2735 43.1166 30.081C42.7959 29.8464 42.4072 29.7234 42.0099 29.7305C41.6128 29.7235 41.2245 29.8469 40.9042 30.0818C40.6503 30.2737 40.3389 30.3742 40.0207 30.367C39.703 30.374 39.3923 30.2735 39.1389 30.0818C38.9084 29.9171 38.644 29.806 38.3651 29.7566L38.2385 29.7367V16.3748H45.7868V29.7344L45.6602 29.7543C45.3812 29.8039 45.1167 29.9146 44.8857 30.0787C44.6327 30.2711 44.3224 30.3727 44.0046 30.367H44.0016ZM42.0077 29.4291C42.4624 29.423 42.9071 29.5625 43.2769 29.8272C43.4827 29.9881 43.738 30.0724 43.9992 30.0656C44.2601 30.0724 44.5154 29.9881 44.7209 29.8272C44.9515 29.667 45.2096 29.5508 45.4824 29.4844V16.6777H38.5368V29.4844C38.8095 29.5505 39.0677 29.667 39.2976 29.8279C39.5028 29.9883 39.7573 30.0724 40.0177 30.0656C40.2783 30.0724 40.5331 29.9884 40.7385 29.8279C41.1093 29.561 41.5563 29.4206 42.0131 29.4276L42.0077 29.4291ZM29.181 30.367C28.8624 30.3743 28.5509 30.2735 28.297 30.081C27.9763 29.8464 27.5875 29.7234 27.1903 29.7305C26.7932 29.7234 26.4047 29.8468 26.0845 30.0818C25.8303 30.2737 25.5187 30.3742 25.2003 30.367C24.8823 30.3741 24.5712 30.2736 24.3175 30.0818C24.0872 29.9175 23.8232 29.8067 23.5447 29.7574L23.4181 29.7374V16.3748H30.9656V29.7344L30.8391 29.7543C30.5604 29.8041 30.2961 29.9149 30.0653 30.0787C29.813 30.2706 29.5034 30.3722 29.1865 30.367H29.181ZM27.1873 29.4291C27.6416 29.4231 28.0858 29.5622 28.4555 29.8264C28.6614 29.9879 28.9172 30.0725 29.1788 30.0656C29.4394 30.0724 29.6942 29.9884 29.8996 29.8279C30.1304 29.6674 30.3889 29.551 30.662 29.4844V16.6777H23.7171V29.4844C23.9896 29.5503 24.2473 29.6665 24.477 29.8272C24.6822 29.9875 24.937 30.0716 25.1973 30.0649C25.4579 30.0716 25.7126 29.9876 25.9181 29.8272C26.2899 29.56 26.7379 29.4198 27.1957 29.4276L27.1873 29.4291ZM61.3465 15.963H52.3036C51.9867 15.9626 51.6828 15.8365 51.4587 15.6124C51.2346 15.3882 51.1084 15.0844 51.108 14.7674C51.1084 14.4505 51.2346 14.1466 51.4587 13.9225C51.6828 13.6984 51.9867 13.5723 52.3036 13.5719H61.3465C61.6634 13.5723 61.9671 13.6984 62.1911 13.9225C62.4151 14.1467 62.541 14.4506 62.5412 14.7674C62.5406 15.0827 62.4158 15.385 62.1937 15.6086C61.9716 15.8323 61.6702 15.9594 61.3549 15.9622L61.3465 15.963ZM52.3036 13.8733C52.0666 13.8735 51.8392 13.9677 51.6716 14.1354C51.5039 14.303 51.4097 14.5304 51.4095 14.7674C51.4097 15.0045 51.5039 15.2318 51.6716 15.3995C51.8392 15.5671 52.0666 15.6614 52.3036 15.6616H61.3465C61.5835 15.6612 61.8105 15.5668 61.978 15.3992C62.1455 15.2316 62.2397 15.0044 62.2399 14.7674C62.2397 14.5305 62.1455 14.3033 61.978 14.1357C61.8105 13.968 61.5835 13.8737 61.3465 13.8733H52.3036ZM46.5284 15.963H37.4862C37.1693 15.9626 36.8654 15.8365 36.6413 15.6124C36.4172 15.3882 36.291 15.0844 36.2906 14.7674C36.291 14.4505 36.4172 14.1466 36.6413 13.9225C36.8654 13.6984 37.1693 13.5723 37.4862 13.5719H46.5284C46.8454 13.5721 47.1493 13.6981 47.3735 13.9223C47.5977 14.1464 47.7238 14.4504 47.724 14.7674C47.7234 15.0828 47.5982 15.3852 47.3759 15.6089C47.1537 15.8326 46.8522 15.9596 46.5368 15.9622L46.5284 15.963ZM37.4862 13.8733C37.2492 13.8735 37.0218 13.9677 36.8542 14.1354C36.6865 14.303 36.5923 14.5304 36.5921 14.7674C36.5923 15.0045 36.6865 15.2318 36.8542 15.3995C37.0218 15.5671 37.2492 15.6614 37.4862 15.6616H46.5284C46.7655 15.6614 46.9928 15.5671 47.1604 15.3995C47.3281 15.2318 47.4223 15.0045 47.4225 14.7674C47.4223 14.5304 47.3281 14.303 47.1604 14.1354C46.9928 13.9677 46.7655 13.8735 46.5284 13.8733H37.4862ZM31.711 15.963H22.6681C22.3511 15.9626 22.0473 15.8365 21.8232 15.6124C21.599 15.3882 21.4729 15.0844 21.4725 14.7674C21.4727 14.4504 21.5988 14.1464 21.823 13.9223C22.0471 13.6981 22.3511 13.5721 22.6681 13.5719H31.711C32.0279 13.5723 32.3318 13.6984 32.5559 13.9225C32.78 14.1466 32.9062 14.4505 32.9066 14.7674C32.906 15.0828 32.7808 15.3852 32.5585 15.6089C32.3362 15.8326 32.0347 15.9596 31.7194 15.9622L31.711 15.963ZM22.6681 13.8733C22.431 13.8735 22.2037 13.9677 22.036 14.1354C21.8684 14.303 21.7741 14.5304 21.7739 14.7674C21.7741 15.0045 21.8684 15.2318 22.036 15.3995C22.2037 15.5671 22.431 15.6614 22.6681 15.6616H31.711C31.9481 15.6614 32.1754 15.5671 32.343 15.3995C32.5107 15.2318 32.6049 15.0045 32.6051 14.7674C32.6049 14.5304 32.5107 14.303 32.343 14.1354C32.1754 13.9677 31.9481 13.8735 31.711 13.8733H22.6681Z" fill="#4B4B4B" stroke="#4B4B4B" stroke-width="0.3"/>
<path d="M61.4929 52.5371H57.1892V51.1989C57.8048 51.0941 58.3625 50.7724 58.7615 50.292C59.1605 49.8117 59.3745 49.2044 59.3647 48.5801C59.3647 47.2051 57.3158 45.156 57.0819 44.9267C57.0151 44.8613 56.9253 44.8247 56.8318 44.8247C56.7383 44.8247 56.6486 44.8613 56.5819 44.9267C56.3518 45.1568 54.2996 47.2043 54.2996 48.5801C54.2898 49.2044 54.5038 49.8117 54.9028 50.292C55.3019 50.7724 55.8597 51.0941 56.4753 51.1989V52.5371H42.3718V51.1989C42.9874 51.0941 43.5453 50.7724 43.9443 50.292C44.3433 49.8117 44.5571 49.2044 44.5473 48.5801C44.5473 47.2051 42.4984 45.156 42.2645 44.9267C42.1977 44.8613 42.1079 44.8247 42.0144 44.8247C41.9209 44.8247 41.8312 44.8613 41.7645 44.9267C41.5344 45.1568 39.4815 47.2043 39.4815 48.5801C39.4717 49.2044 39.6857 49.8117 40.0847 50.292C40.4837 50.7724 41.0416 51.0941 41.6572 51.1989V52.5371H27.5576V51.1989C28.1732 51.0941 28.7309 50.7724 29.1299 50.292C29.5289 49.8117 29.7429 49.2044 29.7331 48.5801C29.7331 47.2051 27.684 45.156 27.4501 44.9267C27.3832 44.8615 27.2936 44.825 27.2002 44.825C27.1068 44.825 27.0171 44.8615 26.9502 44.9267C26.7202 45.1568 24.668 47.2043 24.668 48.5801C24.6582 49.2044 24.8722 49.8117 25.2712 50.292C25.6703 50.7724 26.2279 51.0941 26.8435 51.1989V52.5371H22.5408C22.4939 52.537 22.4473 52.5461 22.4039 52.564C22.3605 52.5819 22.3212 52.6081 22.288 52.6413C22.2548 52.6744 22.2285 52.7137 22.2105 52.757C22.1925 52.8004 22.1834 52.8468 22.1834 52.8937C22.1832 52.9406 22.1924 52.9872 22.2103 53.0306C22.2282 53.074 22.2546 53.1134 22.2878 53.1466C22.321 53.1798 22.3603 53.2061 22.4037 53.2241C22.4471 53.242 22.4938 53.2511 22.5408 53.251H61.4974C61.5922 53.251 61.6831 53.2134 61.7502 53.1464C61.8172 53.0794 61.8548 52.9885 61.8548 52.8937C61.8548 52.8464 61.8454 52.7996 61.8271 52.756C61.8088 52.7124 61.7822 52.6728 61.7485 52.6396C61.7148 52.6064 61.6748 52.5803 61.6309 52.5627C61.587 52.5451 61.5402 52.5364 61.4929 52.5371ZM55.0137 48.5801C55.0137 47.7794 56.1638 46.3999 56.8333 45.6913C57.6216 46.521 58.6509 47.8485 58.6509 48.5801C58.6651 49.0773 58.4818 49.56 58.1411 49.9225C57.8003 50.2849 57.3298 50.4977 56.8326 50.5141C56.3347 50.4985 55.8634 50.286 55.522 49.9233C55.1805 49.5606 54.9968 49.0772 55.0112 48.5793L55.0137 48.5801ZM40.1963 48.5801C40.1963 47.7794 41.3466 46.3999 42.0161 45.6913C42.8052 46.521 43.8342 47.8485 43.8342 48.5801C43.8485 49.0775 43.6651 49.5603 43.3242 49.9227C42.9833 50.2852 42.5125 50.4979 42.0152 50.5141C41.5177 50.4977 41.0472 50.2849 40.7063 49.9223C40.3654 49.5597 40.182 49.0768 40.1963 48.5793V48.5801ZM25.3789 48.5801C25.3789 47.7794 26.5292 46.3999 27.1987 45.6913C27.987 46.521 29.0161 47.8485 29.0161 48.5801C29.0303 49.0773 28.847 49.56 28.5063 49.9225C28.1655 50.2849 27.6952 50.4977 27.1979 50.5141C26.7004 50.4979 26.2296 50.2851 25.8887 49.9225C25.5477 49.5598 25.3644 49.0768 25.3789 48.5793V48.5801Z" fill="#4B4B4B" stroke="#4B4B4B" stroke-width="0.3"/>
<path d="M61.4926 53.4005H22.5358C22.4012 53.4003 22.2723 53.3467 22.1771 53.2516C22.0819 53.1564 22.0283 53.0274 22.0281 52.8928C22.0283 52.7582 22.0819 52.6292 22.1771 52.5341C22.2723 52.4389 22.4012 52.3853 22.5358 52.3851H26.6884V51.3238C26.0662 51.1848 25.5105 50.8364 25.1144 50.3368C24.7184 49.8372 24.506 49.2167 24.5127 48.5792C24.5127 47.1735 26.4515 45.1996 26.8403 44.8215C26.9356 44.7292 27.0629 44.6776 27.1956 44.6776C27.3283 44.6776 27.4559 44.7292 27.5512 44.8215C27.94 45.205 29.8785 47.1773 29.8785 48.5792C29.8852 49.2167 29.6728 49.8372 29.2768 50.3368C28.8808 50.8364 28.3252 51.1848 27.703 51.3238V52.3851H41.5066V51.3238C40.8843 51.1849 40.3286 50.8364 39.9324 50.3368C39.5362 49.8372 39.3236 49.2167 39.3301 48.5792C39.3301 47.1735 41.2696 45.1996 41.6584 44.8215C41.7538 44.7294 41.8811 44.6779 42.0138 44.6779C42.1464 44.6779 42.2739 44.7294 42.3693 44.8215C42.7581 45.205 44.6967 47.1773 44.6967 48.5792C44.7034 49.2167 44.491 49.8372 44.0949 50.3368C43.6989 50.8364 43.1434 51.1848 42.5211 51.3238V52.3851H56.3247V51.3238C55.7026 51.1847 55.1469 50.8362 54.7509 50.3366C54.3549 49.8371 54.1424 49.2166 54.149 48.5792C54.149 47.1735 56.0878 45.1996 56.4766 44.8215C56.572 44.7291 56.6995 44.6775 56.8323 44.6775C56.9651 44.6775 57.0928 44.7291 57.1882 44.8215C57.577 45.205 59.5156 47.1773 59.5156 48.5792C59.5223 49.2166 59.3101 49.837 58.9142 50.3366C58.5183 50.8362 57.9629 51.1847 57.3408 51.3238V52.3851H61.4934C61.628 52.3853 61.757 52.4389 61.8521 52.5341C61.9473 52.6292 62.0008 52.7582 62.001 52.8928C62.0008 53.0275 61.9471 53.1566 61.8517 53.2518C61.7564 53.347 61.6274 53.4005 61.4926 53.4005ZM22.5358 52.6865C22.4811 52.6865 22.4287 52.7083 22.39 52.7469C22.3513 52.7856 22.3295 52.8381 22.3295 52.8928C22.3297 52.9474 22.3515 52.9998 22.3902 53.0385C22.4288 53.0771 22.4812 53.0989 22.5358 53.0991H61.4926C61.5474 53.0991 61.5998 53.0774 61.6385 53.0387C61.6772 53 61.6988 52.9475 61.6988 52.8928C61.6988 52.8381 61.6772 52.7856 61.6385 52.7469C61.5998 52.7083 61.5474 52.6865 61.4926 52.6865H57.0386V51.0669L57.1667 51.0477C57.7457 50.9468 58.2699 50.6427 58.645 50.1901C59.0201 49.7376 59.2216 49.1662 59.2134 48.5784C59.2134 47.2656 57.205 45.2571 56.9757 45.0324C56.9369 44.9949 56.8851 44.9739 56.8312 44.9739C56.7772 44.9739 56.7254 44.9949 56.6866 45.0324C56.4566 45.2571 54.4497 47.2656 54.4497 48.5784C54.4415 49.1663 54.6432 49.7378 55.0185 50.1904C55.3937 50.6429 55.918 50.9469 56.4972 51.0477L56.6252 51.0669V52.6865H42.2205V51.0669L42.3485 51.0477C42.9276 50.9468 43.4517 50.6427 43.8268 50.1901C44.202 49.7376 44.4034 49.1662 44.3952 48.5784C44.3952 47.2656 42.3869 45.2571 42.1576 45.0324C42.1189 44.9949 42.0672 44.974 42.0134 44.974C41.9596 44.974 41.9079 44.9949 41.8692 45.0324C41.6392 45.2571 39.6308 47.2656 39.6308 48.5784C39.6226 49.1663 39.8243 49.7378 40.1996 50.1904C40.5748 50.6429 41.0991 50.9469 41.6783 51.0477L41.8071 51.0669V52.6865H27.407V51.0669L27.5358 51.0477C28.1149 50.9468 28.639 50.6427 29.0141 50.1901C29.3892 49.7376 29.5907 49.1662 29.5825 48.5784C29.5825 47.2656 27.5741 45.2571 27.3448 45.0324C27.3061 44.9949 27.2543 44.9739 27.2003 44.9739C27.1463 44.9739 27.0945 44.9949 27.0558 45.0324C26.8257 45.2571 24.8181 47.2656 24.8181 48.5784C24.8099 49.1662 25.0114 49.7376 25.3865 50.1901C25.7616 50.6427 26.2857 50.9468 26.8648 51.0477L26.9936 51.0669V52.6865H22.5358ZM56.8308 50.6635C56.2936 50.6473 55.7847 50.4188 55.4156 50.0281C55.0465 49.6375 54.8471 49.1164 54.8614 48.5792C54.8614 47.6252 56.2855 46.0485 56.7226 45.5884L56.8315 45.4726L56.9413 45.5877C57.7986 46.4895 58.8009 47.8116 58.8009 48.5784C58.8154 49.1157 58.6163 49.6368 58.2473 50.0276C57.8784 50.4184 57.3695 50.6471 56.8323 50.6635H56.8308ZM56.8308 45.909C56.0371 46.7671 55.1621 47.9373 55.1621 48.5777C55.148 49.035 55.3155 49.4792 55.6281 49.8133C55.9406 50.1474 56.3728 50.3442 56.83 50.3606C57.2873 50.3442 57.7195 50.1474 58.032 49.8133C58.3446 49.4792 58.5121 49.035 58.498 48.5777C58.5003 47.9764 57.6559 46.8001 56.833 45.9105L56.8308 45.909ZM42.0126 50.6635C41.4754 50.6473 40.9665 50.4188 40.5972 50.0282C40.228 49.6375 40.0285 49.1165 40.0425 48.5792C40.0425 47.6252 41.4673 46.0485 41.9037 45.5884L42.0126 45.4726L42.1224 45.5877C42.9805 46.4903 43.982 47.8116 43.982 48.5784C43.9965 49.1154 43.7976 49.6363 43.429 50.0271C43.0604 50.4179 42.5518 50.6467 42.0149 50.6635H42.0126ZM42.0126 45.909C41.2189 46.7671 40.3432 47.9366 40.3432 48.5777C40.3291 49.0351 40.4968 49.4795 40.8096 49.8136C41.1223 50.1477 41.5545 50.3444 42.0119 50.3606C42.4691 50.3442 42.9013 50.1474 43.2139 49.8133C43.5264 49.4792 43.6939 49.035 43.6799 48.5777C43.6829 47.9764 42.8385 46.8001 42.0156 45.9105L42.0126 45.909ZM27.1945 50.6635C26.6572 50.6473 26.1483 50.4188 25.7791 50.0282C25.4099 49.6375 25.2103 49.1165 25.2243 48.5792C25.2243 47.6252 26.6484 46.0485 27.0855 45.5884L27.1945 45.4726L27.3042 45.5877C28.1623 46.4895 29.1639 47.8116 29.1639 48.5784C29.1784 49.1153 28.9795 49.6361 28.611 50.0268C28.2426 50.4176 27.7343 50.6465 27.1975 50.6635H27.1945ZM27.1945 45.909C26.4008 46.7671 25.5258 47.9373 25.5258 48.5777C25.5117 49.0351 25.6794 49.4795 25.9922 49.8136C26.3049 50.1477 26.7371 50.3444 27.1945 50.3606C27.6518 50.3444 28.0841 50.1477 28.3967 49.8135C28.7093 49.4794 28.8768 49.035 28.8625 48.5777C28.864 47.9764 28.0203 46.8001 27.1982 45.9105L27.1945 45.909Z" fill="#4B4B4B" stroke="#4B4B4B" stroke-width="0.3"/>
<path d="M27.5545 49.3279C27.5545 49.281 27.5453 49.2346 27.5273 49.1912C27.5093 49.1479 27.483 49.1086 27.4498 49.0754C27.4166 49.0423 27.3771 49.0161 27.3337 48.9982C27.2904 48.9803 27.2439 48.9712 27.197 48.9713C27.0536 48.9713 26.9264 48.7987 26.9211 48.594C26.9187 48.501 26.88 48.4126 26.8134 48.3478C26.7468 48.2829 26.6574 48.2466 26.5644 48.2466H26.5545C26.5076 48.2478 26.4614 48.2582 26.4186 48.2773C26.3757 48.2964 26.337 48.3237 26.3047 48.3578C26.2725 48.3918 26.2472 48.4319 26.2304 48.4757C26.2137 48.5196 26.2057 48.5663 26.207 48.6132C26.1988 48.886 26.2979 49.1512 26.483 49.3519C26.6681 49.5526 26.9244 49.6729 27.197 49.6868C27.2441 49.6869 27.2908 49.6776 27.3343 49.6596C27.3778 49.6416 27.4173 49.6152 27.4505 49.5818C27.4838 49.5484 27.51 49.5088 27.5279 49.4652C27.5457 49.4216 27.5548 49.375 27.5545 49.3279Z" fill="#4B4B4B" stroke="#4B4B4B" stroke-width="0.3"/>
<path d="M27.1978 49.833C26.8862 49.8194 26.5922 49.6844 26.3789 49.4567C26.1656 49.2291 26.05 48.927 26.0567 48.6152C26.0532 48.4805 26.1032 48.3499 26.1958 48.2521C26.2883 48.1542 26.4159 48.097 26.5506 48.0929C26.6852 48.0894 26.8156 48.1395 26.9134 48.2321C27.0112 48.3246 27.0682 48.4522 27.072 48.5868C27.0758 48.7279 27.1572 48.8169 27.1978 48.8169C27.3324 48.8171 27.4614 48.8706 27.5565 48.9658C27.6517 49.061 27.7053 49.19 27.7055 49.3245C27.7055 49.4593 27.6521 49.5885 27.5569 49.6838C27.4617 49.7791 27.3325 49.8328 27.1978 49.833ZM26.5652 48.3943C26.5376 48.3944 26.5103 48.4 26.4849 48.4108C26.4594 48.4216 26.4364 48.4373 26.4171 48.4571C26.3978 48.4769 26.3826 48.5003 26.3725 48.526C26.3624 48.5517 26.3575 48.5791 26.3581 48.6068C26.3499 48.84 26.433 49.0672 26.5899 49.2399C26.7467 49.4127 26.9649 49.5173 27.1978 49.5316C27.2525 49.5316 27.305 49.5099 27.3436 49.4712C27.3823 49.4325 27.4041 49.38 27.4041 49.3253C27.4041 49.2982 27.3988 49.2714 27.3884 49.2464C27.378 49.2213 27.3628 49.1986 27.3436 49.1794C27.3245 49.1603 27.3018 49.1451 27.2768 49.1347C27.2518 49.1244 27.2249 49.119 27.1978 49.119C27.0735 49.102 26.9603 49.0385 26.881 48.9413C26.8017 48.8441 26.7624 48.7204 26.7707 48.5952C26.7691 48.5419 26.7468 48.4912 26.7084 48.4541C26.67 48.417 26.6186 48.3964 26.5652 48.3966V48.3943Z" fill="#4B4B4B" stroke="#4B4B4B" stroke-width="0.3"/>
<path d="M42.3728 49.3273C42.3728 49.2804 42.3635 49.234 42.3455 49.1907C42.3275 49.1474 42.3012 49.108 42.268 49.0749C42.2348 49.0418 42.1955 49.0155 42.1521 48.9977C42.1088 48.9798 42.0623 48.9706 42.0154 48.9707C41.8713 48.9707 41.7446 48.7982 41.7393 48.5934C41.7359 48.499 41.6957 48.4098 41.6271 48.3448C41.5586 48.2798 41.4673 48.2444 41.3729 48.246C41.326 48.2472 41.2796 48.2577 41.2368 48.2768C41.1939 48.2958 41.1554 48.3232 41.1231 48.3572C41.0909 48.3913 41.0656 48.4314 41.0488 48.4752C41.032 48.519 41.0241 48.5657 41.0254 48.6126C41.017 48.8854 41.1159 49.1506 41.3008 49.3513C41.4857 49.5521 41.7421 49.6723 42.0147 49.6862C42.0618 49.6864 42.1085 49.6773 42.1521 49.6593C42.1957 49.6413 42.2353 49.6149 42.2686 49.5815C42.3019 49.5481 42.3284 49.5085 42.3463 49.4649C42.3641 49.4212 42.3731 49.3745 42.3728 49.3273Z" fill="#4B4B4B" stroke="#4B4B4B" stroke-width="0.3"/>
<path d="M42.0162 49.8328C41.7046 49.8193 41.4108 49.6842 41.1976 49.4566C40.9845 49.2289 40.8689 48.9268 40.8758 48.615C40.8723 48.4805 40.9221 48.35 41.0145 48.2522C41.1069 48.1543 41.2344 48.097 41.3689 48.0928C41.503 48.0913 41.6324 48.142 41.7299 48.2341C41.8273 48.3263 41.8851 48.4527 41.8911 48.5867C41.8911 48.7278 41.9755 48.8167 42.0162 48.8167C42.1507 48.8169 42.2797 48.8705 42.3749 48.9657C42.47 49.0608 42.5235 49.1898 42.5237 49.3244C42.5237 49.4591 42.4704 49.5883 42.3753 49.6836C42.2801 49.779 42.1509 49.8326 42.0162 49.8328ZM41.3712 48.3942C41.3175 48.3974 41.2674 48.4213 41.2311 48.461C41.1949 48.5007 41.1755 48.5529 41.1772 48.6066C41.1686 48.8398 41.2515 49.0671 41.4082 49.2399C41.565 49.4128 41.7832 49.5174 42.0162 49.5315C42.0709 49.5315 42.1236 49.5097 42.1624 49.4711C42.2012 49.4324 42.223 49.38 42.2232 49.3252C42.2232 49.298 42.2179 49.2711 42.2075 49.2461C42.1971 49.221 42.1818 49.1982 42.1626 49.179C42.1433 49.1599 42.1205 49.1447 42.0954 49.1344C42.0702 49.1241 42.0433 49.1188 42.0162 49.1189C41.8918 49.1019 41.7785 49.0382 41.6994 48.9408C41.6202 48.8434 41.5811 48.7196 41.5899 48.5944C41.5863 48.5393 41.5614 48.4878 41.5204 48.4508C41.4794 48.4139 41.4256 48.3944 41.3704 48.3965L41.3712 48.3942Z" fill="#4B4B4B" stroke="#4B4B4B" stroke-width="0.3"/>
<path d="M57.1893 49.3279C57.1893 49.281 57.1801 49.2346 57.1621 49.1912C57.1441 49.1479 57.1178 49.1086 57.0846 49.0754C57.0514 49.0423 57.0121 49.0161 56.9687 48.9982C56.9254 48.9803 56.8789 48.9712 56.832 48.9713C56.6879 48.9713 56.5613 48.7987 56.5559 48.594C56.5533 48.5011 56.5146 48.4128 56.448 48.348C56.3815 48.2831 56.2922 48.2467 56.1992 48.2466H56.1893C56.1425 48.2479 56.0963 48.2584 56.0536 48.2775C56.0108 48.2966 55.9723 48.324 55.9401 48.3581C55.9079 48.3921 55.8827 48.4321 55.866 48.4759C55.8493 48.5197 55.8414 48.5663 55.8428 48.6132C55.8346 48.886 55.9336 49.1512 56.1187 49.3519C56.3038 49.5526 56.5601 49.6729 56.8328 49.6868C56.8798 49.6867 56.9263 49.6773 56.9697 49.6592C57.013 49.6411 57.0524 49.6146 57.0855 49.5813C57.1187 49.548 57.1449 49.5084 57.1627 49.4649C57.1805 49.4214 57.1895 49.3749 57.1893 49.3279Z" fill="#4B4B4B" stroke="#4B4B4B" stroke-width="0.3"/>
<path d="M56.8328 49.833C56.5212 49.8194 56.2272 49.6844 56.0139 49.4567C55.8006 49.2291 55.685 48.927 55.6917 48.6152C55.6882 48.4806 55.738 48.3502 55.8304 48.2523C55.9228 48.1545 56.0501 48.0972 56.1846 48.0929C56.3192 48.0894 56.4499 48.1395 56.5477 48.2321C56.6454 48.3246 56.7024 48.4522 56.7062 48.5868C56.7062 48.7279 56.7912 48.8169 56.8319 48.8169C56.9665 48.8171 57.0956 48.8706 57.1908 48.9658C57.2859 49.061 57.3394 49.19 57.3396 49.3245C57.3396 49.4591 57.2864 49.5882 57.1913 49.6835C57.0963 49.7788 56.9674 49.8326 56.8328 49.833ZM56.2 48.3943C56.1724 48.3945 56.1452 48.4002 56.1199 48.411C56.0945 48.4218 56.0717 48.4376 56.0525 48.4574C56.0333 48.4771 56.0182 48.5005 56.0081 48.5262C55.998 48.5518 55.9933 48.5792 55.9939 48.6068C55.9856 48.84 56.0688 49.0672 56.2256 49.2399C56.3825 49.4127 56.6006 49.5173 56.8336 49.5316C56.8883 49.5316 56.9407 49.5099 56.9794 49.4712C57.0181 49.4325 57.0397 49.38 57.0397 49.3253C57.0397 49.2982 57.0345 49.2714 57.0242 49.2464C57.0138 49.2213 56.9986 49.1986 56.9794 49.1794C56.9602 49.1603 56.9374 49.1451 56.9124 49.1347C56.8873 49.1244 56.8606 49.119 56.8336 49.119C56.7093 49.102 56.5961 49.0385 56.5168 48.9413C56.4375 48.8441 56.398 48.7204 56.4063 48.5952C56.4045 48.5418 56.3819 48.4912 56.3434 48.4541C56.3049 48.417 56.2535 48.3964 56.2 48.3966V48.3943Z" fill="#4B4B4B" stroke="#4B4B4B" stroke-width="0.3"/>
</svg>
