<svg width="72" height="72" viewBox="0 0 72 72" fill="none" xmlns="http://www.w3.org/2000/svg">
<path d="M38.1306 48.942C37.9414 46.397 37.7706 43.0294 37.5821 40.4863C37.5164 39.8484 37.7594 39.0194 37.3193 38.6915C36.9409 38.3696 36.1308 38.5733 35.4712 38.5391C35.1868 38.5424 35.0271 38.5581 35.0245 38.905C34.7755 42.0387 34.4871 45.8944 34.2362 49.0281C34.2069 49.1441 34.2042 49.2652 34.2282 49.3824C34.2522 49.4996 34.3022 49.6099 34.3747 49.705C34.4472 49.8002 34.5401 49.8779 34.6467 49.9322C34.7533 49.9865 34.8708 50.0161 34.9904 50.0188C35.7754 50.0654 36.6288 50.0556 37.4139 50.1016C37.494 50.1058 37.5741 50.092 37.6482 50.0611C37.7224 50.0303 37.7886 49.9833 37.8422 49.9235C37.9705 49.7985 38.0645 49.6425 38.115 49.4705C38.1655 49.2986 38.1709 49.1166 38.1306 48.942ZM42.6144 22.9213C41.5688 21.6851 40.1816 20.7851 38.6267 20.3341C37.0717 19.8831 35.4182 19.9011 33.8735 20.3859C32.3288 20.8707 30.9615 21.8008 29.9432 23.0594C28.9248 24.318 28.3006 25.8493 28.1489 27.4612C27.9972 29.0731 28.3247 30.6939 29.0904 32.1205C29.856 33.547 31.0258 34.7158 32.4529 35.4803C33.8801 36.2448 35.5011 36.5711 37.1129 36.4181C38.7247 36.2651 40.2555 35.6397 41.5133 34.6204C43.2081 33.2131 44.2758 31.1913 44.4822 28.9981C44.6886 26.8049 44.0169 24.6193 42.6144 22.9206V22.9213ZM38.2443 50.9734C37.225 51.0809 36.1981 51.095 35.1763 51.0154C34.8959 51.0486 34.6117 51.0152 34.3467 50.9178C34.0818 50.8204 33.8436 50.6618 33.6515 50.4549C33.4594 50.248 33.3189 49.9987 33.2413 49.7273C33.1638 49.4558 33.1515 49.1699 33.2054 48.8927C33.4025 46.2597 33.6311 43.6608 33.8624 40.9994C33.9024 40.2768 33.9714 39.5889 34.0457 38.8387C34.0706 38.5884 33.9767 38.2632 34.4267 38.1817C34.7177 38.116 34.3321 37.2252 34.1449 37.2061C31.8539 36.5799 29.8656 35.1484 28.5449 33.1744C27.3326 31.3521 26.8074 29.1583 27.0629 26.9845C27.3184 24.8108 28.3382 22.7986 29.9401 21.3071C31.5419 19.8157 33.6217 18.942 35.8082 18.8421C37.9946 18.7423 40.1454 19.4227 41.8766 20.7618C43.2888 21.8152 44.3723 23.2483 45.0009 24.8941C45.6294 26.5399 45.777 28.3305 45.4265 30.057C45.0759 31.7835 44.2417 33.3747 43.0211 34.6451C41.8005 35.9155 40.2438 36.8126 38.5327 37.2317C38.3356 37.2758 37.7043 38.2546 38.2955 38.3453C38.4834 38.3637 38.396 38.6081 38.4118 38.7671C38.6746 42.1727 38.9058 45.5436 39.1673 48.9499C39.1862 49.4989 39.0557 50.0427 38.7896 50.5233L38.2443 50.9734Z" fill="#4B4B4B" stroke="#424242" stroke-width="0.4"/>
<path d="M33.8165 22.1408C33.7988 22.124 33.7852 22.1035 33.7765 22.0807C33.7679 22.058 33.7645 22.0336 33.7665 22.0094C33.7302 21.8966 33.7388 21.7741 33.7906 21.6675C33.8424 21.5608 33.9333 21.4784 34.0444 21.4372C35.4531 20.9496 36.9777 20.9069 38.4114 21.315C39.8451 21.7232 41.1186 22.5623 42.0593 23.7188C42.1287 23.8105 42.1599 23.9255 42.1463 24.0397C42.1327 24.154 42.0754 24.2585 41.9864 24.3313C41.8974 24.4042 41.7836 24.4397 41.6689 24.4305C41.5543 24.4213 41.4477 24.3679 41.3715 24.2818C40.5469 23.2657 39.4289 22.5289 38.1699 22.1719C36.911 21.8149 35.5726 21.8552 34.3374 22.2873C34.2454 22.3113 34.1486 22.3104 34.0571 22.2847C33.9655 22.2589 33.8825 22.2093 33.8165 22.1408Z" fill="#4B4B4B" stroke="#424242" stroke-width="0.4"/>
<path d="M40.4886 33.7957C40.4482 33.7521 40.4176 33.7004 40.3987 33.6441C40.3798 33.5878 40.3731 33.5281 40.379 33.469C40.3849 33.4098 40.4033 33.3526 40.4329 33.3012C40.4626 33.2497 40.5028 33.2051 40.551 33.1703C41.742 32.1912 42.5316 30.8084 42.7695 29.285C42.7794 29.228 42.8004 29.1734 42.8313 29.1244C42.8622 29.0755 42.9025 29.0331 42.9498 28.9997C42.9971 28.9663 43.0505 28.9425 43.107 28.9298C43.1635 28.917 43.222 28.9155 43.279 28.9254C43.3361 28.9352 43.3906 28.9562 43.4396 28.9871C43.4886 29.018 43.531 29.0583 43.5644 29.1056C43.5978 29.1529 43.6215 29.2063 43.6343 29.2628C43.647 29.3193 43.6485 29.3778 43.6387 29.4348C43.3863 31.1782 42.4969 32.7662 41.1423 33.8923C41.0391 33.9549 40.9174 33.9795 40.798 33.9618C40.6787 33.9442 40.5692 33.8855 40.4886 33.7957Z" fill="#4B4B4B" stroke="#424242" stroke-width="0.4"/>
<path d="M45.784 20.2676C45.7437 20.224 45.713 20.1724 45.6941 20.116C45.6753 20.0597 45.6685 20 45.6744 19.9409C45.6803 19.8818 45.6987 19.8246 45.7284 19.7731C45.758 19.7216 45.7982 19.677 45.8464 19.6422L48.2535 17.6713C48.3447 17.5967 48.4619 17.5613 48.5791 17.573C48.6964 17.5847 48.8043 17.6425 48.8789 17.7337C48.9536 17.825 48.989 17.9421 48.9772 18.0594C48.9655 18.1767 48.9077 18.2845 48.8165 18.3592L46.4094 20.33C46.3181 20.4044 46.201 20.4396 46.0838 20.4279C45.9666 20.4162 45.8588 20.3586 45.784 20.2676Z" fill="#4B4B4B" stroke="#424242" stroke-width="0.4"/>
<path d="M23.0538 38.8831C23.0134 38.8395 22.9828 38.7878 22.9639 38.7315C22.945 38.6751 22.9383 38.6154 22.9442 38.5563C22.9501 38.4972 22.9685 38.44 22.9981 38.3885C23.0278 38.3371 23.068 38.2924 23.1162 38.2577L25.5233 36.2868C25.6145 36.2121 25.7316 36.1768 25.8489 36.1885C25.9662 36.2002 26.074 36.258 26.1487 36.3492C26.2233 36.4404 26.2587 36.5575 26.247 36.6748C26.2353 36.7921 26.1775 36.9 26.0863 36.9746L23.6792 38.9455C23.6356 38.9858 23.5839 39.0165 23.5276 39.0354C23.4712 39.0542 23.4115 39.0609 23.3524 39.055C23.2933 39.0491 23.2361 39.0308 23.1846 39.0012C23.1332 38.9715 23.0885 38.9312 23.0538 38.8831Z" fill="#4B4B4B" stroke="#424242" stroke-width="0.4"/>
<path d="M48.8253 30.0133C48.7866 29.9687 48.7582 29.9162 48.7419 29.8595C48.7257 29.8027 48.7221 29.7431 48.7313 29.6848C48.7357 29.6268 48.7518 29.5703 48.7786 29.5186C48.8055 29.467 48.8426 29.4214 48.8876 29.3845C48.9326 29.3477 48.9847 29.3203 49.0406 29.3042C49.0965 29.2881 49.1551 29.2835 49.2129 29.2906L52.3058 29.6296C52.3645 29.6339 52.4217 29.6498 52.474 29.6765C52.5264 29.7032 52.5729 29.7401 52.6108 29.7851C52.6487 29.8301 52.6772 29.8821 52.6946 29.9383C52.712 29.9945 52.718 30.0535 52.7122 30.112C52.7064 30.1706 52.689 30.2273 52.6609 30.2789C52.6328 30.3306 52.5946 30.3761 52.5487 30.4128C52.5027 30.4494 52.4499 30.4765 52.3933 30.4924C52.3366 30.5083 52.2774 30.5127 52.2191 30.5054L49.1261 30.1664C49.0106 30.1535 48.9037 30.0991 48.8253 30.0133Z" fill="#4B4B4B" stroke="#424242" stroke-width="0.4"/>
<path d="M19.3842 26.895C19.3459 26.8509 19.3177 26.7989 19.3015 26.7428C19.2853 26.6866 19.2814 26.6276 19.2903 26.5698C19.2946 26.5118 19.3107 26.4553 19.3376 26.4036C19.3645 26.352 19.4015 26.3064 19.4466 26.2696C19.4916 26.2327 19.5437 26.2054 19.5996 26.1892C19.6555 26.1731 19.7141 26.1685 19.7718 26.1757L22.8648 26.5153C22.9788 26.5295 23.0828 26.5876 23.1546 26.6774C23.2263 26.7672 23.2601 26.8815 23.2486 26.9958C23.2372 27.1102 23.1816 27.2156 23.0935 27.2894C23.0055 27.3632 22.892 27.3997 22.7774 27.391L19.6845 27.0521C19.5686 27.0379 19.4619 26.9821 19.3842 26.895Z" fill="#4B4B4B" stroke="#424242" stroke-width="0.4"/>
<path d="M46.0886 41.3314L44.1177 38.9244C44.0483 38.8326 44.0171 38.7175 44.0307 38.6033C44.0443 38.4891 44.1016 38.3846 44.1906 38.3118C44.2796 38.2389 44.3934 38.2034 44.5081 38.2126C44.6227 38.2219 44.7294 38.2751 44.8056 38.3613L46.7764 40.7684C46.8161 40.8132 46.8462 40.8656 46.8652 40.9224C46.8841 40.9791 46.8914 41.0391 46.8866 41.0988C46.8817 41.1584 46.8649 41.2165 46.8372 41.2695C46.8094 41.3225 46.7712 41.3693 46.7249 41.4072C46.6786 41.4451 46.6252 41.4732 46.5677 41.49C46.5103 41.5067 46.4501 41.5117 46.3906 41.5047C46.3312 41.4976 46.2739 41.4786 46.222 41.4489C46.1701 41.4191 46.1247 41.3791 46.0886 41.3314Z" fill="#4B4B4B" stroke="#424242" stroke-width="0.4"/>
<path d="M27.1914 18.2594L25.2205 15.8523C25.1511 15.7606 25.1199 15.6456 25.1335 15.5313C25.1471 15.4171 25.2044 15.3126 25.2934 15.2398C25.3824 15.1669 25.4962 15.1314 25.6109 15.1406C25.7255 15.1498 25.8321 15.2031 25.9083 15.2893L27.8792 17.6964C27.9508 17.7879 27.9837 17.9039 27.971 18.0194C27.9582 18.1349 27.9007 18.2408 27.8108 18.3144C27.7209 18.3881 27.6058 18.4236 27.49 18.4135C27.3742 18.4033 27.267 18.3483 27.1914 18.2601V18.2594Z" fill="#4B4B4B" stroke="#424242" stroke-width="0.4"/>
<path d="M36.8568 15.4027C36.8186 15.3585 36.7904 15.3065 36.7742 15.2504C36.758 15.1943 36.7541 15.1353 36.7629 15.0775L37.0395 11.978C37.0439 11.9194 37.06 11.8624 37.0868 11.8102C37.1136 11.758 37.1506 11.7117 37.1955 11.674C37.2405 11.6363 37.2926 11.6079 37.3486 11.5906C37.4047 11.5733 37.4637 11.5674 37.5221 11.5732C37.5805 11.579 37.6371 11.5965 37.6887 11.6245C37.7402 11.6526 37.7857 11.6906 37.8223 11.7365C37.8589 11.7823 37.886 11.8351 37.902 11.8916C37.9179 11.948 37.9224 12.0071 37.9152 12.0653L37.6386 15.1649C37.6343 15.2229 37.6182 15.2795 37.5913 15.3311C37.5644 15.3827 37.5274 15.4283 37.4823 15.4652C37.4373 15.502 37.3852 15.5293 37.3293 15.5455C37.2734 15.5616 37.2148 15.5663 37.1571 15.5591C37.0978 15.5609 37.0391 15.5474 36.9865 15.5201C36.934 15.4927 36.8893 15.4523 36.8568 15.4027Z" fill="#4B4B4B" stroke="#424242" stroke-width="0.4"/>
<path d="M31.6476 55.6538L30.0953 59.6106C30.0678 59.713 30.0819 59.8222 30.1344 59.9143C30.1869 60.0064 30.2736 60.0741 30.3758 60.1027C30.4781 60.1282 30.5864 60.1133 30.678 60.0611C30.7697 60.0088 30.8377 59.9232 30.8678 59.8222L32.4202 55.8653C32.4475 55.7629 32.4334 55.6538 32.3809 55.5618C32.3284 55.4697 32.2417 55.402 32.1397 55.3733C32.0374 55.3477 31.9293 55.3627 31.8377 55.4149C31.7462 55.4672 31.6783 55.5527 31.6483 55.6538H31.6476Z" fill="#4B4B4B" stroke="black" stroke-width="0.3"/>
<path d="M38.015 56.2976L39.2336 60.3708C39.3814 60.8635 40.158 60.6677 40.0095 60.1737L38.7908 56.1005C38.6437 55.6078 37.8671 55.8042 38.015 56.2976Z" fill="#4B4B4B" stroke="black" stroke-width="0.3"/>
<path d="M34.5539 56.5276L34.3982 60.7755C34.4011 60.879 34.444 60.9773 34.5179 61.0499C34.5918 61.1225 34.6909 61.1637 34.7945 61.1648C34.8981 61.1659 34.998 61.1269 35.0735 61.0559C35.1489 60.9849 35.1939 60.8874 35.199 60.784L35.3547 56.5367C35.3519 56.4332 35.3091 56.3348 35.2352 56.2621C35.1614 56.1895 35.0623 56.1482 34.9587 56.147C34.8552 56.1458 34.7551 56.1848 34.6797 56.2557C34.6042 56.3267 34.5591 56.4241 34.5539 56.5276Z" fill="#4B4B4B" stroke="black" stroke-width="0.3"/>
</svg>
