<svg width="72" height="72" viewBox="0 0 72 72" fill="none" xmlns="http://www.w3.org/2000/svg">
<path d="M27.736 47.7038C25.304 47.8927 23.0026 48.88 21.1899 50.5122C19.5562 52.3246 18.5679 54.6265 18.379 57.0591C18.376 57.1131 18.3841 57.167 18.4027 57.2177C18.4213 57.2684 18.45 57.3148 18.4871 57.3541C18.5242 57.3933 18.5689 57.4246 18.6185 57.4459C18.6681 57.4673 18.7216 57.4784 18.7756 57.4784H18.7974C21.2589 57.4149 23.6021 56.4088 25.3432 54.6678C27.0844 52.9268 28.0907 50.5837 28.1544 48.1222C28.1576 48.0663 28.1489 48.0104 28.129 47.9581C28.109 47.9058 28.0782 47.8583 28.0386 47.8187C27.9991 47.7791 27.9516 47.7484 27.8993 47.7284C27.847 47.7085 27.791 47.6998 27.7352 47.703L27.736 47.7038ZM24.781 54.1074C23.2324 55.5013 21.2916 56.3837 19.2232 56.6342C19.4731 54.5649 20.3555 52.6231 21.75 51.0739C23.2994 49.68 25.2411 48.7979 27.3102 48.548C27.0615 50.6177 26.1782 52.5597 24.7818 54.1074H24.781ZM46.4539 40.889C50.6472 36.6957 51.0454 30.4151 51.0608 30.1497C51.0638 30.0938 51.0551 30.038 51.0351 29.9858C51.0151 29.9336 50.9843 29.8862 50.9447 29.8467C50.9052 29.8072 50.8577 29.7765 50.8055 29.7566C50.7532 29.7367 50.6974 29.7281 50.6415 29.7312C48.0432 29.9556 45.5158 30.6966 43.2076 31.9108C44.0202 30.5772 44.463 29.0513 44.4907 27.4899C44.5183 25.9285 44.1298 24.3879 43.365 23.0263C42.6002 21.6647 41.4867 20.5314 40.1389 19.7426C38.7911 18.9538 37.2576 18.538 35.696 18.538C34.1343 18.538 32.6008 18.9538 31.253 19.7426C29.9052 20.5314 28.7917 21.6647 28.0269 23.0263C27.2621 24.3879 26.8736 25.9285 26.9013 27.4899C26.9289 29.0513 27.3718 30.5772 28.1844 31.9108C25.8748 30.6942 23.3454 29.9512 20.7447 29.7256C20.689 29.7229 20.6334 29.7319 20.5813 29.7518C20.5292 29.7717 20.4818 29.8022 20.442 29.8413C20.4024 29.8807 20.3716 29.928 20.3516 29.9802C20.3317 30.0324 20.323 30.0882 20.3263 30.144C20.3409 30.4095 20.7407 36.6893 24.9332 40.8825C28.5955 44.5449 33.8482 45.3121 35.297 45.4586V61.3172C35.297 61.4224 35.3388 61.5234 35.4132 61.5979C35.4877 61.6723 35.5887 61.7141 35.694 61.7141C35.7992 61.7141 35.9002 61.6723 35.9747 61.5979C36.0491 61.5234 36.091 61.4224 36.091 61.3172V45.4651C37.5389 45.3194 42.7916 44.5513 46.4539 40.889ZM35.6895 42.5004C35.1616 39.9915 34.0951 37.6271 32.5638 35.5707C34.5748 36.3498 36.8042 36.3498 38.8152 35.5707C37.2856 37.6276 36.2205 39.9919 35.6936 42.5004H35.6895ZM45.8874 40.3281C42.5472 43.6683 37.6457 44.4817 36.129 44.659C36.3054 43.1431 37.1204 38.2408 40.4599 34.9006C43.7993 31.5604 48.7015 30.7461 50.2175 30.5689C50.0467 32.0856 49.2333 36.9871 45.8931 40.3305L45.8874 40.3281ZM35.6895 19.3536C37.2725 19.3532 38.8201 19.8221 40.1366 20.7012C41.4531 21.5803 42.4794 22.8301 43.0856 24.2924C43.6918 25.7548 43.8507 27.3641 43.5423 28.9167C43.2339 30.4694 42.4719 31.8958 41.3528 33.0154C40.2338 34.1351 38.8078 34.8977 37.2553 35.2069C35.7027 35.5161 34.0934 35.358 32.6307 34.7526C31.1681 34.1471 29.9178 33.1215 29.038 31.8054C28.1583 30.4894 27.6885 28.942 27.6882 27.359C27.6899 25.2363 28.5339 23.201 30.0348 21.7C31.5357 20.1989 33.5709 19.3548 35.6936 19.3528L35.6895 19.3536ZM25.4916 40.3281C22.1522 36.9871 21.338 32.0848 21.1608 30.5689C22.6759 30.7445 27.5725 31.5555 30.92 34.9006C34.2675 38.2456 35.0736 43.1439 35.25 44.659C33.7373 44.4834 28.8399 43.6732 25.494 40.3305L25.4916 40.3281ZM35.2962 14.9766V11.9683C35.2962 11.863 35.338 11.762 35.4124 11.6876C35.4869 11.6131 35.5879 11.5713 35.6932 11.5713C35.7984 11.5713 35.8994 11.6131 35.9739 11.6876C36.0483 11.762 36.0901 11.863 36.0901 11.9683V14.9766C36.0901 15.0819 36.0483 15.1829 35.9739 15.2574C35.8994 15.3318 35.7984 15.3736 35.6932 15.3736C35.5879 15.3736 35.4869 15.3318 35.4124 15.2574C35.338 15.1829 35.2962 15.0819 35.2962 14.9766ZM44.3172 18.9425C44.2803 18.9057 44.251 18.8619 44.231 18.8137C44.211 18.7655 44.2007 18.7138 44.2007 18.6617C44.2007 18.6095 44.211 18.5578 44.231 18.5096C44.251 18.4614 44.2803 18.4176 44.3172 18.3808L46.445 16.2522C46.4819 16.2154 46.5256 16.1861 46.5737 16.1662C46.6218 16.1463 46.6734 16.136 46.7255 16.136C46.7776 16.136 46.8291 16.1463 46.8773 16.1662C46.9254 16.1861 46.9691 16.2154 47.0059 16.2522C47.0428 16.289 47.072 16.3327 47.0919 16.3809C47.1118 16.429 47.1221 16.4806 47.1221 16.5326C47.1221 16.5847 47.1118 16.6363 47.0919 16.6844C47.072 16.7325 47.0428 16.7762 47.0059 16.8131L44.8781 18.9425C44.8413 18.9795 44.7975 19.0088 44.7493 19.0288C44.7011 19.0488 44.6495 19.0591 44.5973 19.0591C44.5451 19.0591 44.4934 19.0488 44.4452 19.0288C44.397 19.0088 44.3533 18.9795 44.3164 18.9425H44.3172ZM24.3828 16.8139C24.3084 16.7395 24.2666 16.6386 24.2666 16.5335C24.2666 16.4283 24.3084 16.3274 24.3828 16.253C24.4572 16.1786 24.5581 16.1368 24.6632 16.1368C24.7684 16.1368 24.8693 16.1786 24.9437 16.253L27.0715 18.3816C27.146 18.4561 27.1878 18.5571 27.1878 18.6625C27.1878 18.7678 27.146 18.8688 27.0715 18.9433C26.997 19.0178 26.896 19.0596 26.7906 19.0596C26.6853 19.0596 26.5843 19.0178 26.5098 18.9433L24.3828 16.8139ZM29.3571 13.3037C29.3209 13.2072 29.3236 13.1003 29.3647 13.0057C29.4058 12.9111 29.482 12.8362 29.5773 12.7968C29.6726 12.7574 29.7795 12.7566 29.8754 12.7946C29.9713 12.8325 30.0487 12.9062 30.0912 13.0002L31.2429 15.7811C31.2628 15.8293 31.2731 15.8809 31.2731 15.933C31.2731 15.9851 31.2628 16.0367 31.2428 16.0849C31.2229 16.133 31.1936 16.1767 31.1568 16.2136C31.1199 16.2504 31.0762 16.2796 31.028 16.2995C30.9799 16.3195 30.9283 16.3297 30.8762 16.3297C30.8241 16.3297 30.7725 16.3194 30.7243 16.2995C30.6762 16.2795 30.6325 16.2503 30.5956 16.2134C30.5588 16.1766 30.5296 16.1328 30.5096 16.0847L29.3571 13.3037ZM47.1751 22.3806L49.9552 21.2281C50.0034 21.2082 50.055 21.1979 50.1071 21.198C50.1592 21.198 50.2108 21.2082 50.2589 21.2282C50.3071 21.2482 50.3508 21.2774 50.3876 21.3142C50.4245 21.3511 50.4537 21.3949 50.4736 21.443C50.4935 21.4911 50.5038 21.5428 50.5038 21.5949C50.5038 21.647 50.4935 21.6986 50.4735 21.7467C50.4536 21.7948 50.4243 21.8386 50.3875 21.8754C50.3506 21.9123 50.3069 21.9415 50.2587 21.9614L47.4786 23.1139C47.4304 23.1338 47.3788 23.1441 47.3267 23.1441C47.2746 23.1441 47.223 23.1338 47.1749 23.1138C47.1267 23.0939 47.083 23.0646 47.0462 23.0278C47.0093 22.9909 46.9801 22.9472 46.9602 22.899C46.9403 22.8509 46.93 22.7993 46.93 22.7472C46.93 22.6951 46.9403 22.6435 46.9603 22.5953C46.9802 22.5472 47.0095 22.5035 47.0463 22.4666C47.0832 22.4298 47.1269 22.4006 47.1751 22.3806ZM40.145 15.7795L41.2959 13.0002C41.3398 12.9085 41.4172 12.8372 41.5122 12.8008C41.6071 12.7645 41.7123 12.7659 41.8063 12.8048C41.9002 12.8436 41.9756 12.917 42.0171 13.0098C42.0586 13.1026 42.0629 13.2078 42.0292 13.3037L40.8783 16.083C40.8479 16.1552 40.7969 16.2167 40.7317 16.2599C40.6665 16.3031 40.5899 16.3261 40.5116 16.3259C40.4595 16.3258 40.4078 16.3156 40.3595 16.2959C40.264 16.2551 40.1883 16.1786 40.1485 16.0827C40.1087 15.9868 40.1081 15.8792 40.1466 15.7828L40.145 15.7795ZM31.2421 54.3858L30.0904 57.166C30.0501 57.2632 29.9729 57.3405 29.8757 57.3808C29.7785 57.4211 29.6692 57.4211 29.572 57.3809C29.4747 57.3406 29.3975 57.2634 29.3572 57.1662C29.3169 57.0689 29.3169 56.9597 29.3571 56.8625L30.5088 54.0823C30.5267 54.0314 30.5548 53.9846 30.5914 53.9449C30.628 53.9051 30.6723 53.8733 30.7216 53.8513C30.7709 53.8292 30.8242 53.8175 30.8782 53.8167C30.9322 53.816 30.9858 53.8262 31.0357 53.8469C31.0856 53.8675 31.1308 53.8981 31.1685 53.9368C31.2061 53.9755 31.2355 54.0215 31.2549 54.072C31.2742 54.1224 31.283 54.1763 31.2808 54.2302C31.2786 54.2842 31.2654 54.3371 31.2421 54.3858ZM42.0316 56.8641C42.0516 56.9123 42.0619 56.9639 42.0619 57.0161C42.0619 57.0683 42.0517 57.12 42.0317 57.1682C42.0117 57.2164 41.9823 57.2601 41.9454 57.297C41.9084 57.3338 41.8646 57.363 41.8163 57.3829C41.7682 57.4032 41.7164 57.4136 41.6642 57.4136C41.586 57.4137 41.5094 57.3907 41.4442 57.3476C41.379 57.3044 41.328 57.2429 41.2975 57.1708L40.1442 54.3899C40.1095 54.2938 40.1131 54.188 40.1544 54.0945C40.1956 54.001 40.2713 53.927 40.3656 53.8879C40.46 53.8487 40.5658 53.8474 40.6612 53.8842C40.7565 53.921 40.8339 53.9931 40.8775 54.0856L42.0316 56.8641ZM20.9139 21.4466C20.9338 21.3984 20.963 21.3545 20.9998 21.3176C21.0366 21.2806 21.0804 21.2513 21.1286 21.2313C21.1768 21.2113 21.2285 21.201 21.2807 21.201C21.3328 21.201 21.3845 21.2113 21.4327 21.2313L24.2136 22.3839C24.2618 22.4038 24.3055 22.433 24.3424 22.4699C24.3793 22.5067 24.4085 22.5504 24.4284 22.5986C24.4484 22.6467 24.4587 22.6983 24.4587 22.7504C24.4587 22.8025 24.4485 22.8541 24.4285 22.9023C24.4086 22.9504 24.3794 22.9942 24.3425 23.031C24.3057 23.0679 24.262 23.0971 24.2138 23.1171C24.1657 23.137 24.1141 23.1473 24.062 23.1473C24.0099 23.1473 23.9583 23.1371 23.9101 23.1172L21.1292 21.9654C21.0319 21.9252 20.9545 21.8479 20.9142 21.7506C20.8738 21.6533 20.8737 21.544 20.9139 21.4466ZM19.1722 42.2625C19.1722 41.7651 19.0247 41.2789 18.7483 40.8653C18.472 40.4518 18.0792 40.1294 17.6196 39.9391C17.1601 39.7488 16.6544 39.6991 16.1666 39.7962C15.6788 39.8933 15.2307 40.1329 14.8791 40.4846C14.5274 40.8364 14.288 41.2845 14.191 41.7724C14.0941 42.2602 14.144 42.7659 14.3345 43.2254C14.5249 43.6848 14.8474 44.0775 15.261 44.3537C15.6746 44.63 16.1609 44.7773 16.6583 44.7772C17.3249 44.7763 17.9639 44.5111 18.4352 44.0396C18.9065 43.5682 19.1715 42.9291 19.1722 42.2625ZM16.6583 43.9832C16.318 43.9832 15.9853 43.8823 15.7023 43.6932C15.4194 43.5041 15.1988 43.2354 15.0686 42.921C14.9384 42.6066 14.9043 42.2606 14.9707 41.9268C15.0371 41.593 15.201 41.2864 15.4416 41.0458C15.6822 40.8051 15.9888 40.6412 16.3226 40.5749C16.6564 40.5085 17.0024 40.5425 17.3168 40.6728C17.6312 40.803 17.8999 41.0235 18.089 41.3065C18.2781 41.5895 18.379 41.9222 18.379 42.2625C18.3786 42.7187 18.1971 43.1561 17.8745 43.4787C17.5519 43.8013 17.1145 43.9827 16.6583 43.9832ZM43.6908 47.7062C43.6352 47.7044 43.5797 47.7137 43.5278 47.7335C43.4758 47.7534 43.4283 47.7835 43.3881 47.822C43.3485 47.8614 43.3177 47.9087 43.2978 47.9609C43.2778 48.0131 43.2692 48.0689 43.2724 48.1247C43.3357 50.5864 44.3419 52.9298 46.0834 54.6709C47.8248 56.4121 50.1684 57.4179 52.6301 57.4808H52.652C52.706 57.4808 52.7594 57.4697 52.809 57.4484C52.8586 57.427 52.9034 57.3957 52.9405 57.3565C52.9776 57.3173 53.0063 57.2709 53.0249 57.2202C53.0435 57.1694 53.0516 57.1155 53.0486 57.0616C52.9853 54.5999 51.979 52.2566 50.2375 50.5156C48.4961 48.7746 46.1525 47.7689 43.6908 47.7062ZM46.645 54.1098C45.2503 52.561 44.3677 50.6195 44.1173 48.5504C46.2152 48.6925 48.1905 49.5901 49.6774 51.0768C51.1643 52.5636 52.062 54.5388 52.2044 56.6367C50.1342 56.3872 48.1916 55.5041 46.6425 54.1082L46.645 54.1098ZM54.7701 39.7502C54.2727 39.7501 53.7864 39.8974 53.3728 40.1736C52.9591 40.4499 52.6367 40.8425 52.4462 41.302C52.2558 41.7615 52.2059 42.2671 52.3028 42.755C52.3997 43.2428 52.6392 43.691 52.9908 44.0428C53.3425 44.3945 53.7906 44.6341 54.2784 44.7312C54.7662 44.8283 55.2719 44.7785 55.7314 44.5882C56.191 44.3979 56.5837 44.0756 56.8601 43.6621C57.1364 43.2485 57.2839 42.7623 57.2839 42.2649C57.2837 41.5975 57.0186 40.9576 56.5467 40.4856C56.0749 40.0136 55.435 39.7482 54.7677 39.7478L54.7701 39.7502ZM54.7701 43.9856C54.4297 43.9858 54.097 43.885 53.8139 43.696C53.5308 43.507 53.3102 43.2384 53.1798 42.924C53.0494 42.6096 53.0152 42.2635 53.0815 41.9297C53.1478 41.5959 53.3117 41.2892 53.5523 41.0485C53.7929 40.8078 54.0995 40.6438 54.4333 40.5773C54.7671 40.5109 55.1131 40.5449 55.4276 40.6751C55.742 40.8053 56.0108 41.0259 56.1999 41.3089C56.389 41.5918 56.49 41.9246 56.49 42.2649C56.4889 42.721 56.307 43.158 55.9841 43.4802C55.6612 43.8023 55.2237 43.9832 54.7677 43.9832L54.7701 43.9856Z" fill="#333333" stroke="#4B4B4B" stroke-width="0.6" stroke-miterlimit="10"/>
</svg>
