<svg width="72" height="72" viewBox="0 0 72 72" fill="none" xmlns="http://www.w3.org/2000/svg">
<path d="M41.5814 13.6187L38.9362 9.58312C38.8593 9.49075 38.7492 9.43235 38.6296 9.42052C38.51 9.40868 38.3906 9.44436 38.2971 9.51988C38.2064 9.59787 38.1493 9.70777 38.1375 9.82677C38.1258 9.94578 38.1603 10.0648 38.2339 10.159L40.879 14.1946C40.9558 14.2872 41.0659 14.3458 41.1856 14.3576C41.3052 14.3694 41.4247 14.3336 41.5181 14.2579C41.6088 14.1799 41.6659 14.07 41.6777 13.951C41.6895 13.832 41.655 13.713 41.5814 13.6187Z" fill="#424242" stroke="#4B4B4B" stroke-width="0.4"/>
<path d="M36.8036 19.0933L32.2323 17.548C31.6785 17.3609 31.3508 18.2089 31.9055 18.3959L36.4768 19.9411C37.0306 20.1282 37.3583 19.2802 36.8035 19.0924L36.8036 19.0933Z" fill="#424242" stroke="#4B4B4B" stroke-width="0.4"/>
<path d="M38.8615 15.7368L35.0303 12.8038C34.5652 12.4498 34.0323 13.1845 34.4968 13.5395L38.3272 16.4727C38.7923 16.8267 39.3251 16.092 38.8615 15.7368Z" fill="#424242" stroke="#4B4B4B" stroke-width="0.4"/>
<path d="M46.6926 58.3211C48.1472 58.3211 49.3F263 57.1419 49.3263 55.6873C49.3263 54.2328 48.1472 53.0536 46.6926 53.0536C45.238 53.0536 44.0588 54.2328 44.0588 55.6873C44.0588 57.1419 45.238 58.3211 46.6926 58.3211Z" stroke="#4B4B4B" stroke-width="1.5"/>
<path d="M20.9663 58.3211C22.4208 58.3211 23.6 57.1419 23.6 55.6873C23.6 54.2328 22.4208 53.0536 20.9663 53.0536C19.5117 53.0536 18.3325 54.2328 18.3325 55.6873C18.3325 57.1419 19.5117 58.3211 20.9663 58.3211Z" stroke="#4B4B4B" stroke-width="1.5"/>
<path d="M7.71436 48.0632H14.9845C20.1775 48.0632 22.5413 47.0323 24.5541 47.0323C24.7992 47.043 25.0396 47.1033 25.2603 47.2097C27.5452 48.2405 26.409 49.6486 26.409 52.1845C26.409 61.996 32.9708 62.4929 34.2857 62.4929C37.6092 62.4929 40.9493 60.2622 40.9493 55.277C40.9771 53.5731 40.4408 51.9072 39.4226 50.5351C39.2303 50.2842 39.0892 49.9985 39.0071 49.694C38.8807 49.2019 38.9353 48.6811 39.1611 48.2254C39.3869 47.7696 39.7691 47.4087 40.2389 47.2076C40.4619 47.1036 40.7032 47.044 40.9493 47.0323C42.9621 47.0323 45.1037 48.0632 50.2966 48.0632H63.7983" stroke="#424242" stroke-width="1.3" stroke-linecap="round" stroke-linejoin="round"/>
<path d="M45.1035 15.0763C45.1035 15.0763 30.5632 37.2394 30.5632 52.1866C30.5632 56.8893 32.3371 58.3716 34.2855 58.3716C35.9078 58.3716 36.7948 57.3408 36.7948 55.2791C36.7948 52.3927 34.7176 53.1741 34.7176 48.0632C34.7176 33.5675 45.1035 15.0763 45.1035 15.0763Z" stroke="#424242" stroke-width="1.2" stroke-linecap="round" stroke-linejoin="round"/>
</svg>
