<svg width="72" height="72" viewBox="0 0 72 72" fill="none" xmlns="http://www.w3.org/2000/svg">
<path d="M58.3966 30.6944L63.7948 30.8653C64.4497 30.8862 64.4489 29.8686 63.7948 29.8476L58.3966 29.6767C57.7418 29.6557 57.7425 30.6734 58.3966 30.6944Z" fill="#4B4B4B"/>
<path d="M56.4623 22.8125L60.8165 19.6173C60.9306 19.5463 61.0131 19.4342 61.0469 19.3041C61.0807 19.1739 61.0635 19.0358 60.9984 18.9182C60.9297 18.8015 60.8174 18.7167 60.6864 18.6825C60.5553 18.6483 60.4161 18.6674 60.2991 18.7356L55.9449 21.9315C55.8305 22.0023 55.7477 22.1144 55.7137 22.2446C55.6798 22.3747 55.6973 22.513 55.7625 22.6307C55.8312 22.7474 55.9432 22.8322 56.0743 22.8664C56.2053 22.9006 56.3446 22.8815 56.4616 22.8133L56.4623 22.8125Z" fill="#4B4B4B"/>
<path d="M58.2111 26.8495L63.3623 25.2244C63.9838 25.0278 63.718 24.0459 63.0919 24.2432L57.9416 25.8684C57.3201 26.0649 57.5849 27.0476 58.2118 26.8495H58.2111Z" fill="#4B4B4B"/>
<path d="M58.1062 60.565H29.6639C29.4716 60.5622 29.2834 60.5094 29.1176 60.4119C28.9519 60.3144 28.8143 60.1755 28.7184 60.0088C28.5959 59.8055 28.5277 59.5742 28.5202 59.337C28.5127 59.0998 28.5663 58.8646 28.6757 58.654L37.788 42.1478C38.0734 41.5854 38.2204 40.9629 38.2168 40.3323V29.5343H35.6314V25.9367C35.6 25.4291 35.77 24.9295 36.1044 24.5463C36.4389 24.1631 36.9109 23.9272 37.4182 23.8898H50.9935C51.5007 23.9272 51.9728 24.1631 52.3072 24.5463C52.6417 24.9295 52.8115 25.4291 52.7801 25.9367V29.535H50.1941V40.3952C50.1912 40.9966 50.324 41.5908 50.5825 42.1338L59.0996 58.6765C59.2037 58.8884 59.2524 59.1232 59.2413 59.359C59.2302 59.5948 59.1597 59.824 59.0361 60.0251C58.9407 60.1875 58.8049 60.3225 58.642 60.4171C58.4791 60.5117 58.2946 60.5626 58.1062 60.565ZM36.6228 28.5438H39.208V40.3315C39.2121 41.1254 39.0256 41.9086 38.6642 42.6154L29.5512 59.1224C29.5234 59.1811 29.5104 59.2456 29.5133 59.3105C29.5161 59.3753 29.5347 59.4385 29.5675 59.4945C29.5815 59.5186 29.6211 59.5722 29.6661 59.5722H58.1085C58.152 59.5722 58.1862 59.5194 58.2041 59.4945C58.2376 59.4375 58.2566 59.3731 58.2594 59.307C58.2623 59.2409 58.2489 59.1751 58.2204 59.1154L49.7031 42.5727C49.3763 41.892 49.2074 41.1464 49.209 40.3913V28.5438H51.7952V25.9367C51.7952 25.365 51.4308 24.881 50.9973 24.881H37.4222C36.9895 24.881 36.6243 25.365 36.6243 25.9367L36.6228 28.5438Z" fill="#4B4B4B" stroke="#4B4B4B" stroke-width="0.3"/>
<path d="M33.9247 51.134L33.2744 50.3859C33.464 50.2212 37.9898 46.3673 43.9707 47.1659C49.3146 47.8759 50.3151 43.8371 50.3555 43.6647L51.3196 43.8915C51.3087 43.942 50.0533 48.9728 43.841 48.1486C38.2812 47.4121 33.9683 51.0967 33.9247 51.134Z" fill="#4B4B4B" stroke="#4B4B4B" stroke-width="0.3"/>
<path d="M42.3153 22.1933C41.5062 22.1922 40.7306 21.8703 40.1585 21.2981C39.5865 20.7259 39.2647 19.9502 39.2639 19.1411C39.2647 18.332 39.5865 17.5562 40.1585 16.984C40.7306 16.4118 41.5062 16.0899 42.3153 16.0889C43.1246 16.0897 43.9004 16.4115 44.4727 16.9837C45.0449 17.556 45.3666 18.3318 45.3675 19.1411C45.3666 19.9503 45.0449 20.7262 44.4727 21.2984C43.9004 21.8706 43.1246 22.1924 42.3153 22.1933ZM42.3153 16.7678C41.6859 16.7684 41.0825 17.0188 40.6374 17.4638C40.1923 17.9089 39.942 18.5124 39.9414 19.1418C39.942 19.7713 40.1923 20.3748 40.6374 20.8198C41.0825 21.2649 41.6859 21.5152 42.3153 21.5159C42.9447 21.515 43.5482 21.2646 43.9932 20.8196C44.4382 20.3746 44.6886 19.7712 44.6894 19.1418C44.6888 18.5124 44.4385 17.9089 43.9934 17.4638C43.5483 17.0188 42.9448 16.7684 42.3153 16.7678Z" fill="#4B4B4B" stroke="black" stroke-width="0.3"/>
<path d="M47.9888 17.4467C47.4251 17.4461 46.8848 17.2219 46.4863 16.8233C46.0878 16.4246 45.8637 15.8842 45.8633 15.3205C45.8637 14.7569 46.0878 14.2164 46.4863 13.8178C46.8848 13.4192 47.4251 13.195 47.9888 13.1943C48.5525 13.195 49.093 13.4192 49.4916 13.8178C49.8902 14.2164 50.1144 14.7568 50.115 15.3205C50.1146 15.8843 49.8905 16.4249 49.4918 16.8235C49.0932 17.2222 48.5525 17.4463 47.9888 17.4467ZM47.9888 13.6674C47.5504 13.668 47.1302 13.8425 46.8203 14.1526C46.5104 14.4626 46.3361 14.8829 46.3357 15.3213C46.3363 15.7596 46.5106 16.1797 46.8205 16.4896C47.1304 16.7994 47.5505 16.9738 47.9888 16.9744C48.4271 16.974 48.8474 16.7997 49.1574 16.4898C49.4675 16.1799 49.642 15.7597 49.6426 15.3213C49.6424 14.8827 49.4681 14.462 49.158 14.1518C48.8479 13.8416 48.4274 13.6671 47.9888 13.6667V13.6674Z" fill="#4B4B4B" stroke="#4B4B4B" stroke-width="0.3"/>
<path d="M41.5789 13.5595C41.1449 13.5591 40.7288 13.3865 40.422 13.0796C40.1151 12.7727 39.9426 12.3567 39.9421 11.9227C39.9426 11.4887 40.1151 11.0726 40.422 10.7657C40.7288 10.4589 41.1449 10.2863 41.5789 10.2859C42.0128 10.2865 42.4288 10.4591 42.7356 10.766C43.0424 11.0728 43.2152 11.4888 43.2158 11.9227C43.2154 12.3567 43.0427 12.7727 42.7358 13.0796C42.4289 13.3865 42.0129 13.5591 41.5789 13.5595ZM41.5789 10.6495C41.2413 10.6499 40.9178 10.7841 40.6791 11.0228C40.4405 11.2615 40.3061 11.5851 40.3057 11.9227C40.3061 12.2602 40.4405 12.5839 40.6791 12.8225C40.9178 13.0612 41.2413 13.1955 41.5789 13.1959C41.9164 13.1955 42.2401 13.0612 42.4788 12.8225C42.7175 12.5839 42.8518 12.2602 42.8522 11.9227C42.8518 11.5851 42.7175 11.2615 42.4788 11.0228C42.2401 10.7841 41.9164 10.6499 41.5789 10.6495Z" fill="#4B4B4B" stroke="#4B4B4B" stroke-width="0.3"/>
<path d="M6.42871 24.4918V60.2178" stroke="#4B4B4B" stroke-width="1.2"/>
<path d="M15.5441 23.8898C15.5441 26.4409 11.931 26.4409 11.931 28.9928C11.931 31.5447 15.5441 31.5447 15.5441 34.0958C15.5441 36.647 11.931 36.6478 11.931 39.1997C11.931 41.7516 15.5441 41.7516 15.5441 44.3027C15.5441 46.8538 11.931 46.8546 11.931 49.4065C11.931 51.9584 15.5441 51.9584 15.5441 54.5111C15.5441 57.0638 11.931 57.063 11.931 59.6157" stroke="#4B4B4B" stroke-width="1.2" stroke-miterlimit="10"/>
<path d="M24.4916 24.4918C24.4916 25.9802 19.6753 25.9802 19.6753 27.4679C19.6753 28.9555 24.4916 28.9563 24.4916 30.4447C24.4916 31.9331 19.6753 31.9331 19.6753 33.4216C19.6753 34.91 24.4916 34.91 24.4916 36.3984C24.4916 37.8868 19.6753 37.8868 19.6753 39.3752C19.6753 40.8637 24.4916 40.8637 24.4916 42.3521C24.4916 43.8405 19.6753 43.8397 19.6753 45.3281C19.6753 46.8166 24.4916 46.8166 24.4916 48.305C24.4916 49.7934 19.6753 49.7942 19.6753 51.2826C19.6753 52.771 24.4916 52.771 24.4916 54.2594C24.4916 55.7478 19.6753 55.7486 19.6753 57.2386C19.6753 58.7286 24.4916 58.7278 24.4916 60.2178" stroke="#4B4B4B" stroke-width="1.2" stroke-miterlimit="10"/>
</svg>
