<svg width="72" height="72" viewBox="0 0 72 72" fill="none" xmlns="http://www.w3.org/2000/svg">
<path d="M50.8566 28.1226C52.484 21.4308 51.9415 16.1266 48.8074 14.3172C48.1292 13.9516 47.3825 13.7307 46.6145 13.6685C45.8466 13.6063 45.0741 13.7041 44.3459 13.9558C42.5977 14.4379 38.8598 16.6079 35.9662 19.4419C33.0752 16.6087 30.1188 14.6191 27.5866 13.9558C25.0544 13.2926 24.3317 13.5945 23.1251 14.3172C19.9901 16.1258 19.4476 21.4308 21.0759 28.1226C14.5057 29.9915 10.2856 33.1869 10.2856 36.8032C10.2856 40.4195 14.5057 43.6149 21.0767 45.4839C19.4493 52.1757 19.9918 57.4807 23.1259 59.2893C23.895 59.7339 24.7698 59.963 25.6581 59.9525C26.3116 59.9358 26.9601 59.8344 27.5874 59.6506C30.1196 58.9874 33.0735 56.9986 35.9671 54.1645C38.8581 56.9977 41.8145 58.9874 44.3467 59.6506C44.974 59.8344 45.6226 59.9359 46.276 59.9525C47.1644 59.9629 48.0391 59.7338 48.8082 59.2893C51.9432 57.4807 52.4849 52.1757 50.8574 45.4839C57.4285 43.6132 61.6477 40.4204 61.6477 36.8032C61.6477 33.1861 57.4276 29.9915 50.8566 28.1226ZM44.6494 15.1012C45.1833 14.9706 45.7281 14.89 46.2769 14.8605C46.9502 14.8567 47.6134 15.0238 48.2045 15.3461C50.7962 16.8536 51.1584 21.6756 49.65 27.7604C47.0929 27.1323 44.4939 26.689 41.8732 26.4339C40.3424 24.2605 38.65 22.2055 36.8106 20.2863C39.5834 17.573 42.2967 15.7644 44.6477 15.1012H44.6494ZM44.0466 41.5054C43.1419 43.0724 42.1759 44.5792 41.2134 45.966C39.4707 46.1396 37.72 46.2202 35.9688 46.2075C34.2175 46.2202 32.4668 46.1396 30.7242 45.966C29.7599 44.5792 28.7948 43.075 27.891 41.5054C26.9871 39.9357 26.2031 38.3703 25.4795 36.8032C26.2031 35.2361 27.0466 33.6682 27.891 32.1011C28.7507 30.5618 29.6966 29.0723 30.7242 27.6396C32.4669 27.4665 34.2175 27.3862 35.9688 27.399C37.72 27.3862 39.4707 27.4665 41.2134 27.6396C42.1776 29.0264 43.1427 30.5306 44.0466 32.1011C44.9504 33.6716 45.7344 35.2361 46.458 36.8032C45.7301 38.3712 44.8884 39.9383 44.0449 41.5062L44.0466 41.5054ZM47.1212 38.2504C47.9972 40.3318 48.7421 42.466 49.3516 44.6404C47.1848 45.1618 44.9912 45.5643 42.7805 45.8461C43.5645 44.6404 44.3476 43.3743 45.0712 42.1048C45.7948 40.8353 46.4563 39.5165 47.1195 38.2504H47.1212ZM35.9671 52.4776C34.4333 50.8244 32.9858 49.0932 31.6306 47.2908L35.9671 47.4115L40.3036 47.2908C38.9483 49.0932 37.5009 50.8244 35.9671 52.4776ZM29.1554 45.8453C26.9447 45.5634 24.751 45.1609 22.5843 44.6395C23.1932 42.4655 23.9376 40.3316 24.8129 38.2504C25.4761 39.5165 26.1394 40.8421 26.8621 42.1091C27.5849 43.376 28.3705 44.6404 29.1545 45.8461L29.1554 45.8453ZM24.8129 35.3569C23.937 33.2755 23.1922 31.1413 22.5826 28.9669C24.7496 28.4452 26.9435 28.0424 29.1545 27.7604C28.3705 28.9661 27.5874 30.2322 26.8638 31.5016C26.1402 32.7711 25.477 34.0908 24.8129 35.3569ZM35.9671 21.1281C37.5008 22.7813 38.9482 24.5125 40.3036 26.3149L35.9671 26.1941L31.6306 26.3149C32.9859 24.5125 34.4334 22.7813 35.9671 21.1281ZM45.0695 31.5016C44.3459 30.2356 43.5628 28.9695 42.7788 27.7604C44.9895 28.0422 47.1831 28.4447 49.3499 28.9661C48.7403 31.1405 47.9954 33.2746 47.1195 35.356C46.4563 34.0908 45.7931 32.7643 45.0695 31.5016ZM23.7271 15.3461C24.8343 14.7991 26.1129 14.7123 27.2839 15.1046C29.6349 15.7678 32.3474 17.5764 35.1202 20.2914C33.2803 22.2108 31.5877 24.2661 30.0567 26.4398C27.436 26.695 24.837 27.1383 22.2799 27.7663C20.7749 21.6722 21.1371 16.8502 23.7288 15.3461H23.7271ZM11.4914 36.8032C11.4914 33.7889 15.4095 31.0161 21.3777 29.3283C22.1008 31.89 23.0281 34.3897 24.1505 36.8032C23.0281 39.2171 22.1008 41.717 21.3777 44.279C15.4095 42.5912 11.4914 39.8184 11.4914 36.8032ZM27.2856 58.5061C26.1147 58.8987 24.8361 58.8122 23.7288 58.2655C21.1362 56.7579 20.7749 51.9359 22.2833 45.8512C24.8404 46.4794 27.4393 46.9227 30.0601 47.1777C31.591 49.3517 33.2837 51.4073 35.1236 53.327C32.3491 56.0343 29.6366 57.8429 27.2856 58.5061ZM48.2028 58.2655C47.0955 58.8122 45.8169 58.8987 44.646 58.5061C42.295 57.8429 39.5817 56.0343 36.8089 53.3193C38.649 51.3996 40.3419 49.344 41.8732 47.17C44.494 46.9151 47.0929 46.4718 49.65 45.8436C51.1584 51.9351 50.7962 56.7554 48.2045 58.2647L48.2028 58.2655ZM50.5539 44.2799C49.8306 41.7179 48.9034 39.218 47.7811 36.8041C48.9034 34.3904 49.8306 31.8908 50.5539 29.3291C56.5229 31.0161 60.4402 33.7898 60.4402 36.8032C60.4402 39.8167 56.5229 42.5912 50.5556 44.279L50.5539 44.2799Z" fill="#4B4B4B" stroke="#4B4B4B" stroke-width="0.4"/>
<path d="M13.7515 24.1113L17.8831 26.8323C18.3856 27.163 18.8524 26.3569 18.3533 26.027L14.2217 23.3061C13.7192 22.9753 13.2515 23.7823 13.7515 24.1113Z" fill="#4B4B4B" stroke="#4B4B4B" stroke-width="0.3"/>
<path d="M35.4253 12.0388L35.5103 16.9867C35.5103 17.1107 35.5596 17.2297 35.6473 17.3174C35.735 17.4051 35.8539 17.4544 35.978 17.4544C36.102 17.4544 36.221 17.4051 36.3087 17.3174C36.3964 17.2297 36.4456 17.1107 36.4456 16.9867L36.3606 12.0388C36.3606 11.9148 36.3113 11.7958 36.2236 11.7081C36.1359 11.6204 36.017 11.5712 35.893 11.5712C35.7689 11.5712 35.65 11.6204 35.5623 11.7081C35.4746 11.7958 35.4253 11.9148 35.4253 12.0388Z" fill="#4B4B4B" stroke="#4B4B4B" stroke-width="0.3"/>
<path d="M53.7864 47.7283L57.918 50.4492C58.4205 50.78 58.8873 49.9739 58.3882 49.644L54.2566 46.923C53.7541 46.5923 53.2864 47.3992 53.7864 47.7283Z" fill="#4B4B4B" stroke="#4B4B4B" stroke-width="0.3"/>
<path d="M53.852 26.8902L58.5712 25.4014C59.1417 25.2211 58.8977 24.3215 58.3237 24.5026L53.6046 25.9915C53.0349 26.1717 53.2781 27.0713 53.852 26.8902Z" fill="#4B4B4B" stroke="#4B4B4B" stroke-width="0.3"/>
<path d="M35.5452 56.2218L35.6302 61.1697C35.6302 61.2937 35.6795 61.4127 35.7672 61.5004C35.8549 61.5881 35.9738 61.6373 36.0979 61.6373C36.2219 61.6373 36.3408 61.5881 36.4285 61.5004C36.5162 61.4127 36.5655 61.2937 36.5655 61.1697L36.4805 56.2218C36.4805 56.0978 36.4312 55.9788 36.3435 55.8911C36.2558 55.8034 36.1369 55.7542 36.0128 55.7542C35.8888 55.7542 35.7698 55.8034 35.6821 55.8911C35.5944 55.9788 35.5452 56.0978 35.5452 56.2218Z" fill="#4B4B4B" stroke="#4B4B4B" stroke-width="0.3"/>
<path d="M13.676 48.6603L18.3951 47.1706C18.9648 46.9912 18.7217 46.0907 18.1477 46.2719L13.4286 47.7616C12.8589 47.941 13.1021 48.8414 13.676 48.6603Z" fill="#4B4B4B" stroke="#4B4B4B" stroke-width="0.3"/>
</svg>
